<?xml version="1.0" standalone="no"?>
<!DOCTYPE svg PUBLIC "-//W3C//DTD SVG 20010904//EN"
 "http://www.w3.org/TR/2001/REC-SVG-20010904/DTD/svg10.dtd">
<svg version="1.0" xmlns="http://www.w3.org/2000/svg"
 width="685.000000pt" height="685.000000pt" viewBox="0 0 685.000000 685.000000"
 preserveAspectRatio="xMidYMid meet">
<metadata>
Created by potrace 1.14, written by Peter Selinger 2001-2017
</metadata>
<g transform="translate(0.000000,685.000000) scale(0.100000,-0.100000)"
fill="#000000" stroke="none">
<path d="M6289 6793 c-30 -32 -161 -161 -292 -286 -240 -232 -576 -595 -701
-761 -82 -107 -209 -235 -287 -289 -56 -38 -102 -54 -394 -137 -152 -43 -292
-88 -370 -121 -321 -136 -751 -424 -930 -623 -39 -43 -164 -180 -279 -305
-116 -124 -264 -289 -330 -367 -67 -77 -263 -300 -436 -495 -174 -195 -383
-433 -465 -529 -189 -222 -462 -496 -730 -731 -115 -101 -248 -222 -294 -269
-93 -93 -97 -88 -21 24 43 65 49 78 40 100 -5 15 -14 26 -19 26 -37 0 -284
-42 -316 -54 -22 -8 -85 -35 -140 -61 -139 -65 -216 -96 -246 -101 -14 -2 -38
-8 -52 -13 -26 -10 -27 -13 -27 -96 l0 -85 41 21 c40 20 44 20 93 5 28 -9 77
-19 109 -22 57 -7 58 -7 52 -34 -5 -22 -1 -32 17 -44 12 -9 31 -16 41 -16 10
0 71 -22 135 -49 226 -95 326 -118 634 -150 88 -9 112 -16 300 -96 258 -110
348 -140 478 -159 198 -29 290 -30 495 -6 284 34 524 21 875 -44 296 -55 543
-55 694 0 39 14 109 40 156 57 l85 31 240 2 240 3 -65 -20 c-36 -11 -110 -38
-165 -60 -64 -27 -125 -44 -170 -49 -73 -8 -105 -17 -105 -30 0 -17 42 -23
205 -27 207 -6 269 5 428 76 62 27 141 57 177 66 36 9 111 30 168 46 68 20
151 34 250 44 169 16 428 59 477 79 43 18 141 92 149 112 10 27 6 61 -8 74
-23 19 -114 39 -201 46 -103 7 -292 -18 -351 -47 -48 -23 -207 -140 -264 -194
-28 -27 -49 -36 -102 -45 -91 -16 -104 -9 -32 18 63 23 124 71 124 96 0 23
-68 21 -155 -4 -134 -38 -252 -59 -460 -80 -115 -12 -302 -37 -415 -56 -214
-36 -393 -54 -375 -37 6 5 51 40 100 78 102 78 687 661 802 800 42 50 79 91
83 93 5 2 14 -6 20 -17 12 -23 68 -56 78 -46 10 10 -12 38 -46 60 -17 11 -31
23 -32 26 0 14 152 232 234 334 48 61 122 163 164 228 43 65 123 187 178 271
129 192 161 253 147 275 -5 9 -70 67 -144 129 -142 119 -339 309 -339 327 0 6
16 26 35 45 71 69 181 251 214 353 7 20 17 37 23 37 6 0 58 -46 115 -101 102
-99 142 -124 89 -55 -32 43 -203 201 -216 201 -6 0 -22 -23 -38 -51 -166 -308
-227 -414 -237 -414 -7 0 -85 78 -173 172 -257 278 -512 529 -669 661 -52 43
-78 46 -156 17 -43 -16 -72 -39 -143 -113 -222 -231 -309 -341 -398 -507 -65
-121 -196 -299 -516 -700 -100 -126 -300 -334 -395 -413 -49 -40 -124 -114
-167 -163 -109 -127 -783 -774 -806 -774 -15 0 -190 -185 -222 -236 -34 -54
-36 -68 -15 -104 8 -14 28 -53 45 -87 32 -63 60 -93 146 -152 57 -40 46 -51
-23 -23 -26 11 -56 23 -65 26 -10 3 -18 15 -18 26 0 21 -14 27 -25 10 -11 -18
-35 -11 -35 11 0 15 -4 19 -16 15 -13 -5 -15 -2 -10 14 19 61 18 64 -8 28 -25
-36 -56 -51 -56 -27 0 6 9 24 21 40 11 16 19 37 17 47 -4 18 -7 16 -69 -58
-18 -22 -20 -22 -16 -5 3 11 8 28 12 38 12 29 -9 19 -27 -14 -10 -17 -23 -27
-28 -24 -7 4 3 25 25 53 19 26 42 60 51 76 26 48 -6 26 -47 -31 -19 -29 -43
-62 -53 -75 l-17 -23 4 27 c5 35 -2 35 -28 2 -17 -21 -26 -24 -48 -19 -24 6
-30 20 -9 20 21 1 32 21 32 56 0 56 -23 50 -61 -16 -26 -47 -35 -55 -60 -55
-16 0 -29 3 -29 7 0 3 40 48 90 99 101 104 164 197 270 394 40 74 76 139 81
144 9 10 49 -20 49 -36 0 -5 -42 -67 -93 -137 -98 -135 -167 -254 -153 -268 4
-4 15 1 24 13 10 12 76 96 147 187 98 125 136 166 153 167 17 0 22 6 22 28 0
49 20 65 68 57 23 -4 42 -12 42 -18 0 -7 -14 -32 -30 -57 -16 -25 -30 -49 -30
-55 1 -15 45 40 192 238 73 97 138 177 145 177 7 0 13 7 13 15 0 17 105 158
163 219 20 21 37 42 37 46 0 4 9 19 20 33 14 18 26 24 42 19 17 -4 20 -2 15
11 -10 27 17 66 199 293 242 302 315 414 270 414 -12 0 -160 -186 -415 -520
-35 -47 -68 -89 -72 -94 -10 -11 -79 34 -79 52 0 7 64 99 143 205 221 297 285
385 586 810 77 109 9 75 -101 -51 -76 -87 -209 -264 -379 -507 -226 -321 -297
-415 -315 -415 -8 0 -14 -7 -12 -16 2 -10 -3 -19 -9 -21 -20 -7 -27 26 -10 45
8 9 63 87 122 172 60 85 208 288 330 450 121 162 243 327 270 365 63 90 128
165 360 414 321 344 525 497 930 696 308 151 503 230 770 315 73 23 141 51
155 64 14 12 60 44 103 70 101 62 226 181 323 309 215 282 294 368 504 549 74
64 174 156 221 205 79 81 289 327 289 338 0 3 -17 5 -39 5 -34 0 -45 -7 -92
-57z m-2209 -2342 c1 -77 59 -171 106 -171 22 0 17 24 -21 97 -38 74 -53 123
-38 123 6 0 41 -26 79 -58 44 -37 136 -141 257 -292 231 -288 402 -484 546
-623 121 -117 208 -182 353 -263 54 -30 99 -58 102 -63 6 -8 -90 -144 -105
-149 -5 -2 -9 -8 -9 -14 0 -10 -98 -151 -152 -218 -126 -158 -211 -271 -271
-360 -38 -58 -73 -108 -76 -112 -4 -4 -70 54 -147 130 -136 135 -218 202 -231
188 -14 -14 28 -65 143 -171 67 -61 142 -125 167 -141 26 -16 46 -33 47 -38 0
-13 -112 -166 -122 -166 -5 0 -57 43 -116 96 -170 152 -431 346 -406 302 11
-20 254 -235 392 -346 56 -46 102 -86 102 -89 0 -3 -12 -21 -26 -40 l-25 -33
-92 85 c-101 94 -193 162 -204 151 -9 -9 110 -122 205 -196 39 -30 71 -59 72
-63 1 -18 -33 -18 -53 1 -35 33 -218 152 -233 152 -41 0 15 -46 161 -135 44
-27 82 -50 84 -52 8 -6 -19 -54 -33 -59 -8 -3 -50 24 -97 62 -178 144 -500
374 -522 374 -14 0 1 -13 193 -164 125 -98 328 -246 386 -282 18 -11 16 -15
-21 -54 -57 -59 -72 -66 -98 -42 -29 26 -67 45 -67 33 0 -5 14 -22 30 -38 16
-15 30 -32 29 -38 0 -9 -181 -166 -199 -173 -4 -1 -66 41 -138 95 -129 97
-232 162 -232 146 1 -12 122 -105 243 -185 l107 -72 -42 -43 c-23 -24 -46 -43
-51 -43 -6 0 -48 29 -96 64 -176 129 -267 183 -254 151 6 -18 85 -78 216 -166
96 -64 114 -88 81 -107 -13 -7 -50 16 -161 99 -134 101 -153 114 -153 106 0
-6 138 -115 205 -161 39 -27 74 -53 79 -57 10 -9 -30 -59 -47 -59 -6 0 -65 35
-131 79 -149 96 -267 162 -246 137 15 -19 234 -166 308 -206 23 -13 42 -28 42
-33 0 -5 -23 -34 -51 -65 -77 -84 -101 -120 -101 -147 l0 -25 -103 0 c-80 0
-104 3 -108 14 -3 8 -30 32 -59 54 -58 44 -248 162 -260 162 -38 0 72 -103
179 -167 86 -52 87 -53 51 -53 -28 0 -48 10 -90 43 -70 57 -144 107 -157 107
-23 0 -9 -21 49 -71 33 -29 60 -55 60 -59 0 -12 -115 10 -118 23 -8 28 -201
200 -288 258 -52 34 -97 60 -100 57 -9 -9 237 -223 346 -300 24 -17 18 -18
-155 -11 -168 6 -181 7 -204 29 -13 12 -40 31 -59 41 -39 20 -100 82 -226 227
-65 75 -86 106 -86 128 0 24 3 27 18 19 9 -5 28 -21 42 -36 93 -102 169 -130
209 -79 26 33 26 57 2 109 -23 51 -79 101 -150 133 -57 26 -63 26 -151 -4 -10
-3 -48 25 -105 78 -48 46 -83 73 -77 61 7 -12 46 -52 87 -89 l74 -68 -2 -68
c-1 -41 -6 -67 -12 -64 -38 14 -54 15 -60 6 -4 -6 -52 33 -117 95 -112 108
-148 135 -148 114 0 -13 169 -183 218 -220 l33 -24 -33 -55 c-19 -30 -42 -67
-52 -82 -17 -26 -17 -27 4 -48 17 -17 24 -19 35 -10 8 6 21 10 29 8 17 -3 235
-179 236 -189 0 -12 -27 -18 -112 -24 l-83 -6 -115 104 c-63 57 -180 177 -259
266 -140 158 -183 195 -126 109 102 -155 261 -332 377 -421 37 -28 68 -55 68
-59 0 -4 -9 -9 -20 -13 -22 -7 -342 23 -375 35 -11 4 -54 43 -95 86 -41 44
-130 135 -197 204 -68 69 -123 133 -123 142 0 9 33 42 73 74 86 69 245 229
449 450 81 89 163 173 181 187 l34 26 87 -46 c48 -24 90 -42 93 -39 11 11 -41
57 -92 83 -27 14 -51 26 -52 27 -6 5 395 406 451 452 97 80 293 310 476 558
56 77 120 158 141 180 94 101 169 207 263 377 113 203 460 587 516 572 16 -4
20 -14 20 -52z m-2096 -1493 c-74 -101 -146 -193 -159 -205 -14 -12 -25 -26
-25 -30 0 -4 -13 -23 -28 -40 -20 -24 -31 -30 -41 -24 -12 8 8 37 93 143 155
192 280 338 288 338 4 0 -53 -82 -128 -182z m46 -134 c0 -9 -5 -14 -12 -12
-18 6 -21 28 -4 28 9 0 16 -7 16 -16z m150 -55 c0 -6 -13 -1 -30 11 -16 12
-30 26 -30 31 0 6 14 1 30 -11 17 -12 30 -26 30 -31z m-181 28 c8 -11 6 -19
-8 -35 -10 -12 -23 -22 -29 -22 -23 0 -23 22 -1 46 26 28 24 27 38 11z m134
-49 c28 -20 36 -38 15 -38 -17 1 -68 46 -68 60 0 12 8 8 53 -22z m-28 -38 c16
-16 23 -30 16 -30 -15 0 -71 41 -71 52 0 18 28 6 55 -22z m-168 4 c8 -20 -8
-36 -26 -25 -15 10 -8 41 9 41 6 0 13 -7 17 -16z m138 -49 c20 -16 25 -24 14
-25 -8 0 -26 11 -39 25 -30 32 -14 32 25 0z m-190 -25 c3 -5 -1 -10 -9 -10 -9
0 -16 5 -16 10 0 6 4 10 9 10 6 0 13 -4 16 -10z m152 -12 c23 -21 31 -48 15
-48 -10 0 -62 53 -62 63 0 14 24 6 47 -15z m-322 -14 c0 -10 -8 -20 -17 -22
-18 -3 -26 27 -11 42 12 11 28 0 28 -20z m155 -14 c0 -13 -37 -13 -45 0 -3 6
-3 15 0 20 7 12 45 -5 45 -20z m-190 -35 c0 -19 -20 -29 -32 -17 -8 8 -7 16 2
26 14 17 30 12 30 -9z m308 -1 c18 -8 32 -19 32 -24 0 -13 -83 -130 -92 -130
-4 0 -22 13 -40 29 -28 25 -30 31 -19 45 7 9 22 16 32 16 15 0 18 5 13 24 -7
30 9 40 38 25 19 -9 21 -9 11 2 -12 12 -17 29 -10 29 2 0 18 -7 35 -16z m-180
-17 c7 -7 7 -18 2 -27 -7 -11 -11 -11 -24 -1 -9 8 -16 20 -16 27 0 18 24 18
38 1z m-168 -32 c0 -8 -7 -15 -15 -15 -8 0 -15 7 -15 15 0 8 7 15 15 15 8 0
15 -7 15 -15z m134 -18 c8 -12 7 -20 -2 -29 -16 -16 -47 13 -38 37 7 19 25 16
40 -8z m-44 -52 c10 -12 10 -15 -3 -15 -8 0 -20 7 -27 15 -10 12 -10 15 3 15
8 0 20 -7 27 -15z m-155 -6 c10 -15 -1 -23 -20 -15 -9 3 -13 10 -10 16 8 13
22 13 30 -1z m302 -21 c35 -25 40 -37 21 -56 -9 -9 -19 -5 -44 19 -18 17 -30
38 -27 45 7 19 11 18 50 -8z m-337 -33 c0 -19 -20 -29 -32 -17 -8 8 -7 16 2
26 14 17 30 12 30 -9z m296 -26 c19 -11 34 -26 34 -32 0 -7 -18 -32 -39 -57
l-39 -45 -26 24 c-33 31 -33 51 -1 85 14 15 25 31 25 37 0 13 9 11 46 -12z
m-344 -41 c-19 -41 -102 -138 -117 -138 -31 0 -16 27 73 138 24 30 38 40 45
33 7 -7 7 -17 -1 -33z m183 32 c3 -5 2 -10 -4 -10 -5 0 -13 5 -16 10 -3 6 -2
10 4 10 5 0 13 -4 16 -10z m-27 -48 c2 -7 -4 -15 -13 -18 -22 -9 -50 19 -41
41 6 15 9 16 28 3 12 -8 24 -20 26 -26z m-53 -42 c17 -18 17 -22 4 -36 -14
-13 -18 -13 -38 3 -15 12 -20 24 -16 36 9 23 28 22 50 -3z m-266 -7 c-8 -9
-72 -83 -143 -163 -192 -217 -293 -357 -382 -526 -25 -49 -50 -90 -55 -92 -13
-5 -138 38 -145 49 -7 12 121 172 220 278 85 89 497 471 510 471 5 0 2 -8 -5
-17z m420 -20 c35 -20 36 -22 17 -48 -16 -22 -39 -15 -61 19 -16 24 -14 46 5
46 5 0 22 -8 39 -17z m-48 -60 c35 -21 35 -26 8 -64 l-21 -30 -18 24 c-12 15
-18 35 -16 53 5 42 5 42 47 17z m-341 -27 c0 -6 -48 -79 -106 -161 -182 -258
-324 -494 -324 -538 0 -18 -5 -19 -50 -13 -56 7 -80 15 -80 25 0 3 35 42 77
86 107 113 164 185 298 385 65 96 129 190 142 208 23 31 43 35 43 8z m170 -21
c0 -25 -25 -35 -48 -19 -24 17 -28 34 -11 51 14 14 59 -11 59 -32z m-779 -171
c-57 -73 -225 -252 -256 -273 -31 -21 -36 -22 -50 -7 -13 13 -37 15 -123 14
-59 -1 -126 4 -149 11 -38 10 -43 15 -43 40 0 16 6 33 13 39 17 14 155 56 252
77 193 42 244 57 305 89 36 19 66 35 68 35 2 1 -6 -11 -17 -25z m-197 -345
c-40 -60 -43 -62 -63 -50 -11 7 -2 20 40 59 30 28 55 49 57 47 1 -1 -14 -26
-34 -56z"/>
<path d="M4033 4305 c19 -37 94 -127 114 -139 12 -6 14 -5 8 5 -15 26 -104
136 -121 150 -16 13 -16 12 -1 -16z"/>
<path d="M4329 4140 c30 -28 57 -47 60 -44 7 7 -90 94 -104 93 -5 0 14 -22 44
-49z"/>
<path d="M3718 4038 c12 -12 25 -18 29 -14 4 4 -1 14 -11 22 -31 22 -43 17
-18 -8z"/>
<path d="M3970 4044 c0 -25 72 -156 123 -224 23 -30 102 -118 177 -195 74 -77
201 -210 282 -296 139 -147 207 -203 225 -185 4 4 -59 71 -142 149 -315 296
-377 365 -542 612 -44 66 -90 129 -102 139 -21 19 -21 19 -21 0z"/>
<path d="M4310 3947 c0 -2 15 -16 33 -33 l32 -29 -29 33 c-28 30 -36 37 -36
29z"/>
<path d="M3866 3855 c44 -79 141 -233 179 -282 19 -25 35 -49 35 -52 0 -3 -23
-30 -51 -59 l-52 -54 -26 49 c-42 77 -88 139 -148 201 l-55 57 32 -60 c41 -76
123 -195 155 -225 16 -15 23 -30 20 -44 -9 -35 9 -52 40 -38 39 18 59 15 87
-15 50 -54 130 -204 117 -218 -5 -4 -229 61 -276 80 -39 16 -40 23 -12 60 18
22 20 29 8 36 -8 5 -18 9 -24 9 -5 0 -59 -48 -118 -105 -133 -129 -137 -146
-37 -157 55 -5 262 -66 505 -148 33 -11 67 -20 76 -20 17 0 39 -39 39 -70 0
-23 -12 -25 -40 -8 -16 10 -24 9 -47 -8 -15 -11 -36 -37 -46 -56 -16 -33 -16
-40 -4 -70 18 -42 52 -73 202 -185 142 -107 274 -193 295 -193 44 2 -318 259
-400 285 -28 9 -25 21 10 35 47 19 87 72 100 132 11 49 10 58 -14 118 -15 36
-45 96 -67 134 -61 101 -226 437 -230 466 -4 25 -3 26 44 13 11 -4 17 0 17 10
0 21 -203 289 -278 367 l-63 65 27 -50z"/>
<path d="M3750 3852 c0 -13 61 -64 68 -57 9 8 -33 60 -52 63 -9 2 -16 -1 -16
-6z"/>
<path d="M3576 3838 c3 -7 20 -24 37 -37 l32 -25 -34 37 c-38 40 -43 44 -35
25z"/>
<path d="M4720 3744 c77 -78 118 -105 71 -47 -32 41 -114 113 -128 113 -4 0
22 -30 57 -66z"/>
<path d="M3529 3739 c24 -21 47 -37 50 -33 8 8 -65 74 -81 74 -7 -1 7 -19 31
-41z"/>
<path d="M4688 3695 c15 -28 140 -150 147 -143 3 3 -4 16 -15 30 -29 38 -145
136 -132 113z"/>
<path d="M3410 3650 c0 -46 150 -306 221 -384 49 -54 85 -74 72 -40 -8 22
-282 434 -288 434 -3 0 -5 -5 -5 -10z"/>
<path d="M4800 3483 c96 -94 177 -166 179 -160 5 14 -241 254 -304 297 -33 23
8 -23 125 -137z"/>
<path d="M4549 3613 c5 -10 97 -104 204 -210 179 -177 234 -220 254 -199 14
14 -322 334 -424 404 -38 27 -47 28 -34 5z"/>
<path d="M4446 3572 c-3 -5 34 -40 81 -78 48 -38 115 -93 148 -122 74 -65 95
-78 95 -58 0 8 -39 54 -87 103 -64 65 -107 99 -160 126 -39 21 -74 33 -77 29z"/>
<path d="M4900 3549 c0 -25 305 -319 330 -319 27 0 0 35 -102 136 -123 121
-206 194 -219 194 -5 0 -9 -5 -9 -11z"/>
<path d="M3309 3473 c12 -24 31 -39 31 -25 0 5 -10 17 -21 28 -22 19 -22 19
-10 -3z"/>
<path d="M3240 3402 c0 -10 93 -102 103 -102 17 0 4 23 -34 65 -38 41 -69 58
-69 37z"/>
<path d="M3295 3179 c-49 -55 -91 -107 -93 -114 -5 -20 27 -26 51 -10 12 8 29
15 37 15 19 0 161 -130 417 -382 l182 -179 -16 -40 c-17 -43 -8 -69 20 -53 24
15 217 237 217 250 0 23 -19 26 -49 8 l-30 -18 -88 79 c-130 116 -490 481
-508 515 -9 17 -23 30 -33 30 -9 0 -57 -46 -107 -101z"/>
<path d="M5315 3214 c6 -5 26 -23 45 -39 l35 -30 -25 28 c-14 16 -34 33 -45
39 -11 6 -15 6 -10 2z"/>
<path d="M3099 3195 c17 -33 51 -71 51 -58 0 7 -14 27 -31 45 -16 18 -26 24
-20 13z"/>
<path d="M5222 3161 c7 -11 14 -18 17 -16 2 3 11 -3 20 -13 9 -10 25 -22 36
-26 17 -6 16 -3 -5 19 -14 15 -38 33 -53 41 -27 14 -27 14 -15 -5z"/>
<path d="M3048 3143 c13 -23 82 -90 82 -79 0 11 -59 78 -77 89 -12 7 -13 5 -5
-10z"/>
<path d="M5190 3123 c0 -16 17 -34 65 -68 58 -41 76 -27 24 17 -40 34 -89 62
-89 51z"/>
<path d="M3280 3000 c0 -22 84 -173 136 -245 l51 -72 -68 5 c-62 4 -73 2 -109
-22 -40 -26 -57 -64 -76 -168 -3 -21 -9 -38 -13 -38 -4 0 -22 21 -39 48 -41
63 -197 216 -187 183 14 -47 75 -138 119 -179 25 -24 46 -44 46 -47 0 -9 -102
-140 -109 -140 -5 0 -50 53 -101 118 -51 64 -97 117 -102 117 -52 0 139 -275
326 -467 33 -35 58 -63 54 -63 -3 0 -32 12 -64 27 -42 19 -80 28 -137 31 l-78
5 -39 83 c-76 164 -143 224 -252 224 -47 0 -64 -6 -114 -38 -111 -73 -156
-139 -180 -268 -12 -63 37 -144 86 -144 72 0 102 75 57 141 -65 96 -66 133 -7
164 85 44 207 -17 245 -124 21 -61 19 -146 -6 -220 -20 -57 -20 -64 -6 -79 15
-14 23 -13 99 13 46 15 124 33 173 40 87 13 91 13 130 -10 55 -32 80 -61 110
-129 21 -47 25 -68 19 -100 -11 -71 -60 -146 -94 -146 -9 0 -32 12 -51 26 -28
21 -42 25 -79 21 -80 -9 -107 -83 -53 -147 25 -31 29 -32 77 -25 28 3 69 15
91 25 56 26 129 98 162 162 26 49 28 61 28 169 0 111 -1 118 -32 178 -36 69
-37 69 67 -20 81 -70 127 -102 141 -97 5 2 -12 20 -38 40 -72 55 -132 115
-197 198 -33 41 -90 112 -128 156 -71 85 -76 94 -55 94 25 0 116 -72 273 -217
88 -81 181 -167 207 -191 41 -37 47 -48 47 -82 0 -41 11 -50 30 -27 26 30 154
194 167 214 21 31 9 42 -36 36 -35 -5 -45 -1 -85 32 -25 21 -46 42 -46 48 0 5
18 30 40 54 74 80 107 204 80 302 -13 51 -90 133 -165 177 -33 19 -45 32 -45
50 0 14 -33 64 -87 131 -143 178 -183 220 -183 193z m105 -539 c27 -39 78
-111 113 -160 34 -49 62 -94 62 -100 0 -22 -24 -10 -79 42 -32 28 -84 72 -117
96 -32 25 -65 52 -71 60 -29 34 -3 149 30 138 7 -2 34 -36 62 -76z m179 -111
c67 -54 94 -86 82 -97 -5 -5 -159 134 -164 148 -7 18 10 7 82 -51z m-868 -61
c79 -54 114 -115 114 -199 l0 -35 -24 41 c-54 95 -107 155 -154 175 -62 27
-77 40 -60 50 21 14 80 -2 124 -32z m-283 -230 c21 -37 22 -59 2 -59 -18 0
-35 31 -35 64 0 34 11 33 33 -5z m586 -91 c30 -31 26 -38 -20 -38 -30 0 -46 6
-60 23 l-19 22 6 -27 c5 -24 3 -28 -14 -28 -11 0 -27 -3 -35 -6 -16 -6 -47 20
-47 40 0 15 51 30 117 34 43 2 56 -2 72 -20z m137 -9 c35 -33 30 -43 -18 -35
-45 7 -78 30 -78 54 0 22 67 8 96 -19z m-102 -541 c5 -9 7 -20 4 -24 -7 -7
-57 27 -58 39 0 15 43 3 54 -15z"/>
<path d="M2910 2996 c0 -11 121 -156 130 -156 15 0 0 24 -57 94 -42 52 -73 79
-73 62z"/>
<path d="M2860 2970 c0 -7 17 -35 37 -63 29 -40 39 -47 41 -33 2 10 -9 37 -25
59 -29 41 -53 58 -53 37z"/>
<path d="M4930 2967 c0 -3 28 -27 63 -53 34 -26 76 -63 93 -81 33 -35 53 -40
85 -23 29 16 26 75 -5 95 -24 16 -49 12 -78 -13 -16 -13 -23 -11 -73 27 -54
41 -85 58 -85 48z"/>
<path d="M4865 2925 c59 -51 187 -137 194 -130 7 7 -15 25 -131 105 -96 67
-124 78 -63 25z"/>
<path d="M4739 2932 c11 -21 127 -118 215 -180 69 -49 103 -57 65 -16 -53 58
-259 214 -282 214 -4 0 -3 -8 2 -18z"/>
<path d="M3110 2878 c0 -21 80 -175 105 -202 44 -48 60 -21 30 51 -31 74 -135
191 -135 151z"/>
<path d="M4550 2836 c0 -2 7 -7 16 -10 8 -3 12 -2 9 4 -6 10 -25 14 -25 6z"/>
<path d="M4660 2761 c24 -20 40 -26 40 -16 0 2 -15 12 -32 20 l-33 16 25 -20z"/>
<path d="M2795 2750 c10 -11 20 -20 23 -20 3 0 -3 9 -13 20 -10 11 -20 20 -23
20 -3 0 3 -9 13 -20z"/>
<path d="M2690 2725 c19 -19 38 -35 44 -35 5 0 -5 16 -24 35 -19 19 -38 35
-44 35 -5 0 5 -16 24 -35z"/>
<path d="M4878 2717 c17 -20 102 -70 108 -64 6 6 -38 38 -86 62 -30 15 -33 16
-22 2z"/>
<path d="M4615 2668 c8 -19 153 -120 166 -116 11 4 -102 93 -148 117 -18 9
-21 9 -18 -1z"/>
<path d="M4543 2502 c4 -5 49 -40 100 -77 50 -37 81 -55 67 -40 -14 14 -52 46
-85 69 -76 54 -90 62 -82 48z"/>
<path d="M3795 2164 c48 -37 180 -94 150 -65 -24 23 -131 81 -149 81 -21 -1
-21 -1 -1 -16z"/>
<path d="M3785 2085 c59 -51 406 -295 420 -295 31 0 -272 221 -410 299 l-40
23 30 -27z"/>
<path d="M4058 2031 c28 -24 299 -171 316 -171 49 0 -228 166 -319 191 l-30 8
33 -28z"/>
<path d="M2280 2046 c0 -10 78 -116 86 -116 8 0 -24 51 -56 90 -16 19 -30 31
-30 26z"/>
<path d="M4109 1932 c14 -11 38 -27 55 -37 l31 -17 -24 20 c-14 11 -38 27 -55
37 l-31 17 24 -20z"/>
<path d="M3900 1857 c20 -21 219 -142 248 -151 41 -13 23 2 -75 62 -115 70
-195 111 -173 89z"/>
<path d="M4234 1845 c11 -8 25 -15 30 -15 6 0 2 7 -8 15 -11 8 -25 15 -30 15
-6 0 -2 -7 8 -15z"/>
<path d="M1662 1771 c4 -13 18 -16 19 -4 0 4 -5 9 -11 12 -7 2 -11 -2 -8 -8z"/>
<path d="M3767 1752 c43 -37 242 -156 249 -149 7 7 -86 76 -180 134 -80 49
-119 57 -69 15z"/>
<path d="M3546 1652 c44 -41 370 -252 387 -252 4 0 7 4 7 9 0 22 -356 251
-389 251 -9 0 -11 -3 -5 -8z"/>
<path d="M1550 1606 c0 -14 77 -72 85 -64 6 6 -65 78 -77 78 -4 0 -8 -6 -8
-14z"/>
<path d="M3390 1561 c0 -13 104 -94 215 -168 108 -72 135 -87 135 -74 0 10
-135 111 -250 188 -98 65 -100 66 -100 54z"/>
<path d="M3540 1521 c0 -24 259 -221 291 -221 29 0 -48 69 -195 174 -77 55
-96 65 -96 47z"/>
<path d="M2750 1416 c64 -69 257 -205 245 -174 -6 14 -106 94 -200 159 -76 53
-83 55 -45 15z"/>
<path d="M3430 1412 c0 -31 266 -212 311 -212 25 0 -29 45 -152 126 -134 89
-159 102 -159 86z"/>
<path d="M2675 1370 c40 -43 195 -163 201 -157 3 3 -39 42 -93 87 -111 92
-155 121 -108 70z"/>
<path d="M3300 1392 c0 -23 321 -262 352 -262 28 0 -153 152 -272 229 -63 41
-80 48 -80 33z"/>
<path d="M1740 1345 c0 -10 94 -106 125 -128 18 -13 4 8 -39 56 -61 68 -86 89
-86 72z"/>
<path d="M1819 1331 c18 -33 167 -148 178 -137 11 10 -159 156 -182 156 -3 0
-1 -8 4 -19z"/>
<path d="M1910 1333 c0 -20 204 -172 216 -161 7 7 -89 93 -151 134 -50 34 -65
40 -65 27z"/>
<path d="M6338 6658 c-198 -207 -241 -254 -310 -345 -98 -128 -76 -112 78 60
70 78 204 217 297 310 140 138 165 167 145 167 -19 0 -68 -46 -210 -192z"/>
<path d="M6483 6708 c-255 -250 -407 -429 -517 -610 -91 -150 -59 -120 158
151 95 119 247 293 337 386 210 219 207 215 185 215 -9 0 -83 -64 -163 -142z"/>
<path d="M6717 6799 c-45 -72 -60 -100 -54 -106 7 -6 51 54 77 105 31 63 17
63 -23 1z"/>
<path d="M6378 6408 c-40 -46 -128 -153 -194 -238 -67 -86 -171 -217 -230
-291 -110 -137 -370 -505 -380 -537 -10 -30 83 78 203 238 65 85 178 232 253
326 208 263 430 551 436 568 14 36 -19 11 -88 -66z"/>
<path d="M6787 6136 c-66 -99 -110 -183 -104 -199 6 -17 167 234 167 260 0 13
-2 23 -3 23 -2 0 -29 -38 -60 -84z"/>
<path d="M5794 6052 c-69 -54 -173 -168 -326 -356 -206 -252 -306 -346 -473
-446 -108 -65 -165 -92 -255 -121 -121 -38 -294 -105 -364 -141 -50 -25 -99
-59 -93 -64 2 -2 66 21 143 51 76 31 188 72 249 92 212 68 248 83 353 145 135
80 246 185 411 388 156 193 298 359 364 427 28 29 48 55 45 58 -3 3 -27 -12
-54 -33z"/>
<path d="M6730 5914 c-63 -91 -120 -173 -127 -183 -10 -15 -13 -14 -35 5 -13
12 -30 24 -38 28 -8 4 2 -8 23 -26 l38 -34 -31 -42 c-16 -23 -30 -46 -30 -50
0 -28 -339 -489 -447 -609 -125 -139 -198 -262 -148 -251 24 5 173 178 233
271 131 203 183 279 244 354 35 43 91 116 123 163 32 47 117 165 187 262 129
177 129 178 126 228 l-3 50 -115 -166z"/>
<path d="M6758 5692 c-48 -67 -110 -159 -138 -204 -67 -109 -282 -500 -332
-605 -87 -185 -120 -516 -82 -828 10 -76 18 -246 21 -408 7 -396 -8 -485 -105
-637 -27 -41 -119 -183 -204 -315 -85 -132 -203 -316 -263 -410 -60 -93 -147
-224 -194 -290 -159 -224 -271 -402 -271 -427 0 -18 2 -19 17 -7 29 24 149
192 178 249 15 30 47 80 70 110 23 30 100 138 170 240 71 102 157 225 192 273
121 167 370 532 401 587 53 96 102 239 122 360 26 152 27 461 3 686 -13 110
-18 239 -18 419 l0 260 73 145 c114 224 188 350 269 457 41 54 99 130 129 169
l55 72 -3 113 -3 112 -87 -121z"/>
<path d="M5766 5709 c-74 -79 -127 -151 -172 -233 -36 -66 -35 -95 1 -33 18
30 141 195 208 279 50 62 24 53 -37 -13z"/>
<path d="M5503 5550 c-62 -76 -113 -142 -113 -147 0 -14 101 92 154 162 67 88
91 125 80 125 -5 0 -60 -63 -121 -140z"/>
<path d="M6470 5660 c45 -39 65 -38 22 0 -18 17 -38 30 -45 30 -6 -1 4 -14 23
-30z"/>
<path d="M6263 5418 c-11 -13 -63 -88 -115 -168 -52 -80 -129 -187 -172 -239
-88 -107 -105 -134 -80 -124 51 19 321 358 383 480 34 68 25 96 -16 51z"/>
<path d="M5295 5043 c27 -46 93 -118 100 -111 8 8 -25 59 -69 106 -37 39 -53
42 -31 5z"/>
<path d="M5203 4985 c11 -27 89 -135 98 -135 17 0 9 19 -34 81 -41 61 -78 92
-64 54z"/>
<path d="M3986 4901 c-93 -50 -202 -123 -276 -186 -116 -100 -307 -284 -395
-382 -220 -243 -546 -683 -506 -683 12 0 131 139 291 340 172 215 245 294 477
516 138 131 246 224 335 288 179 128 174 124 161 137 -7 7 -33 -2 -87 -30z"/>
<path d="M5130 4872 c0 -5 10 -17 21 -28 22 -19 22 -19 10 3 -12 24 -31 39
-31 25z"/>
<path d="M4510 4781 c0 -5 7 -12 16 -15 14 -5 15 -4 4 9 -14 17 -20 19 -20 6z"/>
<path d="M4740 4772 c0 -24 102 -113 115 -100 5 5 -99 108 -109 108 -3 0 -6
-3 -6 -8z"/>
<path d="M4340 4751 c0 -26 134 -150 147 -137 4 3 -7 20 -23 37 -47 49 -124
112 -124 100z"/>
<path d="M4630 4684 c0 -34 162 -194 196 -194 29 0 11 26 -80 117 -94 93 -116
107 -116 77z"/>
<path d="M6111 4658 c-29 -89 -34 -187 -27 -534 12 -589 -9 -709 -185 -1069
-97 -199 -421 -736 -436 -722 -2 2 26 62 61 133 248 494 483 1146 525 1457 14
98 14 167 1 167 -12 0 -13 -8 -39 -176 -31 -198 -137 -531 -268 -839 -52 -123
-50 -121 -79 -94 -31 29 -31 43 1 35 25 -6 26 -6 10 18 -20 30 -13 46 21 46
27 0 29 3 12 30 -11 16 -3 37 51 147 78 157 164 354 157 361 -7 6 -14 -8 -141
-266 -83 -167 -109 -213 -121 -208 -67 26 -86 10 -36 -30 34 -28 21 -44 -17
-21 -46 27 -59 19 -23 -13 46 -43 39 -54 -15 -25 -55 29 -63 30 -63 11 0 -8
18 -27 40 -43 22 -15 40 -34 40 -40 0 -18 -7 -16 -47 8 -46 29 -56 14 -15 -22
32 -29 42 -59 20 -59 -7 0 -32 7 -56 17 -32 12 -46 13 -54 5 -9 -9 -1 -21 30
-50 23 -22 42 -44 42 -50 0 -15 -25 -15 -53 -1 -21 11 -21 11 2 -14 24 -26 23
-64 -2 -54 -6 3 -29 12 -49 21 -32 14 -38 14 -38 2 0 -8 16 -23 35 -35 56 -33
46 -70 -12 -46 -50 21 -53 18 -14 -15 19 -16 33 -32 30 -34 -3 -3 -27 6 -54
19 -84 43 -102 28 -32 -26 60 -47 60 -46 53 -58 -5 -7 -20 -4 -46 9 -74 38
-98 13 -35 -37 19 -15 35 -34 35 -40 0 -18 -7 -16 -46 8 -37 23 -90 40 -98 32
-11 -12 15 -42 64 -73 27 -18 50 -34 50 -37 0 -9 -149 -272 -275 -483 -123
-207 -144 -247 -124 -235 24 15 251 373 338 533 68 126 98 172 108 167 33 -12
63 -17 63 -9 0 4 -12 20 -26 35 -31 33 -25 53 12 39 50 -19 60 -3 22 37 -31
33 -12 51 34 33 63 -25 76 4 -185 -415 -186 -297 -307 -534 -307 -598 0 -20 0
-20 21 -1 41 37 115 150 184 284 67 129 194 335 201 327 3 -3 -180 -355 -267
-514 -33 -59 -35 -89 -5 -64 25 21 162 223 305 450 107 170 159 243 220 306
209 218 409 552 510 850 70 209 83 297 78 534 -3 114 -9 217 -15 231 -28 72
-46 268 -44 492 1 125 -2 230 -7 233 -5 3 -14 -9 -20 -27z m-456 -1710 c19 -9
24 -16 19 -32 -4 -12 -8 -23 -10 -25 -5 -6 -64 50 -64 61 0 12 25 10 55 -4z
m-35 -53 c17 -9 30 -20 30 -24 0 -20 -13 -41 -24 -41 -20 0 -59 48 -53 64 8
20 11 20 47 1z m-45 -97 c25 -11 36 -48 14 -48 -15 0 -69 39 -69 51 0 12 24
11 55 -3z m-26 -45 c17 -10 31 -24 31 -30 0 -13 -66 -142 -80 -157 -8 -8 -69
51 -70 68 0 8 28 5 65 -9 13 -4 9 3 -12 22 -24 21 -30 32 -23 43 8 12 14 13
41 3 44 -17 48 -9 15 26 -16 16 -25 34 -22 40 10 15 19 14 55 -6z"/>
<path d="M5915 4563 c-19 -233 -119 -690 -200 -907 -45 -123 -48 -136 -36
-136 15 0 125 229 156 325 45 138 105 400 114 497 5 51 5 134 1 183 -5 50 -9
98 -9 108 -1 9 -5 17 -10 17 -5 0 -12 -39 -16 -87z"/>
<path d="M5740 4598 c0 -73 -27 -262 -55 -387 -26 -119 -31 -162 -17 -145 14
14 50 122 68 199 20 89 31 334 16 361 -10 16 -11 11 -12 -28z"/>
<path d="M4557 4584 c-20 -20 107 -154 145 -154 28 0 22 12 -34 66 -82 77
-104 95 -111 88z"/>
<path d="M4489 4473 c15 -28 120 -128 126 -121 7 7 -113 138 -126 138 -6 0 -6
-7 0 -17z"/>
<path d="M5811 4459 c-6 -13 -22 -85 -36 -159 -52 -271 -87 -379 -193 -584
-38 -75 -66 -136 -62 -136 10 0 76 79 119 143 104 153 185 437 193 674 2 78
-5 100 -21 62z"/>
<path d="M5396 4219 c40 -42 124 -103 131 -95 9 8 -32 50 -88 92 -58 42 -82
44 -43 3z"/>
<path d="M3368 3987 c-169 -160 -278 -287 -671 -784 -255 -322 -315 -403 -361
-488 l-28 -50 37 40 c21 22 80 96 133 165 260 339 456 574 704 845 253 278
315 356 281 355 -5 0 -47 -37 -95 -83z"/>
<path d="M5305 4001 c-9 -16 149 -130 162 -117 8 8 -23 41 -80 87 -49 39 -71
47 -82 30z"/>
<path d="M5250 3866 c0 -14 57 -65 113 -99 51 -32 30 6 -31 54 -74 59 -82 64
-82 45z"/>
<path d="M5260 3697 c22 -22 135 -83 126 -69 -10 16 -78 60 -114 73 -24 9 -25
8 -12 -4z"/>
<path d="M5620 3465 c0 -9 121 -66 132 -63 16 6 -85 68 -110 68 -12 0 -22 -2
-22 -5z"/>
<path d="M5450 3406 c21 -19 100 -48 100 -36 0 12 -73 50 -97 50 -15 0 -15 -2
-3 -14z"/>
<path d="M5105 2498 c-2 -7 -11 -40 -19 -74 -17 -64 -62 -174 -72 -174 -3 0
-17 9 -31 20 -50 39 -60 17 -13 -27 20 -19 27 -32 21 -42 -7 -11 -15 -9 -40
10 -41 30 -51 17 -13 -18 l31 -28 -20 -33 c-24 -38 -32 -39 -67 -12 -17 14
-29 17 -35 11 -12 -12 6 -38 34 -46 10 -4 19 -13 19 -20 0 -14 -55 -122 -71
-139 -5 -5 -25 7 -49 27 -43 40 -60 46 -60 22 0 -9 21 -29 47 -45 43 -27 47
-34 44 -62 -3 -29 -1 -31 14 -18 9 7 33 43 55 79 21 36 71 118 112 182 41 64
87 150 102 190 31 82 46 192 27 203 -6 4 -13 1 -16 -6z"/>
<path d="M5167 2464 c-3 -11 -9 -39 -12 -64 -9 -57 -115 -266 -200 -395 -37
-54 -78 -118 -92 -142 -23 -39 -24 -63 -3 -63 19 0 177 254 252 405 61 124 80
171 81 207 2 50 -17 86 -26 52z"/>
<path d="M5005 2330 c3 -5 8 -10 11 -10 2 0 4 5 4 10 0 6 -5 10 -11 10 -5 0
-7 -4 -4 -10z"/>
<path d="M950 2299 c-48 -15 -125 -24 -295 -34 -276 -17 -343 -27 -455 -70
-47 -18 -103 -36 -125 -40 -71 -12 -75 -14 -75 -47 l0 -30 58 7 c31 4 109 23
172 42 153 46 227 60 403 73 81 6 180 19 220 29 78 20 187 68 187 82 0 13 -16
10 -90 -12z"/>
<path d="M4880 2171 c0 -11 39 -41 52 -41 13 0 9 18 -8 34 -17 18 -44 21 -44
7z"/>
<path d="M695 2149 c-38 -10 -127 -28 -196 -39 -73 -11 -192 -40 -286 -69
-224 -70 -213 -65 -213 -101 l0 -30 53 20 c96 37 351 108 465 130 62 11 143
30 180 42 66 20 142 54 142 63 0 11 -80 2 -145 -16z"/>
<path d="M4750 2017 c0 -16 32 -47 48 -47 18 0 14 25 -6 43 -22 20 -42 22 -42
4z"/>
<path d="M5855 1949 c-4 -6 -5 -11 -4 -13 18 -12 187 -70 252 -86 45 -11 154
-45 242 -75 133 -45 354 -109 478 -139 28 -7 28 -6 25 35 l-3 43 -185 52
c-102 28 -239 72 -305 97 -114 42 -199 61 -388 87 -97 13 -104 13 -112 -1z"/>
<path d="M4707 1915 c7 -21 60 -48 68 -35 3 5 -3 18 -15 30 -24 24 -62 28 -53
5z"/>
<path d="M4672 1890 c4 -12 120 -100 132 -100 13 0 -15 30 -67 72 -48 37 -72
48 -65 28z"/>
<path d="M5470 1862 c0 -19 63 -59 140 -90 196 -78 449 -151 586 -171 242 -35
303 -48 349 -75 122 -72 102 -97 -113 -146 -154 -35 -182 -45 -299 -104 -102
-51 -277 -119 -363 -141 -77 -19 -482 -92 -555 -100 -92 -9 -153 -30 -283 -95
-173 -87 -247 -104 -436 -97 -97 3 -204 14 -297 30 -140 25 -161 26 -600 28
-250 1 -476 -2 -504 -6 -56 -9 -108 -32 -101 -44 3 -5 43 -11 88 -14 46 -4
106 -11 133 -16 28 -5 102 -10 166 -10 101 -1 118 -3 133 -20 58 -64 230 -87
741 -97 350 -7 434 -1 625 46 41 10 95 21 120 25 25 4 92 20 150 36 58 16 179
41 270 55 91 14 219 34 285 44 66 11 161 20 210 20 120 0 330 23 490 54 72 13
150 27 175 31 66 9 147 33 213 62 l57 26 0 49 0 49 -37 -30 c-62 -49 -154 -78
-309 -95 -260 -29 -449 -48 -569 -56 -66 -4 -160 -18 -209 -30 -57 -14 -102
-19 -124 -15 -46 8 -32 19 53 39 39 10 95 28 125 41 169 71 308 140 378 188
86 59 123 71 263 87 167 19 249 62 249 131 0 27 -10 42 -57 87 -77 71 -108 86
-249 117 -65 15 -180 46 -254 70 -296 96 -452 136 -547 142 -64 4 -93 3 -93
-5z m-270 -939 c-8 -3 -49 -20 -90 -38 -178 -77 -402 -137 -425 -114 -2 3 19
11 48 18 28 8 97 32 152 54 148 60 234 86 285 86 25 0 38 -3 30 -6z m-1168
-124 c68 -5 161 -16 208 -24 l85 -14 -165 5 c-175 5 -339 20 -374 34 -31 13
97 12 246 -1z"/>
<path d="M4670 1817 c0 -14 60 -67 75 -67 4 0 26 -14 49 -31 28 -21 20 -11
-24 31 -74 71 -100 88 -100 67z"/>
<path d="M4610 1805 c0 -23 150 -165 174 -165 16 0 3 24 -36 67 -60 64 -138
120 -138 98z"/>
<path d="M4500 1732 c0 -16 143 -132 197 -161 21 -11 23 -10 21 15 -2 20 -18
39 -57 70 -30 24 -58 41 -61 39 -4 -2 -20 4 -36 14 -39 23 -64 32 -64 23z"/>
<path d="M5375 1690 c-22 -35 144 -133 290 -170 60 -15 111 -20 216 -20 146 0
169 4 169 27 0 20 -50 38 -145 53 -44 7 -113 25 -152 41 -40 16 -123 38 -185
49 -176 32 -185 33 -193 20z"/>
<path d="M4476 1665 c5 -13 2 -14 -21 -5 -33 12 -35 12 -35 0 0 -26 170 -180
198 -180 22 0 12 26 -23 60 -52 51 -42 57 16 11 29 -23 56 -41 61 -41 10 0
-54 61 -139 131 -51 42 -66 48 -57 24z"/>
<path d="M4367 1597 c16 -28 198 -167 218 -167 18 1 -150 141 -203 169 -21 11
-23 11 -15 -2z"/>
<path d="M4346 1548 c7 -17 144 -110 156 -106 9 3 -98 85 -139 107 -18 9 -21
9 -17 -1z"/>
<path d="M100 1536 c0 -25 100 -107 173 -141 39 -19 144 -53 232 -75 260 -67
244 -62 215 -71 -37 -11 -149 -10 -200 2 -25 5 -88 29 -140 53 -259 118 -298
135 -337 141 l-43 7 0 -66 0 -66 55 0 c58 0 270 -41 303 -59 33 -18 201 -77
299 -105 62 -17 116 -26 165 -26 81 0 318 36 332 51 16 15 -35 58 -88 75 -34
10 -88 14 -161 13 -89 -1 -119 3 -155 19 -25 10 -63 25 -85 32 -22 7 -71 30
-110 51 -38 20 -118 54 -177 74 -59 20 -142 52 -183 71 -84 38 -95 40 -95 20z"/>
<path d="M5129 1524 c-6 -8 -9 -23 -6 -34 7 -28 -6 -35 -130 -64 -79 -19 -161
-29 -280 -36 -243 -14 -381 -28 -442 -46 -51 -15 -54 -14 -75 5 -12 12 -29 21
-37 21 -8 -1 -3 -10 15 -26 l29 -25 -22 -15 c-12 -8 -28 -28 -36 -44 -24 -46
-5 -53 111 -35 484 73 701 109 769 126 103 26 283 94 307 115 23 22 23 51 -1
63 -30 16 -187 12 -202 -5z"/>
<path d="M4293 1523 c-29 -6 -29 -15 3 -52 20 -24 33 -31 58 -29 17 1 41 -4
54 -11 12 -6 22 -8 22 -3 0 12 -97 102 -107 101 -4 -1 -18 -4 -30 -6z"/>
<path d="M4230 1441 c0 -11 58 -61 71 -61 18 0 9 19 -22 44 -32 27 -49 33 -49
17z"/>
<path d="M4190 1401 c0 -11 39 -41 52 -41 16 0 7 30 -11 40 -24 13 -41 13 -41
1z"/>
<path d="M2 1149 c3 -29 8 -33 73 -54 95 -30 106 -36 99 -46 -3 -5 -43 -6 -90
-3 -80 7 -84 6 -84 -13 0 -27 20 -30 211 -38 164 -7 313 -30 288 -46 -8 -5
-37 -9 -66 -9 -29 0 -73 -7 -98 -16 -44 -14 -52 -14 -138 6 -51 11 -116 24
-144 29 l-53 8 0 -47 0 -46 98 -19 c53 -10 134 -31 180 -46 113 -38 389 -85
538 -91 82 -3 114 39 51 68 l-32 15 41 -5 c22 -3 103 -24 180 -46 76 -22 218
-56 314 -75 96 -19 216 -44 265 -55 65 -14 173 -24 389 -35 324 -17 412 -13
666 26 74 11 167 23 205 26 108 8 524 -33 785 -79 53 -9 203 -13 510 -14 251
0 477 -5 535 -12 190 -22 421 -35 617 -36 171 -1 199 1 214 16 15 15 15 17 -2
26 -11 5 -84 12 -164 16 -141 7 -180 11 -515 56 -172 24 -361 24 -605 0 -175
-17 -443 0 -720 45 -241 39 -337 49 -510 49 -140 0 -188 -4 -315 -28 -211 -40
-478 -47 -645 -17 -63 11 -167 25 -230 31 -229 23 -523 88 -899 199 l-24 7 27
17 c42 28 258 10 386 -32 113 -38 187 -55 295 -71 44 -6 161 -27 260 -47 172
-35 191 -36 435 -40 236 -4 258 -3 289 15 38 20 59 47 48 58 -4 4 -26 1 -49
-7 -54 -18 -370 -18 -503 0 -105 14 -275 55 -319 78 -17 9 -59 37 -93 64 -143
109 -200 125 -503 138 -102 5 -246 18 -320 29 -74 12 -194 26 -267 31 -72 6
-138 12 -145 13 -25 6 -13 -26 18 -44 29 -17 242 -65 394 -89 36 -5 83 -15
105 -20 33 -9 36 -12 22 -21 -12 -6 -66 -3 -170 12 -359 49 -450 70 -612 140
-100 43 -156 60 -198 60 -26 0 -28 -3 -25 -31z m896 -239 c27 -8 27 -8 2 -8
-14 0 -65 6 -115 13 l-90 14 88 -5 c48 -3 100 -10 115 -14z m626 12 c3 -5 -8
-6 -25 -4 -16 2 -29 6 -29 8 0 8 49 4 54 -4z m-761 -109 c-7 -2 -19 -2 -25 0
-7 3 -2 5 12 5 14 0 19 -2 13 -5z m60 -10 c-7 -2 -21 -2 -30 0 -10 3 -4 5 12
5 17 0 24 -2 18 -5z"/>
<path d="M1995 1005 c-5 -2 -22 -6 -37 -9 -16 -4 -28 -13 -28 -21 0 -19 35
-37 140 -70 65 -20 107 -27 182 -28 65 -1 94 -5 87 -12 -6 -6 -72 -9 -170 -7
-171 3 -198 -5 -106 -34 88 -27 282 -30 412 -6 152 29 282 45 308 38 26 -6 94
21 102 42 3 8 1 20 -5 27 -21 25 -217 49 -579 70 -249 15 -288 16 -306 10z"/>
</g>
</svg>
