<?xml version="1.0" standalone="no"?>
<!DOCTYPE svg PUBLIC "-//W3C//DTD SVG 20010904//EN"
 "http://www.w3.org/TR/2001/REC-SVG-20010904/DTD/svg10.dtd">
<svg version="1.0" xmlns="http://www.w3.org/2000/svg"
 width="640.000000pt" height="640.000000pt" viewBox="0 0 640.000000 640.000000"
 preserveAspectRatio="xMidYMid meet">
<metadata>
Created by potrace 1.14, written by Peter Selinger 2001-2017
</metadata>
<g transform="translate(0.000000,640.000000) scale(0.100000,-0.100000)"
fill="#000000" stroke="none">
<path d="M749 6197 c-97 -41 -171 -87 -246 -154 -109 -97 -213 -237 -213 -288
0 -35 44 -95 144 -200 101 -105 105 -111 96 -139 -38 -112 32 -206 156 -206
34 0 69 -32 129 -120 21 -30 75 -106 119 -169 45 -62 113 -161 151 -220 39
-59 118 -178 178 -265 59 -87 107 -159 107 -161 0 -2 34 -55 76 -117 148 -219
218 -339 241 -416 21 -66 22 -299 4 -487 -14 -141 -14 -374 0 -490 6 -51 27
-140 49 -205 57 -172 108 -261 340 -596 197 -286 250 -368 242 -376 -4 -4 -47
-16 -97 -26 -49 -11 -136 -39 -192 -61 -92 -38 -202 -66 -383 -100 -89 -17
-139 -41 -177 -85 -59 -66 -37 -119 53 -133 49 -7 136 -40 268 -103 56 -27
115 -52 129 -56 15 -3 30 -11 33 -16 14 -23 -89 7 -233 68 -149 63 -183 73
-183 55 0 -21 105 -101 158 -122 58 -22 269 -61 398 -74 39 -4 77 -11 85 -16
19 -12 -99 -11 -239 2 -68 6 -118 7 -125 1 -16 -12 -197 4 -211 19 -8 8 11 10
79 5 l90 -6 -95 28 c-139 41 -335 120 -356 143 -11 12 -21 42 -24 72 l-5 52
-40 -2 c-22 -1 -43 -2 -47 -2 -15 -2 -8 -77 9 -101 27 -40 53 -58 138 -101 96
-48 115 -64 65 -55 -132 24 -289 174 -290 277 0 33 62 97 134 138 64 37 239
86 374 106 129 19 171 28 302 67 184 54 181 59 -30 53 -102 -4 -216 -11 -255
-16 -38 -6 -151 -21 -250 -34 -99 -13 -200 -31 -225 -40 -258 -94 -306 -102
-720 -111 -323 -8 -333 -8 -265 -22 74 -14 202 -12 500 8 249 18 319 27 452
64 70 19 187 44 258 56 72 12 161 28 198 36 79 16 318 47 323 41 8 -8 -75 -27
-205 -46 -165 -26 -447 -100 -561 -148 -110 -46 -160 -93 -167 -155 -5 -40 -2
-47 28 -76 19 -17 90 -67 159 -112 150 -96 166 -108 156 -117 -6 -6 -162 39
-234 68 -13 5 -31 9 -40 9 -31 -1 21 -35 123 -80 120 -52 241 -78 413 -86 72
-4 132 -11 132 -16 0 -9 -141 -14 -265 -10 -140 5 -376 67 -451 118 -43 30
-165 92 -204 105 -14 4 -68 23 -122 42 -66 24 -118 36 -166 38 -89 4 -100 -4
-24 -18 32 -6 138 -41 237 -78 155 -58 189 -74 245 -120 67 -54 106 -77 169
-100 33 -12 34 -14 10 -14 -45 -1 -232 39 -274 60 -22 10 -65 34 -95 53 -88
56 -142 70 -320 86 -69 6 -169 20 -222 31 -53 10 -131 22 -172 26 -71 6 -76 5
-76 -14 0 -18 13 -22 118 -37 163 -24 246 -34 402 -45 182 -14 225 -28 289
-94 42 -43 63 -57 119 -74 138 -44 320 -62 437 -43 39 6 76 12 83 12 6 1 12 5
12 9 0 13 46 19 286 35 314 21 492 8 650 -46 34 -12 113 -26 187 -32 147 -13
149 -28 4 -28 -70 0 -130 7 -207 25 -225 52 -365 53 -775 7 -196 -22 -504 -21
-631 2 -108 19 -186 45 -247 80 -44 26 -77 33 -77 18 0 -20 -201 -37 -422 -35
-220 2 -228 1 -228 -18 0 -17 8 -19 88 -20 194 -1 684 -17 689 -23 4 -3 4 -9
1 -12 -3 -3 -180 -8 -392 -11 -295 -5 -386 -9 -386 -18 0 -7 15 -16 32 -20 65
-13 928 -18 1021 -5 49 7 186 12 305 12 197 0 230 -2 357 -27 130 -26 151 -27
295 -21 85 4 205 11 265 16 61 6 283 14 495 20 212 5 432 14 490 19 58 6 157
11 220 12 63 0 142 4 175 8 l60 7 -44 8 c-25 5 -190 5 -368 1 -235 -5 -323 -4
-323 4 0 8 46 11 148 12 81 0 186 4 233 7 47 4 171 3 275 -1 161 -8 199 -6
254 7 36 9 119 25 184 36 153 24 169 42 48 53 -48 4 -134 5 -191 2 -68 -4
-101 -3 -97 4 4 5 14 10 24 10 9 0 31 2 47 5 17 2 53 5 80 7 l50 1 -55 8
c-191 28 -339 42 -388 37 -69 -8 -234 -59 -209 -65 10 -2 16 -9 14 -15 -6 -19
-88 -34 -223 -41 -175 -10 -254 7 -469 97 -69 29 -239 62 -434 82 -73 8 -151
20 -174 26 -59 16 -204 101 -267 156 -30 27 -70 55 -88 63 -19 7 -40 24 -49
37 -21 31 -8 45 75 85 68 32 94 40 272 87 131 35 301 90 318 104 7 5 14 8 16
6 14 -18 36 -55 36 -60 0 -3 -15 -9 -33 -12 -18 -3 -73 -21 -122 -40 -50 -19
-122 -40 -161 -46 -74 -11 -183 -62 -192 -90 -3 -9 0 -11 8 -6 8 5 96 12 198
16 l184 8 75 36 c82 40 98 41 120 8 14 -21 13 -23 -21 -40 -20 -9 -35 -21 -33
-27 5 -15 163 -82 302 -126 118 -38 144 -43 282 -50 126 -8 167 -14 234 -37
45 -15 84 -34 87 -42 5 -15 -1 -14 -76 13 -64 24 -179 38 -252 31 -72 -7 -221
13 -330 45 -36 10 -78 21 -95 25 -30 6 -30 6 -10 -14 42 -41 195 -89 352 -111
141 -19 351 -67 243 -55 -319 35 -585 83 -667 122 -18 8 -36 27 -41 43 -8 21
-22 31 -58 44 -27 9 -58 29 -70 44 -22 27 -22 27 -174 31 -99 2 -167 -1 -192
-9 -36 -10 -39 -14 -33 -38 9 -38 27 -55 88 -84 106 -52 175 -68 332 -78 141
-8 328 -39 473 -77 86 -22 92 -37 11 -31 l-64 6 43 -20 c73 -33 184 -48 348
-48 96 0 154 4 154 10 0 6 -10 10 -22 10 -37 0 -179 37 -191 49 -12 12 6 11
165 -10 64 -8 103 -6 226 11 l148 22 120 -22 c172 -32 354 -37 512 -14 138 20
313 24 487 10 128 -9 211 4 323 53 46 20 98 34 157 40 74 9 106 19 214 70 161
75 183 81 316 81 95 0 121 4 190 29 153 54 238 96 279 135 l41 39 -25 7 c-14
4 -54 13 -89 19 -70 14 -130 40 -162 72 -36 36 -9 41 48 8 45 -26 70 -33 127
-36 108 -6 127 20 40 57 -24 11 -94 29 -156 40 -116 22 -148 33 -148 51 0 20
230 -15 342 -51 111 -36 120 -51 64 -116 l-34 -40 54 0 55 1 -3 70 -3 70 -105
38 c-112 40 -138 47 -298 72 -61 10 -129 28 -166 44 -60 27 -201 141 -446 360
-47 42 -139 120 -206 173 -150 120 -226 202 -469 503 -227 283 -640 773 -728
864 -147 152 -325 288 -489 374 -110 57 -288 129 -378 152 -90 23 -344 103
-395 125 -58 25 -160 120 -321 299 -76 85 -190 208 -254 275 -64 67 -174 184
-246 261 -71 77 -157 169 -191 205 -33 36 -118 130 -187 209 l-126 145 0 58
c0 70 -16 110 -62 160 l-35 37 -82 -3 c-95 -4 -84 -13 -193 155 -99 154 -115
170 -168 175 -32 3 -61 -2 -101 -19z m118 -35 c14 -9 113 -142 113 -152 0 -4
16 -27 35 -51 19 -24 35 -49 35 -55 0 -6 7 -17 15 -24 21 -17 11 -28 -53 -56
-82 -36 -98 -25 -29 20 31 22 56 41 54 43 -2 2 -24 -5 -48 -16 -43 -20 -67
-19 -39 0 11 7 6 8 -17 4 -36 -7 -45 7 -15 24 9 6 12 11 6 11 -6 0 -17 -7 -24
-15 -11 -14 -14 -13 -25 2 -11 15 -7 20 34 39 52 25 49 32 -6 9 -44 -19 -47
-19 -39 0 4 13 2 13 -14 5 -21 -11 -40 -13 -25 -2 12 8 47 62 41 62 -9 0 -127
-58 -144 -71 -9 -7 -3 2 13 20 17 18 49 46 73 63 49 34 50 48 1 24 -37 -19
-53 -20 -43 -5 8 13 -34 2 -54 -14 -10 -8 -16 -7 -22 2 -5 10 -19 12 -43 7
-50 -9 -194 -146 -235 -224 -39 -73 -41 -95 -5 -50 33 39 76 79 81 74 5 -6
-27 -65 -57 -106 l-25 -35 27 24 c28 25 36 20 15 -9 -7 -9 3 1 23 22 20 21 39
38 42 38 3 0 -10 -31 -30 -70 -20 -38 -40 -70 -44 -70 -18 0 -89 96 -89 121 0
92 290 365 425 400 22 5 45 12 50 14 17 6 29 5 42 -3z m-241 -218 c-36 -34
-43 -26 -10 10 14 15 29 25 32 21 3 -3 -6 -17 -22 -31z m31 -68 c-8 -9 -17
-21 -20 -28 -2 -7 -7 -10 -11 -6 -4 3 3 18 15 32 12 14 24 24 27 21 2 -2 -3
-11 -11 -19z m68 -26 c-10 -11 -22 -20 -26 -20 -15 0 2 29 19 33 10 3 19 5 21
6 2 0 -4 -8 -14 -19z m549 -26 c9 -3 25 -22 37 -41 18 -28 21 -44 16 -86 -5
-48 -3 -56 31 -103 91 -127 205 -253 695 -764 87 -91 212 -228 277 -305 137
-163 246 -270 312 -309 54 -32 268 -108 382 -136 43 -11 104 -31 135 -44 31
-14 76 -30 101 -37 25 -6 97 -38 161 -70 306 -156 443 -280 849 -769 47 -57
103 -123 124 -149 46 -54 376 -467 527 -661 59 -74 139 -182 178 -240 40 -58
106 -150 147 -205 41 -55 111 -154 154 -220 44 -66 112 -167 152 -225 39 -58
77 -119 83 -137 6 -18 19 -41 30 -53 10 -11 15 -23 11 -28 -4 -4 -16 4 -27 18
-33 43 -40 50 -48 50 -5 0 -5 -17 0 -37 4 -21 6 -40 3 -42 -2 -3 -34 24 -70
60 -62 60 -70 55 -23 -13 23 -32 24 -44 2 -52 -11 -5 -29 6 -55 31 -34 33 -38
42 -33 70 4 21 0 44 -11 65 -18 35 -148 168 -164 168 -6 0 -10 7 -10 15 0 8 5
15 10 15 15 0 12 30 -4 36 -8 3 -20 20 -27 37 -13 32 -37 57 -71 78 -32 18
-19 -8 27 -55 44 -46 59 -86 31 -86 -8 0 -41 28 -73 62 -32 34 -148 152 -258
263 -110 110 -220 223 -245 250 -25 28 -84 85 -132 128 -48 43 -115 112 -150
155 -75 93 -82 100 -131 136 -22 16 -49 51 -67 87 -17 32 -52 83 -78 112 -26
28 -58 68 -71 87 -14 19 -48 67 -77 105 -29 39 -67 99 -85 135 -18 36 -59 94
-91 129 -32 35 -70 88 -84 118 -20 40 -33 55 -53 59 -17 4 -38 23 -60 55 -40
58 -99 96 -163 105 l-45 6 -99 -87 c-54 -48 -124 -113 -156 -144 -31 -31 -82
-81 -113 -111 -31 -30 -87 -91 -125 -135 -74 -87 -158 -171 -163 -164 -36 48
-142 219 -157 253 -20 47 -33 59 -29 29 3 -34 -1 -41 -37 -62 -47 -28 -136
-103 -129 -109 3 -3 42 23 87 58 90 69 91 69 124 -6 7 -17 36 -64 63 -104 28
-41 51 -83 51 -95 0 -38 -151 -183 -259 -248 -90 -55 -132 -88 -128 -101 2 -5
-23 -30 -55 -53 -32 -24 -58 -45 -58 -48 0 -8 53 18 86 42 38 28 38 28 57 -1
15 -22 14 -24 -33 -60 -26 -20 -59 -48 -74 -62 -23 -24 -26 -25 -33 -8 -4 11
-2 19 6 22 7 2 21 13 29 23 9 11 20 19 24 19 14 0 61 50 54 58 -4 4 -13 -1
-20 -11 -7 -9 -20 -17 -28 -17 -8 0 -27 -14 -43 -30 -16 -17 -31 -30 -34 -30
-4 0 -12 15 -20 32 -7 18 -30 69 -51 113 -20 44 -43 98 -50 120 -7 22 -21 59
-32 83 -48 107 -77 284 -50 301 16 10 6 58 -15 70 -16 9 -15 42 2 42 6 0 13
-10 17 -23 8 -25 5 18 -5 78 -3 17 -11 119 -17 227 -13 242 -18 289 -35 338
-18 50 -3 59 27 17 27 -38 98 -113 98 -104 0 4 -20 46 -44 94 -28 55 -78 127
-138 198 -101 121 -181 225 -214 280 -11 19 -30 43 -42 55 -12 11 -22 24 -22
30 0 10 -63 96 -160 219 -60 77 -93 123 -203 290 -68 103 -140 200 -145 195
-3 -2 4 -17 14 -34 30 -48 122 -199 180 -297 30 -49 80 -121 112 -160 79 -95
133 -170 126 -177 -14 -14 -208 229 -241 303 -11 25 -45 80 -76 122 -31 43
-65 99 -77 125 -12 27 -38 68 -58 93 -54 65 -73 97 -66 113 11 30 132 121 209
158 75 35 129 59 165 72 34 12 -49 6 -110 -9 -95 -22 -184 -79 -279 -180 -45
-47 -83 -85 -84 -83 -2 2 -15 22 -29 44 -14 22 -46 62 -71 88 -43 46 -46 47
-86 41 -48 -8 -86 12 -102 53 -31 81 180 322 361 413 129 66 273 97 334 74z
m-499 -49 c-16 -14 -35 -25 -41 -25 -7 0 -14 -7 -18 -15 -3 -8 -11 -15 -18
-15 -7 1 7 19 31 40 24 22 51 40 60 40 11 -1 7 -8 -14 -25z m-235 -95 c0 -5
-10 -30 -22 -55 -12 -24 -19 -47 -16 -51 4 -3 25 13 48 36 23 23 44 40 46 37
3 -2 -7 -26 -21 -52 -27 -52 -28 -72 -1 -30 9 14 23 25 31 25 17 0 20 -16 4
-26 -6 -3 -18 -19 -28 -35 l-17 -28 -57 53 c-31 29 -57 58 -57 63 0 13 67 73
80 73 6 0 10 -4 10 -10z m413 -622 c19 -35 50 -81 67 -103 18 -22 68 -94 113
-160 44 -66 110 -163 147 -215 37 -53 94 -138 126 -190 33 -52 84 -129 115
-170 30 -41 74 -106 98 -145 23 -38 62 -98 85 -133 126 -184 131 -227 90 -742
-22 -270 -9 -409 58 -645 30 -107 124 -267 313 -536 22 -31 74 -104 115 -162
41 -59 125 -183 185 -277 61 -94 132 -198 158 -232 26 -33 45 -63 42 -66 -13
-13 -113 103 -200 233 -52 77 -140 208 -195 290 -55 83 -123 182 -151 220
-129 180 -225 332 -274 440 -43 94 -83 252 -96 383 -9 95 0 317 21 477 6 44
11 145 11 225 0 144 0 146 -35 229 -19 46 -54 113 -77 150 -23 36 -60 95 -83
131 -22 36 -55 85 -73 110 -19 25 -95 137 -170 250 -162 244 -306 457 -353
524 -86 120 -98 141 -88 159 5 9 10 17 12 17 3 0 20 -28 39 -62z m597 -753 c0
-14 -4 -25 -9 -25 -12 0 -23 29 -15 41 10 18 24 9 24 -16z m75 -98 c47 -73 52
-87 32 -87 -18 0 -97 108 -97 132 0 35 26 17 65 -45z m95 -124 c58 -74 100
-138 100 -151 0 -26 -25 -6 -55 45 -16 28 -42 57 -57 66 -19 11 -28 24 -28 42
0 32 13 32 40 -2z m136 -321 c21 -14 37 -57 36 -96 -4 -90 -32 -106 -32 -18
-1 31 -7 68 -15 82 -22 38 -17 51 11 32z m1623 -279 c29 -32 69 -74 88 -94 26
-27 34 -43 30 -58 -4 -17 -2 -19 11 -12 12 7 22 -1 45 -35 18 -27 27 -52 24
-64 -3 -11 -1 -20 4 -20 5 0 9 8 9 18 1 12 15 2 46 -33 45 -48 46 -50 42 -107
-3 -45 -2 -55 8 -47 15 12 37 3 29 -12 -3 -5 1 -6 9 -3 9 3 21 -4 30 -19 15
-22 15 -28 -4 -73 l-20 -49 28 33 c34 38 46 41 40 8 -4 -17 -1 -23 9 -19 24 9
45 -18 39 -51 -6 -27 -5 -28 7 -12 12 16 14 16 26 2 12 -14 10 -22 -13 -56
-35 -53 -33 -61 5 -22 34 35 53 33 46 -4 -4 -24 8 -34 15 -13 2 6 15 1 31 -11
24 -19 27 -28 25 -73 -1 -29 -6 -61 -11 -72 -10 -20 -10 -20 12 -1 11 11 21
25 21 33 0 8 5 11 10 8 6 -3 10 -17 10 -30 0 -13 5 -25 12 -27 9 -3 8 -16 -5
-49 -25 -65 -21 -69 14 -16 17 26 34 47 37 47 4 0 24 -18 46 -40 33 -35 38
-44 32 -72 -5 -29 -4 -31 8 -15 20 26 29 20 23 -15 -5 -29 -5 -30 5 -10 6 12
14 22 18 22 13 0 33 -59 26 -77 -6 -17 -5 -17 7 -1 13 16 15 16 35 -3 25 -22
26 -31 11 -62 -10 -21 -9 -21 10 1 30 34 43 19 25 -30 -8 -23 -12 -43 -10 -45
2 -3 19 6 36 19 l32 23 26 -30 c15 -17 46 -46 70 -64 31 -24 40 -37 33 -44
-17 -17 -13 -27 8 -27 11 0 27 -10 35 -21 14 -20 13 -23 -7 -40 l-22 -19 31 6
c23 4 41 0 68 -18 19 -12 36 -26 36 -29 0 -3 -21 -28 -46 -55 -71 -76 -95
-116 -33 -55 30 29 65 57 78 62 28 11 44 0 171 -121 65 -62 81 -83 72 -92 -15
-15 -16 -32 -1 -23 16 10 56 -3 63 -21 3 -8 1 -25 -5 -36 -9 -18 -8 -19 11
-13 23 7 61 -17 145 -96 28 -26 63 -58 80 -72 l30 -25 -20 -24 -20 -23 23 19
c21 18 24 18 38 4 21 -21 19 -23 -101 -158 -114 -128 -148 -157 -227 -193 -63
-28 -76 -21 -27 13 16 12 28 25 24 28 -3 3 -26 -9 -50 -26 -25 -18 -52 -32
-60 -32 -7 0 -16 -4 -19 -9 -3 -5 -15 -11 -26 -14 -16 -4 -18 -2 -10 13 5 10
17 20 25 24 9 3 13 11 10 17 -4 6 4 23 17 37 47 53 51 66 7 26 -77 -71 -151
-124 -172 -124 -16 0 -2 17 55 69 105 98 318 340 318 363 0 19 -32 -11 -130
-122 -161 -182 -290 -303 -307 -287 -3 4 23 39 58 78 52 59 58 69 34 56 -17
-8 -54 -43 -83 -76 -30 -34 -58 -61 -63 -61 -16 0 -10 26 11 45 33 30 14 29
-26 -1 -25 -19 -39 -25 -41 -17 -3 9 -11 8 -28 -3 -14 -9 -30 -14 -37 -11 -8
3 21 38 75 91 48 48 96 100 105 115 10 16 65 80 124 142 130 140 163 179 150
179 -16 0 -282 -272 -276 -282 10 -16 -39 -80 -70 -93 -17 -7 -40 -23 -51 -36
-44 -49 -200 -148 -213 -135 -2 3 14 16 35 29 21 14 77 57 123 96 46 39 89 71
96 71 16 0 78 59 71 67 -4 3 -22 -7 -41 -23 -72 -60 -126 -95 -136 -89 -6 3
-31 -12 -57 -34 -25 -23 -50 -41 -56 -41 -6 0 -35 -17 -64 -37 -35 -24 -57
-33 -63 -27 -6 6 8 20 40 39 28 16 50 33 50 37 0 4 15 14 34 23 35 17 105 88
161 164 17 22 87 101 157 176 70 74 132 144 138 155 23 42 -11 17 -97 -72 -48
-50 -120 -125 -160 -165 -39 -40 -74 -81 -78 -92 -8 -25 -110 -121 -129 -121
-8 0 -19 -6 -23 -14 -4 -7 -18 -17 -30 -20 -36 -11 -18 18 30 49 56 36 127
109 127 130 0 16 -39 -13 -137 -102 -20 -18 -44 -35 -55 -39 -11 -3 -29 -15
-39 -25 -21 -21 -42 -18 -33 4 2 7 17 20 32 29 71 42 252 230 252 262 0 5 -17
-6 -37 -26 -70 -67 -128 -118 -135 -118 -4 0 -37 -25 -73 -55 -35 -30 -69 -55
-75 -55 -5 0 -10 -5 -10 -10 0 -6 -12 -15 -27 -21 -14 -5 -51 -25 -82 -43
-120 -71 -183 -106 -192 -106 -21 0 -7 20 25 35 18 9 44 28 57 42 l24 26 -40
-26 c-22 -15 -44 -27 -50 -27 -6 0 -18 -9 -28 -20 -16 -19 -67 -28 -67 -12 0
4 19 18 43 30 58 30 151 89 222 142 59 43 59 43 73 22 18 -27 42 -29 42 -2 0
12 12 26 30 35 17 9 30 19 30 23 1 4 24 23 52 42 54 38 198 158 198 166 0 8
-22 -7 -101 -73 -42 -35 -80 -63 -84 -63 -5 0 -23 -11 -41 -25 -18 -14 -38
-25 -44 -25 -23 0 -2 26 52 65 55 39 128 115 112 115 -5 0 -45 -30 -89 -66
-44 -36 -101 -79 -127 -96 -27 -16 -48 -34 -48 -38 0 -18 -70 -68 -210 -151
-47 -28 -96 -61 -110 -74 -18 -17 -32 -22 -52 -18 -16 3 -28 10 -28 15 0 5 4
7 9 4 5 -4 29 9 53 27 23 18 60 43 80 55 20 13 38 26 40 30 4 9 193 134 230
152 33 16 165 135 179 162 8 15 0 12 -36 -14 -26 -18 -64 -48 -86 -66 -21 -19
-43 -32 -48 -30 -14 5 24 45 120 125 47 39 98 86 114 105 15 18 46 53 69 78
91 97 176 204 176 219 0 10 -21 -6 -53 -40 -226 -242 -288 -309 -321 -346 -36
-40 -77 -64 -44 -25 31 36 30 46 -3 16 -19 -18 -52 -43 -74 -57 -22 -14 -62
-46 -89 -70 -40 -36 -47 -46 -39 -61 9 -17 12 -16 31 9 29 36 104 95 122 95
18 0 -108 -122 -205 -201 -72 -57 -140 -101 -234 -151 -61 -32 -62 -33 -55
-14 5 13 39 36 161 111 62 37 105 75 86 75 -6 0 -16 -6 -22 -14 -11 -13 -208
-128 -242 -141 -11 -4 -22 3 -33 20 -10 15 -16 28 -14 29 2 1 49 33 104 70 56
37 119 83 140 102 l39 34 -55 -31 c-30 -18 -93 -54 -140 -82 -47 -27 -95 -53
-107 -58 -34 -13 -38 8 -6 27 68 42 243 157 243 161 0 7 -134 -68 -257 -146
-53 -33 -39 0 15 35 26 17 88 57 137 89 50 32 107 73 128 91 21 18 50 35 64
39 58 14 253 197 253 236 0 5 -39 -29 -86 -76 -90 -88 -201 -169 -350 -255
-49 -29 -116 -70 -149 -91 -68 -43 -120 -61 -113 -38 2 8 27 26 54 41 27 14
56 33 64 41 8 8 33 24 55 35 22 11 56 35 76 54 19 18 28 28 20 22 -9 -6 -47
-28 -84 -48 -37 -21 -97 -58 -134 -82 -36 -25 -72 -43 -79 -40 -29 11 5 42
137 121 74 44 155 99 182 123 48 42 74 50 46 15 -9 -12 -5 -11 11 3 14 12 44
31 68 43 69 35 258 218 381 371 101 125 111 140 111 170 0 23 -2 22 -27 -15
-122 -181 -330 -395 -463 -476 -30 -18 -75 -49 -100 -69 -66 -53 -125 -92
-210 -138 -42 -22 -93 -51 -114 -66 -21 -14 -45 -26 -52 -26 -17 0 -7 27 13
34 14 6 92 56 193 123 134 89 23 38 -149 -69 -97 -60 -111 -66 -111 -45 1 12
54 48 140 95 25 13 52 30 61 38 8 8 19 14 23 14 14 0 149 93 198 137 27 23 63
50 81 59 51 26 116 83 134 117 15 29 12 28 -37 -17 -58 -51 -110 -83 -110 -67
0 6 13 17 29 25 30 16 114 107 105 115 -2 3 -21 -11 -42 -31 -20 -19 -54 -47
-75 -63 -20 -15 -36 -33 -35 -39 2 -9 -14 -30 -59 -76 -53 -56 -112 -94 -280
-186 -37 -21 -87 -50 -110 -66 -38 -25 -73 -29 -73 -8 0 5 26 23 58 41 31 18
68 40 82 50 14 9 72 47 129 83 57 37 101 69 98 72 -2 3 -25 -8 -50 -23 -203
-124 -325 -193 -339 -193 -21 0 -3 21 45 50 207 129 234 150 414 323 41 39 71
46 42 9 -8 -10 -1 -4 14 12 16 17 35 43 43 59 8 15 56 80 106 145 138 177 228
316 214 329 -10 10 -36 -19 -83 -91 -46 -72 -167 -219 -219 -268 -16 -14 -49
-37 -74 -49 -43 -23 -190 -162 -190 -180 0 -13 126 84 156 121 26 30 92 76 99
68 3 -3 -59 -70 -138 -149 -134 -137 -150 -150 -289 -232 -164 -97 -192 -110
-219 -102 -28 9 -23 30 14 60 17 15 25 24 17 20 -8 -5 -25 -17 -37 -28 -27
-24 -63 -17 -42 9 17 21 61 43 120 60 44 13 197 116 214 145 10 15 6 13 -115
-67 -52 -34 -115 -70 -140 -80 -25 -9 -55 -26 -67 -37 -25 -22 -56 -16 -51 10
2 10 -3 23 -11 29 -8 6 -11 15 -8 21 3 5 59 40 124 77 101 57 235 157 373 278
19 17 49 37 66 44 31 13 108 93 99 102 -2 3 -25 -14 -50 -37 -26 -24 -63 -50
-83 -59 -43 -19 -55 -28 -125 -97 -92 -90 -144 -123 -357 -232 -57 -29 -105
-53 -107 -53 -2 0 -3 6 -3 13 0 6 46 39 101 72 55 33 108 68 117 78 15 17 13
17 -37 -2 -30 -11 -63 -29 -75 -40 -41 -38 -126 -89 -132 -80 -7 12 49 76 96
109 19 13 60 37 90 52 54 28 53 29 -27 12 -13 -2 -54 -36 -93 -75 -45 -46 -75
-69 -85 -65 -24 9 -17 32 17 62 18 15 89 80 158 144 69 65 139 131 155 146 17
16 22 22 10 13 -11 -9 -40 -29 -65 -44 -25 -16 -102 -84 -171 -152 -114 -112
-149 -139 -149 -115 0 5 -11 22 -25 38 -14 16 -25 35 -25 42 0 6 -4 12 -10 12
-25 0 -6 31 43 69 84 66 162 139 155 147 -4 3 -53 -37 -110 -90 -56 -53 -108
-96 -114 -96 -24 0 -25 33 -2 57 l23 25 -32 -18 -31 -18 -40 39 c-51 52 -59
78 -32 105 17 17 18 21 5 26 -8 4 -15 12 -15 19 0 14 54 70 68 70 14 0 32 17
27 25 -3 5 -1 11 5 15 13 8 3 25 -14 25 -7 0 -27 -15 -45 -32 -35 -35 -81 -68
-93 -68 -21 0 -3 28 32 49 22 14 35 28 29 31 -6 4 0 20 17 41 15 19 0 6 -35
-29 l-62 -62 -34 32 c-18 18 -42 42 -54 52 -12 11 -21 25 -21 33 0 7 -5 13
-11 13 -6 0 -9 8 -6 19 3 14 0 17 -14 14 -24 -7 -36 22 -19 42 11 14 10 14
-14 6 -20 -8 -26 -8 -26 3 0 8 -4 16 -9 18 -5 2 -23 27 -41 57 -36 63 -48 42
97 168 50 44 115 107 145 139 81 90 162 171 174 175 5 2 36 44 67 93 47 71 62
87 77 83 11 -3 20 -1 20 4 0 4 7 6 16 2 14 -5 15 -3 4 18 -12 22 -10 26 39 69
29 25 109 100 179 167 114 110 128 120 140 105 16 -21 8 -55 -24 -104 -35 -54
-30 -58 16 -13 44 43 70 90 70 129 0 14 4 26 9 26 4 0 32 -26 60 -57z m-1592
-23 c-6 -11 -15 -20 -19 -20 -12 0 -9 25 4 38 17 17 29 4 15 -18z m12 -205 c2
-10 9 -25 17 -33 18 -18 18 -32 -1 -32 -30 0 -13 -226 29 -375 18 -66 55 -155
119 -290 73 -155 196 -395 217 -425 35 -49 70 -119 70 -139 0 -30 -16 -26 -30
8 -6 16 -20 37 -31 47 -10 9 -35 49 -55 88 -20 39 -43 80 -50 90 -12 18 -13
18 -19 -7 -8 -30 -30 -53 -39 -39 -3 6 -3 24 0 41 5 22 12 31 25 31 20 0 8 29
-86 195 -113 200 -195 515 -195 748 0 91 3 118 13 115 6 -3 14 -13 16 -23z
m-19 -458 c0 -18 -2 -19 -10 -7 -13 20 -13 43 0 35 6 -3 10 -16 10 -28z m40
-60 c12 -21 12 -29 2 -39 -16 -16 -28 -3 -37 41 -9 41 11 40 35 -2z m25 -146
c3 -5 1 -12 -5 -16 -5 -3 -10 1 -10 9 0 18 6 21 15 7z m45 -81 c0 -25 -16 -50
-32 -50 -4 0 -8 25 -8 57 0 55 0 56 20 38 11 -10 20 -30 20 -45z m323 -94
c-15 -14 -32 -26 -37 -26 -5 0 -24 -17 -41 -37 -18 -21 -37 -34 -41 -30 -15
14 20 55 81 96 62 42 88 40 38 -3z m-256 -33 c9 -33 5 -55 -10 -65 -16 -10
-27 11 -27 55 0 45 26 52 37 10z m317 -4 c-3 -5 -13 -9 -24 -9 -10 0 -20 -7
-24 -15 -7 -18 -36 -20 -36 -2 1 19 63 55 77 44 7 -5 10 -13 7 -18z m70 -96
c24 -37 42 -71 40 -75 -8 -12 -34 -9 -34 3 0 7 -10 9 -25 5 -15 -4 -25 -2 -25
5 0 6 9 13 20 16 11 3 20 9 20 14 0 19 -31 21 -58 3 -23 -16 -24 -19 -9 -22
22 -4 19 -35 -4 -40 -13 -2 -17 6 -17 37 -1 26 4 41 12 41 21 0 49 26 42 39
-6 9 -17 7 -42 -9 -20 -11 -41 -20 -49 -20 -17 0 -28 -27 -12 -33 12 -4 -9
-67 -23 -67 -13 0 -20 43 -8 57 8 11 7 12 -6 7 -9 -3 -16 -3 -16 2 0 12 32 44
45 44 7 0 18 7 25 15 7 8 15 13 19 11 4 -3 18 4 31 15 14 10 26 19 27 19 1 0
22 -30 47 -67z m-164 52 c0 -9 -53 -65 -62 -65 -18 0 -6 30 20 49 27 20 42 26
42 16z m-165 -104 c3 -5 1 -12 -5 -16 -5 -3 -10 1 -10 9 0 18 6 21 15 7z m215
-76 c0 -14 5 -25 10 -25 6 0 10 -10 10 -22 0 -27 53 -121 150 -268 42 -63 88
-134 101 -157 13 -24 29 -43 34 -43 6 0 25 -26 44 -58 56 -94 90 -132 117
-132 13 0 24 5 24 11 0 7 -10 9 -26 5 -21 -6 -25 -4 -21 8 3 8 3 16 -1 18 -19
8 -77 97 -107 161 -18 40 -65 130 -104 202 -39 71 -71 137 -71 145 0 8 12 23
28 32 15 10 39 27 54 40 28 22 28 22 42 2 8 -10 23 -33 32 -50 17 -30 16 -33
-4 -61 -27 -38 -18 -50 13 -17 17 19 25 21 33 12 12 -16 -32 -73 -48 -63 -6 4
-5 -8 3 -27 15 -38 27 -40 43 -9 6 12 20 28 30 35 16 12 20 12 31 -3 7 -9 12
-20 12 -26 0 -5 -6 -1 -14 9 -9 12 -15 15 -15 7 0 -8 -11 -24 -25 -37 -14 -13
-25 -28 -25 -34 0 -7 7 -5 16 4 8 9 24 16 34 16 23 0 37 -54 20 -75 -16 -19
-32 -9 -25 16 6 19 -9 27 -20 10 -5 -9 43 -107 69 -141 12 -17 41 -74 50 -104
6 -18 7 -18 26 -1 11 10 23 15 28 10 4 -4 1 -10 -6 -12 -17 -6 -42 -32 -42
-44 0 -5 9 -9 20 -9 11 0 20 -4 20 -8 0 -15 -24 -32 -47 -32 -26 0 -26 0 -13
-34 12 -34 22 -33 62 6 19 19 34 26 36 19 5 -14 -16 -41 -33 -41 -6 0 -19 -8
-28 -18 -14 -16 -33 -19 -67 -13 -2 1 1 6 8 13 10 10 8 17 -8 33 -37 36 -80
98 -112 157 -55 103 -43 52 16 -64 31 -62 56 -118 56 -124 0 -6 9 -23 21 -38
11 -14 19 -31 17 -38 -4 -11 -68 75 -68 92 0 4 -18 39 -39 78 -22 38 -50 95
-64 128 -13 32 -56 108 -95 167 -40 60 -72 113 -72 119 0 5 -9 22 -19 37 -24
33 -101 181 -101 193 0 5 -7 16 -15 25 -12 12 -13 18 -4 29 17 21 29 17 29
-11z m211 -54 c-19 -14 -46 -36 -59 -48 -29 -26 -42 -29 -42 -9 0 8 9 17 20
21 23 7 70 61 70 81 0 12 -5 11 -27 -3 -16 -10 -31 -22 -35 -28 -5 -6 -11 -6
-19 2 -7 7 -11 14 -8 15 2 2 21 12 43 24 l39 21 26 -25 26 -24 -34 -27z m-133
52 c-5 -25 -28 -28 -28 -4 0 12 6 21 16 21 9 0 14 -7 12 -17z m2848 -69 c55
-47 119 -105 144 -128 50 -46 188 -163 289 -244 85 -68 313 -294 348 -344 36
-52 20 -69 -32 -33 -47 31 -72 19 -37 -18 12 -13 22 -29 22 -35 0 -11 -39 -32
-60 -32 -5 0 -42 44 -82 98 -87 116 -110 145 -235 292 -66 78 -167 180 -301
304 -29 27 -61 65 -72 85 -10 20 -30 47 -45 61 -30 28 -60 80 -46 80 5 0 53
-39 107 -86z m-2833 5 c-17 -17 -37 -1 -22 17 8 10 15 12 23 4 7 -7 7 -13 -1
-21z m2988 -291 c29 -40 83 -113 119 -163 64 -87 87 -119 183 -257 50 -71 81
-128 74 -134 -5 -6 -177 229 -265 363 -34 50 -90 128 -126 172 -36 45 -66 84
-66 86 0 3 6 5 14 5 8 0 38 -33 67 -72z m-2614 29 c-6 -20 -27 -19 -27 2 0 14
5 19 15 14 9 -3 14 -10 12 -16z m-358 -38 c13 -39 14 -69 2 -69 -12 0 -43 79
-36 91 11 17 23 9 34 -22z m381 -4 c0 -8 -4 -15 -10 -15 -5 0 -10 7 -10 15 0
8 5 15 10 15 6 0 10 -7 10 -15z m16 -52 c-10 -10 -19 5 -10 18 6 11 8 11 12 0
2 -7 1 -15 -2 -18z m-43 -10 c3 -16 1 -32 -4 -37 -13 -14 -37 23 -31 46 7 27
29 22 35 -9z m75 -25 c-6 -18 -28 -21 -28 -4 0 9 7 16 16 16 9 0 14 -5 12 -12z
m-38 -22 c0 -18 -15 -36 -31 -36 -22 0 -24 11 -7 28 11 11 38 17 38 8z m70
-28 c-1 -13 -70 -63 -70 -51 0 9 53 62 63 63 4 0 7 -6 7 -12z m-326 -84 c44
-73 53 -94 40 -94 -18 0 -104 127 -104 155 0 31 20 12 64 -61z m346 46 c0 -5
-7 -10 -16 -10 -8 0 -12 5 -9 10 3 6 10 10 16 10 5 0 9 -4 9 -10z m-53 -37
c-9 -9 -20 -13 -24 -9 -4 4 1 14 11 22 25 18 35 8 13 -13z m83 -18 c0 -8 -7
-15 -15 -15 -16 0 -20 12 -8 23 11 12 23 8 23 -8z m870 11 c0 -3 -4 -8 -10
-11 -5 -3 -10 -1 -10 4 0 6 5 11 10 11 6 0 10 -2 10 -4z m-910 -46 c0 -5 -4
-10 -10 -10 -5 0 -10 5 -10 10 0 6 5 10 10 10 6 0 10 -4 10 -10z m71 -39 c-20
-20 -41 -28 -41 -15 0 14 46 52 54 44 4 -4 -1 -17 -13 -29z m79 -36 c-7 -9
-15 -13 -19 -10 -3 3 1 10 9 15 21 14 24 12 10 -5z m-405 -27 c4 -13 16 -30
27 -38 17 -14 17 -51 -1 -50 -13 1 -62 83 -57 96 8 21 24 17 31 -8z m352 3 c3
-12 11 -17 19 -14 18 7 18 -11 1 -25 -10 -9 -17 -6 -30 8 -19 23 -22 50 -6 50
6 0 13 -9 16 -19z m123 -21 c0 -10 -60 -45 -72 -42 -5 1 -8 -5 -8 -13 0 -8 -4
-15 -10 -15 -28 0 4 38 55 64 36 19 35 19 35 6z m-1310 -20 c0 -5 -8 -10 -17
-10 -27 0 -184 -50 -210 -67 -32 -21 -29 -39 12 -65 19 -13 35 -27 35 -31 0
-11 -97 1 -130 17 -43 19 -37 50 15 86 60 41 84 48 288 79 4 0 7 -3 7 -9z
m1375 -20 c-3 -5 -11 -10 -16 -10 -5 0 -23 -10 -39 -22 -16 -12 -32 -19 -36
-16 -3 4 11 18 33 32 39 25 69 34 58 16z m-245 -9 c0 -14 -18 -23 -31 -15 -8
4 -7 9 2 15 18 11 29 11 29 0z m-80 -50 c0 -3 -11 -6 -24 -6 -20 0 -22 3 -14
18 7 15 12 16 24 6 8 -6 14 -14 14 -18z m310 -32 c-7 -12 -8 -25 -2 -32 14
-19 22 -47 13 -47 -4 0 -14 11 -21 25 -7 14 -19 25 -27 25 -17 0 -16 10 4 32
23 26 47 24 33 -3z m2265 -19 c15 -22 26 -43 23 -45 -9 -9 -68 52 -68 69 0 27
16 18 45 -24z m-2160 21 c7 -12 -12 -24 -25 -16 -11 7 -4 25 10 25 5 0 11 -4
15 -9z m905 5 c0 -8 -31 -36 -41 -36 -5 0 -9 9 -9 20 0 15 7 20 25 20 14 0 25
-2 25 -4z m1448 -24 c6 -18 -15 -14 -22 4 -4 10 -1 14 6 12 6 -2 14 -10 16
-16z m-238 -21 c15 -28 12 -33 -10 -19 -21 13 -27 38 -10 38 5 0 14 -9 20 -19z
m-2625 -11 c28 -5 109 -10 180 -11 l130 -2 -75 -9 c-117 -15 -286 -4 -340 21
l-45 21 50 -5 c28 -3 73 -10 100 -15z m2604 -34 c31 -49 26 -55 -14 -16 -19
18 -32 37 -29 42 10 15 22 8 43 -26z m-1992 -29 c-6 -20 -27 -19 -27 2 0 14 5
19 15 14 9 -3 14 -10 12 -16z m1928 -17 c9 -15 -3 -30 -20 -24 -7 3 -11 12 -8
20 6 16 19 18 28 4z m-1135 -16 c0 -11 -32 -33 -75 -54 -22 -10 -59 -30 -82
-45 -24 -14 -43 -21 -43 -16 0 14 75 69 120 88 19 9 42 19 50 24 19 10 30 11
30 3z m98 -31 c-2 -10 -10 -18 -18 -18 -8 0 -16 8 -18 18 -2 12 3 17 18 17 15
0 20 -5 18 -17z m-851 -18 c-18 -13 -18 -14 0 -25 17 -11 17 -11 0 -6 -10 3
-24 6 -30 6 -6 0 0 11 13 25 13 14 26 22 29 19 3 -3 -2 -12 -12 -19z m773 -15
c-42 -32 -141 -82 -148 -75 -4 4 0 10 8 15 8 5 44 29 79 54 46 32 68 43 75 35
8 -7 4 -16 -14 -29z m40 -26 c0 -8 -5 -12 -10 -9 -6 4 -8 11 -5 16 9 14 15 11
15 -7z m-20 -34 c0 -9 -32 -30 -46 -30 -4 0 1 9 11 20 19 21 35 26 35 10z
m-2152 -17 c-10 -2 -28 -2 -40 0 -13 2 -5 4 17 4 22 1 32 -1 23 -4z m-460 -20
c-10 -2 -26 -2 -35 0 -10 3 -2 5 17 5 19 0 27 -2 18 -5z m2212 -119 c0 -2 -7
-4 -15 -4 -8 0 -15 4 -15 10 0 5 7 7 15 4 8 -4 15 -8 15 -10z m-1645 -175
c-49 -4 -119 -7 -155 -6 -62 0 -63 0 -20 7 25 4 95 7 155 7 l110 0 -90 -8z"/>
<path d="M1135 5775 c-188 -41 -380 -171 -486 -329 -40 -60 -48 -93 -27 -114
16 -16 48 -15 48 1 0 6 16 25 35 40 39 31 42 29 19 -14 -8 -17 -14 -33 -11
-35 9 -9 37 9 37 25 1 17 23 51 34 51 4 0 2 -9 -4 -20 -15 -28 -1 -25 33 8 32
29 28 17 -10 -34 -13 -17 -23 -36 -23 -41 0 -16 26 -23 39 -10 8 8 11 8 11 0
0 -7 -5 -15 -10 -18 -21 -13 10 -34 41 -28 35 7 41 -17 9 -38 -14 -10 -17 -18
-11 -28 7 -11 20 -5 61 31 59 52 238 152 290 163 19 4 60 22 90 41 45 28 50
34 29 34 -13 0 -35 -7 -47 -16 -41 -28 -38 -4 3 32 l40 35 -35 -7 c-59 -11
-156 -51 -215 -88 -55 -36 -75 -43 -75 -28 0 4 30 24 67 43 118 60 243 131
249 141 4 5 -7 3 -22 -5 -16 -8 -40 -18 -54 -22 -25 -7 -25 -7 -5 10 l20 17
-20 -7 c-11 -4 -31 -10 -45 -13 -21 -4 -18 0 18 31 39 33 41 37 20 37 -12 -1
-41 -7 -63 -15 -56 -20 -90 -20 -50 1 17 8 41 24 55 35 25 19 25 19 -28 -1
-72 -27 -86 -25 -34 6 23 14 42 29 42 33 0 5 14 14 30 21 17 7 30 16 30 21 0
13 -69 -15 -174 -69 -53 -27 -96 -46 -96 -43 0 20 185 125 254 145 45 13 61
36 24 35 -12 0 -50 -7 -83 -14z m-65 -285 c0 -6 -8 -13 -17 -17 -10 -3 -49
-27 -88 -53 -96 -64 -105 -68 -68 -30 28 29 146 107 166 109 4 1 7 -4 7 -9z"/>
<path d="M1512 5325 c29 -39 191 -231 235 -277 55 -59 68 -63 18 -5 -21 23
-68 78 -105 122 -68 81 -175 197 -148 160z"/>
<path d="M1286 5315 c4 -8 16 -15 27 -15 20 0 20 0 1 15 -25 19 -35 19 -28 0z"/>
<path d="M1545 5210 c10 -11 20 -20 22 -20 2 0 -2 9 -9 20 -7 11 -17 20 -22
20 -5 0 -1 -9 9 -20z"/>
<path d="M1037 5151 c-9 -16 -17 -40 -17 -53 1 -19 3 -17 14 12 7 19 17 43 21
53 11 27 1 20 -18 -12z"/>
<path d="M1121 5137 c-7 -21 -11 -41 -8 -44 9 -9 28 37 25 60 -3 18 -6 15 -17
-16z"/>
<path d="M1172 5065 c0 -16 2 -22 5 -12 2 9 2 23 0 30 -3 6 -5 -1 -5 -18z"/>
<path d="M1770 4940 c39 -47 86 -101 104 -120 17 -19 42 -50 55 -68 13 -18 26
-31 29 -28 8 9 -68 102 -168 206 l-92 95 72 -85z"/>
<path d="M1620 5005 c0 -5 71 -100 224 -300 17 -22 52 -65 77 -95 51 -61 143
-186 174 -236 37 -60 166 -224 177 -224 13 0 -25 61 -91 146 -31 39 -75 97
-99 130 -152 208 -306 409 -381 497 -72 84 -81 93 -81 82z"/>
<path d="M1267 4873 c24 -43 117 -187 181 -281 13 -19 26 -32 28 -29 11 11
-74 149 -205 334 -29 41 -32 24 -4 -24z"/>
<path d="M2110 4687 c0 -1 35 -36 78 -77 l77 -75 -75 78 c-69 71 -80 82 -80
74z"/>
<path d="M2270 4526 c0 -2 8 -10 18 -17 15 -13 16 -12 3 4 -13 16 -21 21 -21
13z"/>
<path d="M2111 4461 c82 -100 119 -151 144 -202 30 -58 44 -61 21 -4 -23 54
-96 152 -157 210 l-53 50 45 -54z"/>
<path d="M1547 4489 c-9 -6 -15 -14 -12 -20 10 -15 23 -10 35 11 12 22 4 25
-23 9z"/>
<path d="M2180 4494 c0 -6 7 -19 16 -30 14 -18 14 -18 3 6 -14 31 -19 36 -19
24z"/>
<path d="M1599 4413 l-24 -27 33 23 c32 23 39 31 24 31 -5 0 -19 -12 -33 -27z"/>
<path d="M2238 4400 c28 -43 98 -118 138 -150 24 -19 -57 79 -119 144 l-48 51
29 -45z"/>
<path d="M2340 4431 c0 -6 4 -13 10 -16 6 -3 7 1 4 9 -7 18 -14 21 -14 7z"/>
<path d="M2380 4374 c0 -23 194 -262 213 -263 5 -1 -10 20 -32 45 -57 65 -51
76 9 20 46 -43 70 -56 70 -38 0 4 -19 22 -42 40 -24 18 -82 71 -130 119 -49
47 -88 82 -88 77z"/>
<path d="M1629 4351 c-13 -11 -21 -22 -18 -26 4 -3 20 5 35 19 34 29 18 35
-17 7z"/>
<path d="M1710 4262 c0 -4 21 -42 48 -83 41 -66 66 -101 147 -209 54 -72 147
-180 155 -180 5 0 12 5 15 10 3 6 -1 10 -9 10 -9 0 -16 4 -16 9 0 19 -109 174
-217 309 -63 78 -117 142 -119 142 -2 0 -4 -4 -4 -8z"/>
<path d="M2320 4138 c0 -9 6 -27 13 -40 15 -30 86 -113 91 -107 2 2 1 18 -1
35 -5 35 -103 141 -103 112z"/>
<path d="M2980 4056 c0 -2 7 -9 15 -16 9 -7 15 -8 15 -2 0 5 -7 12 -15 16 -8
3 -15 4 -15 2z"/>
<path d="M2713 4035 c10 -7 52 -21 92 -30 77 -17 278 -85 385 -130 34 -14 65
-24 68 -21 7 8 11 6 -104 58 -56 26 -130 54 -165 63 -35 8 -75 20 -88 26 -14
6 -65 19 -115 29 -68 14 -86 15 -73 5z"/>
<path d="M2496 3987 c3 -10 9 -15 12 -12 3 3 0 11 -7 18 -10 9 -11 8 -5 -6z"/>
<path d="M2445 3915 c-15 -19 -25 -40 -22 -47 3 -8 9 -3 16 12 6 14 18 35 27
48 27 36 7 25 -21 -13z"/>
<path d="M2528 3900 c-24 -18 -55 -76 -46 -85 2 -2 23 18 46 45 43 50 43 75 0
40z"/>
<path d="M3315 3891 c10 -12 58 -42 107 -68 54 -29 126 -80 190 -135 57 -49
130 -112 163 -140 92 -78 148 -147 264 -328 15 -23 20 -27 16 -12 -10 36 11
25 39 -20 43 -73 220 -300 246 -317 25 -16 25 -16 10 6 -8 12 -46 68 -84 125
-115 170 -264 366 -348 457 -174 187 -368 335 -548 418 -62 29 -71 31 -55 14z"/>
<path d="M2574 3813 c-19 -20 -34 -41 -34 -47 0 -12 58 42 71 67 16 28 -1 19
-37 -20z"/>
<path d="M3156 3709 c-14 -11 -31 -30 -37 -41 -8 -15 0 -12 30 13 22 19 41 37
41 42 0 11 -5 9 -34 -14z"/>
<path d="M1996 3638 c-20 -96 -13 -239 20 -394 14 -71 95 -288 115 -308 14
-15 11 -5 -25 101 -76 221 -111 408 -101 540 7 77 1 112 -9 61z"/>
<path d="M3620 3635 c7 -8 17 -15 22 -15 6 0 5 7 -2 15 -7 8 -17 15 -22 15 -6
0 -5 -7 2 -15z"/>
<path d="M3190 3610 c-14 -11 -19 -20 -12 -20 19 0 52 19 52 30 0 15 -12 12
-40 -10z"/>
<path d="M2122 3535 c-2 -78 22 -193 62 -300 22 -61 19 -36 -13 93 -16 64 -34
155 -39 202 l-9 85 -1 -80z"/>
<path d="M2974 3544 l-69 -66 70 58 c39 32 72 59 74 61 2 2 2 5 -1 8 -3 3 -36
-24 -74 -61z"/>
<path d="M3045 3499 c-33 -27 -64 -57 -69 -66 -5 -9 25 11 67 46 43 34 77 64
77 67 0 11 -20 -1 -75 -47z"/>
<path d="M2075 3455 c6 -103 34 -255 46 -255 5 0 9 -5 9 -11 0 -16 71 -179 81
-185 5 -3 4 7 -2 23 -43 109 -73 212 -99 345 -17 84 -33 158 -36 163 -2 6 -2
-30 1 -80z"/>
<path d="M2425 3350 c-3 -5 -1 -10 4 -10 6 0 11 5 11 10 0 6 -2 10 -4 10 -3 0
-8 -4 -11 -10z"/>
<path d="M2449 3262 c-14 -9 -46 -34 -70 -56 l-44 -38 41 20 c23 12 55 33 72
47 16 14 35 25 41 25 6 0 11 5 11 10 0 15 -22 12 -51 -8z"/>
<path d="M3931 3107 c30 -38 63 -81 74 -96 11 -15 77 -92 147 -172 69 -79 148
-172 175 -206 63 -81 193 -237 239 -288 30 -33 33 -35 18 -10 -36 60 -219 288
-367 458 -84 95 -184 211 -224 258 -92 108 -133 145 -62 56z"/>
<path d="M4250 3117 c0 -5 20 -36 44 -70 24 -34 90 -132 147 -217 119 -177
348 -488 459 -625 19 -24 79 -100 134 -169 54 -69 103 -126 107 -126 34 0 -59
144 -249 389 -57 74 -111 146 -121 160 -9 14 -50 71 -91 126 -41 55 -82 110
-90 122 -39 56 -136 177 -208 261 -45 50 -92 107 -106 125 -14 17 -26 28 -26
24z"/>
<path d="M2445 3024 c-74 -57 -82 -64 -68 -64 15 0 153 92 153 102 0 18 -28 5
-85 -38z"/>
<path d="M1986 3040 c3 -14 17 -47 30 -75 13 -27 21 -39 18 -25 -3 14 -17 48
-30 75 -13 28 -21 39 -18 25z"/>
<path d="M2150 2891 c0 -6 4 -13 10 -16 6 -3 7 1 4 9 -7 18 -14 21 -14 7z"/>
<path d="M2176 2847 c3 -10 9 -15 12 -12 3 3 0 11 -7 18 -10 9 -11 8 -5 -6z"/>
<path d="M2020 2836 c0 -15 78 -202 101 -241 52 -88 19 26 -42 145 -42 83 -59
110 -59 96z"/>
<path d="M4370 2756 c0 -14 254 -364 410 -567 58 -75 131 -172 162 -215 31
-44 66 -89 78 -99 19 -17 18 -14 -4 26 -14 24 -47 76 -75 114 -27 39 -100 144
-161 235 -62 91 -133 192 -158 225 -157 206 -252 311 -252 281z"/>
<path d="M2180 2651 c0 -5 5 -13 10 -16 6 -3 10 -2 10 4 0 5 -4 13 -10 16 -5
3 -10 2 -10 -4z"/>
<path d="M4669 2205 c17 -33 49 -70 55 -64 3 3 -10 23 -29 45 -20 21 -31 30
-26 19z"/>
<path d="M5140 1889 c0 -11 65 -88 88 -105 12 -8 20 -18 18 -22 -2 -4 20 -41
49 -82 30 -41 74 -104 99 -140 61 -88 142 -177 152 -167 4 4 0 22 -11 40 -39
68 -237 347 -258 364 -13 10 -29 32 -36 50 -17 42 -51 72 -79 70 -12 0 -22 -4
-22 -8z"/>
<path d="M5060 1840 c0 -5 13 -24 30 -42 l30 -33 -18 42 c-15 38 -42 59 -42
33z"/>
<path d="M5480 1271 c0 -5 5 -13 10 -16 6 -3 10 -2 10 4 0 5 -4 13 -10 16 -5
3 -10 2 -10 -4z"/>
<path d="M3400 3355 c-17 -24 -38 -49 -48 -54 -9 -6 -12 -11 -6 -11 18 0 49
31 73 73 31 51 19 47 -19 -8z"/>
<path d="M3422 3152 c-113 -167 -189 -257 -379 -447 -133 -134 -172 -178 -133
-150 100 71 145 109 210 179 36 38 84 90 108 115 108 114 270 353 260 383 -2
6 -32 -30 -66 -80z"/>
<path d="M3201 3119 c-67 -80 -76 -106 -12 -36 58 62 84 97 78 103 -3 3 -32
-27 -66 -67z"/>
<path d="M3533 3057 c-11 -12 -42 -53 -68 -92 -43 -62 -92 -130 -148 -201 -14
-17 -15 -24 -5 -23 16 0 119 119 171 197 69 104 98 173 50 119z"/>
<path d="M3806 2974 c-23 -23 -20 -30 4 -9 11 10 20 20 20 22 0 7 -9 2 -24
-13z"/>
<path d="M2894 2958 l-19 -23 23 19 c21 18 27 26 19 26 -2 0 -12 -10 -23 -22z"/>
<path d="M3623 2925 c-81 -120 -179 -233 -330 -384 -84 -84 -152 -156 -149
-158 11 -11 58 27 111 90 31 37 59 66 62 64 9 -10 -43 -85 -89 -128 -54 -52
-65 -83 -17 -48 17 12 46 46 65 75 19 30 67 91 107 136 178 201 296 367 285
400 -3 7 -23 -15 -45 -47z"/>
<path d="M2960 2898 c-25 -22 -69 -63 -97 -91 -29 -27 -53 -47 -53 -43 0 4
-16 -8 -35 -25 -45 -41 -46 -58 -2 -25 19 15 38 26 43 26 12 0 194 179 194
191 0 13 0 13 -50 -33z"/>
<path d="M2904 2898 l-19 -23 23 19 c21 18 27 26 19 26 -2 0 -12 -10 -23 -22z"/>
<path d="M2947 2808 c-62 -62 -134 -129 -161 -150 -81 -62 -86 -86 -6 -29 131
92 325 291 284 291 -3 0 -56 -51 -117 -112z"/>
<path d="M2829 2893 c-13 -16 -12 -17 4 -4 16 13 21 21 13 21 -2 0 -10 -8 -17
-17z"/>
<path d="M3057 2815 c-55 -40 -129 -125 -110 -125 4 0 49 38 98 85 98 92 103
108 12 40z"/>
<path d="M3862 2836 c-6 -14 -26 -42 -44 -63 -36 -40 -118 -164 -118 -177 0
-5 18 14 40 40 44 53 144 213 137 220 -2 2 -9 -7 -15 -20z"/>
<path d="M3080 2645 c-11 -13 -10 -14 4 -9 9 3 16 10 16 15 0 13 -6 11 -20 -6z"/>
<path d="M3125 2620 c-21 -22 -46 -40 -55 -40 -8 -1 -28 -12 -45 -25 -26 -22
-27 -25 -10 -25 11 0 33 7 49 15 15 8 33 15 38 15 5 0 15 6 21 13 7 7 28 30
46 50 30 32 32 37 15 37 -11 0 -38 -18 -59 -40z"/>
<path d="M3169 2576 c-61 -59 -89 -96 -71 -96 22 0 152 143 141 155 -2 2 -34
-25 -70 -59z"/>
<path d="M3849 2563 c-83 -113 -187 -239 -230 -277 -139 -124 -227 -204 -250
-228 -15 -16 -34 -28 -42 -28 -14 0 -77 -75 -77 -91 0 -18 42 7 67 40 15 20
30 37 33 39 73 32 296 231 384 341 105 131 179 242 168 253 -7 7 -24 -9 -53
-49z"/>
<path d="M3204 2523 c-52 -48 -117 -123 -106 -123 5 0 24 13 40 28 17 16 42
36 56 46 26 17 63 76 48 76 -5 0 -22 -12 -38 -27z"/>
<path d="M3366 2509 c-14 -11 -40 -42 -57 -67 -18 -26 -48 -64 -67 -84 -20
-21 -32 -38 -26 -38 13 0 84 75 114 120 13 19 27 37 30 40 15 14 42 50 38 50
-3 0 -17 -9 -32 -21z"/>
<path d="M3393 2473 c-20 -21 -47 -54 -62 -74 -15 -20 -49 -55 -77 -78 -73
-61 -146 -132 -140 -138 12 -13 49 14 124 90 125 126 216 237 196 237 -3 0
-22 -17 -41 -37z"/>
<path d="M3566 2457 c-9 -13 -45 -45 -80 -71 -35 -25 -84 -72 -109 -104 -71
-90 -148 -163 -228 -217 -118 -79 -249 -178 -249 -188 0 -8 44 15 100 54 14 9
49 31 78 48 29 17 87 59 130 94 42 34 120 95 172 135 172 131 318 266 266 246
-9 -3 -16 -10 -16 -14 0 -4 -26 -27 -57 -51 -58 -43 -155 -124 -201 -166 -14
-13 -29 -23 -35 -23 -19 0 69 91 155 160 56 45 106 106 95 116 -3 3 -13 -5
-21 -19z"/>
<path d="M3466 2433 c-6 -14 -5 -15 5 -6 7 7 10 15 7 18 -3 3 -9 -2 -12 -12z"/>
<path d="M3966 2408 c-61 -80 -153 -204 -161 -218 -5 -8 5 -3 22 10 48 38 159
182 165 213 3 15 4 27 2 27 -2 0 -14 -15 -28 -32z"/>
<path d="M3348 2344 c-71 -68 -94 -104 -68 -104 19 0 121 106 135 143 8 20 14
37 13 37 -2 0 -38 -34 -80 -76z"/>
<path d="M2655 2370 c-3 -5 -1 -10 4 -10 6 0 11 5 11 10 0 6 -2 10 -4 10 -3 0
-8 -4 -11 -10z"/>
<path d="M2670 2352 c-31 -15 -70 -48 -70 -59 0 -2 10 2 23 9 12 7 25 12 28
13 3 0 20 12 38 28 37 31 32 33 -19 9z"/>
<path d="M3518 2284 c-42 -35 -93 -86 -133 -134 -55 -64 54 29 150 129 48 51
41 53 -17 5z"/>
<path d="M4157 2133 c-69 -101 -80 -137 -21 -68 55 63 106 147 97 156 -5 5
-38 -33 -76 -88z"/>
<path d="M2980 2185 c-7 -8 -18 -15 -24 -15 -7 0 -23 -15 -36 -32 -23 -31 -21
-30 28 10 29 24 52 46 52 48 0 8 -8 4 -20 -11z"/>
<path d="M3614 2194 c-6 -3 -48 -46 -94 -96 -62 -67 -76 -86 -53 -75 31 16
135 123 153 157 6 11 9 20 8 19 -2 0 -8 -3 -14 -5z"/>
<path d="M3655 2110 c-21 -23 -37 -26 -29 -6 3 7 -16 -6 -42 -30 -26 -24 -52
-44 -59 -44 -6 0 -22 -11 -35 -25 -26 -27 -17 -33 14 -10 11 8 27 15 36 15 17
0 106 71 128 101 17 25 10 24 -13 -1z"/>
<path d="M3086 2095 c-11 -8 -17 -17 -14 -20 2 -3 13 4 23 15 21 23 18 25 -9
5z"/>
<path d="M2985 2077 c-8 -13 -32 -33 -54 -45 -39 -22 -71 -52 -55 -52 15 0
106 73 122 98 8 12 12 22 8 22 -3 0 -12 -10 -21 -23z"/>
<path d="M3724 2040 c-32 -28 -63 -48 -70 -46 -7 3 -36 -17 -64 -43 -41 -39
-48 -50 -35 -55 12 -4 30 8 59 39 37 39 66 57 66 40 0 -6 -64 -77 -112 -125
-21 -20 -38 -40 -38 -44 0 -15 45 19 108 80 36 35 73 64 82 64 17 0 80 56 80
72 0 5 -14 -1 -31 -14 -55 -41 -58 -42 -65 -35 -4 3 14 31 40 62 26 30 45 55
42 55 -3 0 -31 -23 -62 -50z"/>
<path d="M4355 1868 c-155 -195 -384 -418 -431 -418 -13 0 -15 -6 -9 -27 4
-16 8 -30 10 -32 4 -4 214 187 284 259 64 65 238 285 246 310 15 46 -7 27
-100 -92z"/>
<path d="M3918 1897 c-20 -17 -69 -59 -108 -92 -40 -32 -79 -73 -87 -90 -9
-16 -23 -35 -32 -42 -27 -19 -4 -27 25 -8 19 12 23 19 14 25 -8 5 -9 9 -1 11
16 6 212 191 222 212 13 23 10 22 -33 -16z"/>
<path d="M2979 1872 c-15 -9 -32 -24 -38 -34 -10 -17 -10 -18 6 -10 17 9 72
63 62 61 -2 0 -16 -8 -30 -17z"/>
<path d="M3254 1864 c-18 -14 -18 -15 4 -4 12 6 22 13 22 15 0 8 -5 6 -26 -11z"/>
<path d="M3970 1774 c-50 -52 -88 -79 -197 -144 -40 -23 -57 -50 -33 -50 18 0
92 43 152 88 67 51 154 152 131 152 -5 0 -29 -21 -53 -46z"/>
<path d="M3500 1779 c0 -5 5 -7 10 -4 6 3 10 8 10 11 0 2 -4 4 -10 4 -5 0 -10
-5 -10 -11z"/>
<path d="M3697 1736 c-10 -14 -24 -26 -31 -26 -8 0 -16 -7 -20 -15 -3 -10 1
-15 12 -15 20 0 65 55 60 72 -2 6 -12 -1 -21 -16z"/>
<path d="M4705 1692 c-46 -73 -57 -93 -52 -98 8 -9 78 83 87 115 12 44 0 38
-35 -17z"/>
<path d="M4040 1669 c-78 -71 -169 -139 -187 -139 -9 0 -35 -18 -59 -40 -48
-44 -44 -55 5 -14 17 14 35 23 40 20 16 -10 123 69 199 148 83 86 84 101 2 25z"/>
<path d="M3270 1687 c-19 -13 -63 -36 -97 -52 -35 -15 -63 -32 -63 -37 0 -9
184 84 205 103 19 18 -11 9 -45 -14z"/>
<path d="M3469 1679 l-24 -20 28 17 c15 9 27 18 27 20 0 8 -8 4 -31 -17z"/>
<path d="M3325 1594 c-103 -67 -135 -92 -101 -80 22 8 216 134 216 141 0 11
-19 1 -115 -61z"/>
<path d="M4213 1597 c-145 -121 -243 -206 -319 -277 -45 -41 -130 -106 -189
-143 -58 -38 -104 -71 -102 -74 15 -15 218 122 292 196 33 34 64 61 71 61 6 0
36 21 67 48 71 59 250 233 245 237 -2 2 -31 -20 -65 -48z"/>
<path d="M5173 1408 c-11 -13 -29 -36 -39 -53 l-18 -30 25 22 c22 20 65 83 56
83 -2 0 -13 -10 -24 -22z"/>
<path d="M4565 1261 c-65 -81 -73 -104 -12 -40 40 43 84 109 73 109 -3 0 -30
-31 -61 -69z"/>
<path d="M4705 1179 c-27 -22 -61 -47 -75 -54 -32 -16 -65 -53 -57 -62 4 -4
20 5 35 19 15 14 41 33 57 41 33 17 115 97 99 97 -5 0 -32 -18 -59 -41z"/>
<path d="M4056 1159 c-21 -16 -36 -29 -32 -29 9 0 96 51 96 56 0 12 -29 -1
-64 -27z"/>
<path d="M4984 1118 l-19 -23 23 19 c21 18 27 26 19 26 -2 0 -12 -10 -23 -22z"/>
<path d="M4939 1073 c-13 -16 -12 -17 4 -4 16 13 21 21 13 21 -2 0 -10 -8 -17
-17z"/>
<path d="M2556 1971 c5 -57 30 -118 79 -192 16 -25 38 -61 48 -79 10 -18 20
-30 24 -26 3 3 -16 43 -44 88 -69 114 -74 124 -95 198 l-18 65 6 -54z"/>
<path d="M2607 2013 c-3 -5 0 -19 8 -29 15 -20 18 -11 6 20 -4 11 -10 15 -14
9z"/>
<path d="M2720 1641 c0 -5 9 -19 20 -32 l21 -24 -16 33 c-15 31 -25 41 -25 23z"/>
<path d="M2766 1567 c3 -10 9 -15 12 -12 3 3 0 11 -7 18 -10 9 -11 8 -5 -6z"/>
<path d="M2790 1532 c0 -12 19 -26 26 -19 2 2 -2 10 -11 17 -9 8 -15 8 -15 2z"/>
<path d="M6241 5425 c-38 -28 -49 -44 -70 -106 -26 -72 -27 -74 -83 -101 -61
-29 -99 -71 -144 -160 l-24 -48 -169 0 -169 0 -13 37 c-6 20 -25 57 -40 81
-16 25 -34 61 -40 81 -22 69 -44 77 -107 38 -20 -13 -44 -26 -53 -29 -9 -4
-19 -19 -23 -33 -4 -15 -20 -44 -36 -64 -15 -20 -37 -52 -48 -71 l-19 -35
-1576 -3 c-1001 -1 -1577 -6 -1577 -12 0 -5 9 -14 19 -20 13 -7 521 -10 1571
-10 1526 0 1551 0 1540 -19 -5 -11 -27 -25 -47 -32 -21 -6 -42 -14 -48 -18 -5
-3 -576 -4 -1268 -3 -1161 3 -1493 -1 -1397 -18 20 -3 605 -7 1300 -9 696 -1
1328 -6 1405 -10 77 -4 145 -4 150 0 6 5 52 5 102 1 50 -4 99 -7 109 -6 11 0
116 2 234 3 118 2 206 5 195 8 -11 3 -24 9 -29 14 -6 5 -52 9 -103 9 -101 0
-130 9 -172 54 -32 34 -22 42 31 26 24 -7 88 -15 143 -17 55 -2 104 -9 110
-14 10 -10 -11 -12 -100 -9 -47 1 -57 -1 -48 -10 14 -15 113 -29 261 -37 88
-4 112 -8 108 -18 -3 -8 -1 -15 4 -17 23 -7 280 4 280 13 0 5 -10 9 -22 9 -13
1 -45 7 -73 15 l-50 14 73 0 72 1 0 39 c0 22 -5 41 -12 44 -10 4 -10 7 0 18 7
8 11 37 10 73 -1 36 -3 47 -5 28 -2 -18 -11 -45 -19 -60 l-16 -27 6 35 c3 19
8 56 12 83 3 26 10 47 15 47 5 0 9 17 8 38 l-1 37 -10 -30 c-6 -16 -21 -66
-33 -110 -28 -96 -32 -64 -9 71 19 113 15 146 -11 89 -18 -40 -55 -116 -82
-168 -8 -15 -27 -35 -41 -45 -36 -22 -47 -33 -61 -61 -10 -17 -19 -22 -37 -18
-26 5 -33 -7 -9 -17 8 -3 15 -15 15 -26 0 -17 -6 -20 -49 -20 -27 0 -63 3 -81
6 -31 7 -32 9 -27 45 10 79 73 171 139 205 l28 15 -5 -43 c-4 -24 -8 -53 -11
-65 -7 -35 15 -27 31 11 8 19 29 83 45 143 43 149 90 192 158 145 50 -35 52
-35 52 -5 -1 22 -10 34 -46 56 -25 15 -51 27 -57 26 -7 0 -32 -15 -56 -34z
m-795 -232 c3 -16 8 -36 11 -46 8 -30 -7 -75 -28 -80 -15 -4 -18 -11 -13 -35
l6 -30 -48 1 c-46 2 -49 0 -54 -27 -4 -21 -17 -34 -50 -52 -59 -32 -75 -32
-55 -1 8 13 26 51 39 85 24 60 59 111 123 179 38 40 61 42 69 6z"/>
<path d="M0 4990 c0 -20 7 -20 405 -20 253 0 405 4 405 10 0 26 -52 30 -424
30 -379 0 -386 0 -386 -20z"/>
<path d="M2215 4931 c-80 -5 -88 -7 -67 -19 18 -10 42 -11 118 -2 55 6 459 13
957 16 474 3 864 8 866 10 7 6 -1772 1 -1874 -5z"/>
<path d="M4668 4923 c61 -2 163 -2 225 0 61 1 11 3 -113 3 -124 0 -174 -2
-112 -3z"/>
<path d="M510 4905 c-58 -7 -196 -14 -307 -14 -128 -1 -203 -5 -203 -11 0 -13
398 -13 495 0 39 5 137 12 218 16 81 4 150 11 153 15 8 13 -234 8 -356 -6z"/>
<path d="M228 4843 c-163 -3 -228 -7 -228 -15 0 -13 786 -3 855 12 40 8 -150
9 -627 3z"/>
<path d="M3028 4841 c-80 -3 -149 -8 -151 -11 -3 -3 189 -4 426 -2 238 1 502
-2 587 -7 140 -8 121 -9 -195 -9 -467 1 -575 -1 -550 -12 11 -5 32 -9 48 -9
15 -1 27 -5 27 -9 0 -9 -148 -22 -255 -22 -33 0 -67 -5 -75 -10 -10 -7 22 -10
100 -11 63 -1 156 -4 205 -8 l90 -7 -65 -7 c-133 -13 -338 -17 -435 -8 -166
16 -455 25 -455 13 0 -20 41 -24 330 -30 462 -9 652 -8 825 6 88 7 263 19 389
27 126 8 231 17 233 19 3 2 -85 2 -194 -1 -109 -3 -195 -2 -192 2 4 3 31 8 60
10 30 2 131 13 224 24 200 23 574 41 910 43 l240 1 -160 9 c-98 6 -305 6 -535
0 -216 -6 -405 -6 -445 -1 -90 11 -794 18 -987 10z m409 -37 c-3 -3 -12 -4
-19 -1 -8 3 -5 6 6 6 11 1 17 -2 13 -5z m188 -49 c6 -2 -96 -3 -225 -3 -129 1
-217 4 -195 7 39 7 400 3 420 -4z"/>
<path d="M5308 4843 c6 -2 18 -2 25 0 6 3 1 5 -13 5 -14 0 -19 -2 -12 -5z"/>
<path d="M5351 4835 c10 -9 699 -27 736 -19 34 7 30 9 -47 15 -95 8 -696 12
-689 4z"/>
<path d="M2260 4820 c-20 -4 55 -8 170 -8 113 -1 223 3 245 7 26 6 -34 9 -170
9 -115 -1 -226 -4 -245 -8z"/>
<path d="M6276 4821 c-18 -7 -18 -8 5 -14 13 -4 45 -7 72 -7 35 0 47 4 47 15
0 12 -12 15 -52 14 -29 0 -62 -4 -72 -8z"/>
<path d="M4570 4790 c-30 -5 -80 -18 -110 -29 l-55 -21 70 5 c39 2 142 10 230
17 136 11 153 14 110 20 -86 13 -188 16 -245 8z"/>
<path d="M5515 4793 c-82 -2 -154 -8 -159 -13 -12 -12 413 -12 544 -1 66 6 74
8 35 10 -174 6 -288 7 -420 4z"/>
<path d="M183 4783 c-101 -2 -183 -7 -183 -12 0 -8 512 -21 817 -21 123 0 153
3 153 14 0 8 -15 16 -37 20 -36 5 -350 5 -750 -1z"/>
<path d="M2295 4760 c-4 -7 79 -9 242 -8 170 1 225 3 173 8 -119 12 -408 11
-415 0z"/>
<path d="M5195 4751 c-59 -5 -39 -8 120 -16 229 -11 796 -10 845 3 22 5 -114
8 -360 8 -217 -1 -426 2 -465 5 -38 3 -101 3 -140 0z"/>
<path d="M6295 4720 c3 -5 28 -10 56 -10 27 0 49 5 49 10 0 6 -25 10 -56 10
-34 0 -53 -4 -49 -10z"/>
<path d="M5220 4693 c-63 -2 -302 -8 -530 -14 -428 -10 -655 -20 -663 -29 -8
-8 767 0 928 9 77 4 383 4 680 -1 430 -7 546 -6 570 4 28 12 24 13 -60 19 -49
3 -196 6 -325 7 -129 1 -291 4 -360 6 -69 1 -177 1 -240 -1z"/>
<path d="M0 4676 c0 -11 43 -15 228 -20 125 -4 317 -11 426 -17 293 -13 406
-12 406 5 0 8 -8 17 -17 21 -22 9 -534 24 -825 24 -180 1 -218 -1 -218 -13z"/>
<path d="M6265 4680 c11 -5 38 -9 60 -9 22 0 49 4 60 9 13 6 -7 9 -60 9 -53 0
-73 -3 -60 -9z"/>
<path d="M6303 4653 c9 -2 23 -2 30 0 6 3 -1 5 -18 5 -16 0 -22 -2 -12 -5z"/>
<path d="M6378 4643 c7 -3 16 -2 19 1 4 3 -2 6 -13 5 -11 0 -14 -3 -6 -6z"/>
<path d="M2645 4610 c-152 -3 -215 -8 -205 -15 10 -6 160 -9 420 -6 223 2 468
4 545 4 202 0 1003 -21 1255 -33 275 -13 995 -21 915 -10 -191 25 -553 37
-1835 60 -525 10 -705 10 -1095 0z"/>
<path d="M5980 4611 c-64 -12 -3 -21 110 -16 58 2 151 5 208 5 61 0 102 4 102
10 0 11 -361 12 -420 1z"/>
<path d="M0 4569 c0 -14 35 -17 302 -22 166 -4 413 -7 550 -7 216 0 248 2 248
15 0 9 -6 18 -12 20 -7 2 -255 5 -551 7 -485 3 -537 1 -537 -13z"/>
<path d="M6278 4573 c23 -2 61 -2 85 0 23 2 4 4 -43 4 -47 0 -66 -2 -42 -4z"/>
<path d="M2766 4536 c-224 -9 -267 -13 -253 -24 11 -9 47 -13 119 -12 57 1
164 0 238 -1 l135 -2 -114 -8 c-63 -5 -128 -14 -145 -19 -21 -6 89 -7 324 -2
428 9 422 9 785 -12 316 -18 618 -22 655 -8 27 10 -273 22 -559 22 -102 0
-222 5 -266 10 -44 6 -190 14 -325 19 -152 5 -205 9 -140 10 58 1 125 6 150
10 41 7 36 8 -50 14 -187 13 -289 13 -554 3z"/>
<path d="M3508 4533 c-58 -6 -45 -20 25 -25 112 -8 873 -10 923 -2 49 8 48 8
-51 20 -93 11 -804 16 -897 7z"/>
<path d="M4690 4501 c-28 -6 -15 -9 60 -14 267 -19 1508 -27 1613 -11 24 4 37
11 37 21 0 14 -15 15 -127 8 -71 -4 -241 -8 -380 -10 -138 -2 -256 -5 -261 -8
-5 -4 -89 -2 -188 3 -256 12 -713 19 -754 11z"/>
<path d="M230 4490 c-81 -11 118 -19 543 -23 344 -4 397 -2 393 10 -4 8 -6 17
-6 19 0 7 -877 1 -930 -6z"/>
<path d="M5070 4439 c186 -23 878 -33 912 -14 11 7 -88 10 -285 10 -166 0
-392 3 -502 6 -139 5 -177 4 -125 -2z"/>
<path d="M137 4432 c-75 -1 -137 -6 -137 -11 0 -8 408 -21 685 -21 88 0 223
-7 300 -15 162 -17 245 -19 245 -5 0 35 -172 51 -595 53 -198 1 -422 1 -498
-1z"/>
<path d="M6260 4409 c-45 -9 -90 -35 -98 -57 -2 -8 8 -7 33 4 29 12 111 22
198 24 4 0 7 9 7 20 0 17 -6 20 -47 19 -27 -1 -68 -5 -93 -10z"/>
<path d="M2668 4388 c15 -15 812 -25 988 -12 l119 9 -145 6 c-80 4 -332 7
-559 8 -322 1 -412 -2 -403 -11z"/>
<path d="M5260 4378 c129 -4 317 -11 417 -16 100 -4 178 -3 174 1 -9 9 -546
27 -721 25 -58 -1 0 -5 130 -10z"/>
<path d="M3920 4369 c36 -16 205 -21 360 -11 l135 9 -145 2 c-80 0 -197 3
-260 6 -90 4 -109 3 -90 -6z"/>
<path d="M5893 4353 c9 -2 23 -2 30 0 6 3 -1 5 -18 5 -16 0 -22 -2 -12 -5z"/>
<path d="M0 4326 c0 -14 13 -16 93 -15 50 0 112 4 137 8 42 8 40 9 -31 10 -42
0 -104 4 -138 7 -52 6 -61 5 -61 -10z"/>
<path d="M580 4332 c0 -6 44 -12 108 -16 59 -3 166 -11 237 -17 209 -18 322
-22 340 -12 12 7 -17 12 -101 17 -66 4 -137 12 -159 17 -57 15 -425 24 -425
11z"/>
<path d="M2720 4326 c0 -21 14 -24 192 -37 269 -21 1505 -17 2028 7 473 21
540 26 505 36 -34 9 -410 -6 -550 -23 -55 -7 -263 -10 -530 -8 -242 1 -505 -1
-585 -6 -187 -10 -795 11 -888 30 -89 19 -172 20 -172 1z"/>
<path d="M6330 4331 c0 -5 16 -11 35 -13 24 -3 35 0 35 9 0 8 -13 13 -35 13
-19 0 -35 -4 -35 -9z"/>
<path d="M5786 4278 c4 -6 3 -8 -3 -5 -13 8 -408 -11 -466 -23 -26 -5 77 -8
273 -9 347 -1 542 -9 534 -23 -3 -4 -56 -8 -117 -8 -213 0 -547 -13 -547 -22
0 -10 230 -10 638 -1 223 5 302 9 302 18 0 14 -170 29 -209 18 -17 -4 -22 -3
-17 5 4 7 6 12 4 12 -2 1 -61 7 -133 15 -71 8 -137 15 -145 16 -8 1 12 5 45 9
51 6 43 7 -53 8 -83 2 -111 -1 -106 -10z"/>
<path d="M480 4240 c-31 -10 237 -10 415 -1 112 7 94 8 -130 8 -143 1 -271 -3
-285 -7z"/>
<path d="M3825 4240 c128 -16 336 -22 470 -15 231 13 127 24 -215 23 -184 -1
-290 -4 -255 -8z"/>
<path d="M3114 4222 c3 -6 30 -18 58 -28 44 -14 76 -16 213 -11 88 4 174 11
190 15 l30 9 -40 6 c-82 13 -458 21 -451 9z"/>
<path d="M4885 4199 c65 -13 542 -23 530 -11 -6 6 -121 11 -290 14 -154 2
-262 1 -240 -3z"/>
<path d="M3940 4171 l-85 -6 115 -7 c153 -10 373 -8 310 2 -71 12 -247 18
-340 11z"/>
<path d="M0 4162 c0 -17 334 -27 835 -25 471 2 598 9 470 24 -33 4 -127 2
-210 -3 -149 -11 -965 -4 -1052 8 -26 4 -43 2 -43 -4z"/>
<path d="M6120 4149 c-41 -4 -264 -13 -495 -19 -231 -5 -424 -12 -430 -14 -29
-10 673 -16 775 -7 63 6 180 16 260 22 80 6 151 15 159 19 19 10 -172 9 -269
-1z"/>
<path d="M4700 4109 c-80 -3 -239 -10 -353 -14 -135 -5 -205 -11 -198 -18 16
-16 381 -13 561 6 91 9 181 18 200 20 86 7 -74 12 -210 6z"/>
<path d="M6369 4096 c-4 -4 -160 -15 -217 -16 -20 0 -31 -4 -27 -10 13 -21
275 -6 275 16 0 13 -21 19 -31 10z"/>
<path d="M540 4084 c-19 -3 -93 -8 -165 -12 -113 -6 -72 -9 330 -21 253 -7
493 -15 533 -18 48 -3 72 -1 72 6 0 6 -19 11 -44 11 -24 0 -102 6 -173 14
-129 15 -488 27 -553 20z"/>
<path d="M3560 4080 c-110 -9 176 -10 345 -1 126 7 124 8 -70 8 -110 -1 -234
-3 -275 -7z"/>
<path d="M5245 4081 c-11 -5 -38 -11 -60 -12 -22 -1 7 -5 65 -9 58 -4 175 -13
260 -20 98 -8 220 -10 331 -6 209 8 287 23 129 25 -58 0 -175 6 -260 11 -249
16 -443 21 -465 11z"/>
<path d="M6325 4026 c-38 -16 -21 -26 33 -19 26 4 42 11 42 19 0 17 -35 17
-75 0z"/>
<path d="M3618 4023 c-27 -2 -48 -8 -48 -12 0 -16 96 -21 390 -21 164 0 344
-5 401 -11 198 -20 487 -25 719 -12 193 11 240 11 333 -2 127 -18 371 -19 626
-4 204 12 281 28 141 29 -47 0 -227 3 -400 5 -173 2 -367 4 -430 5 -63 1 -149
-4 -190 -9 -96 -13 -441 -14 -590 -1 -293 26 -383 30 -635 34 -148 2 -291 2
-317 -1z"/>
<path d="M382 4012 c-16 -11 774 -32 853 -24 48 6 17 10 -155 20 -239 14 -678
16 -698 4z"/>
<path d="M500 3940 c-63 -4 -202 -8 -307 -9 -138 -1 -193 -4 -193 -12 0 -15
936 -7 951 8 6 6 -35 12 -118 16 -138 7 -158 7 -333 -3z"/>
<path d="M1385 3930 l-80 -6 97 -2 c56 -1 99 2 103 8 4 6 -4 9 -17 8 -13 -1
-59 -5 -103 -8z"/>
<path d="M5525 3909 c72 -4 173 -4 225 0 77 7 53 8 -130 8 -213 0 -218 0 -95
-8z"/>
<path d="M3720 3904 c0 -1 24 -10 54 -18 82 -24 390 -17 326 7 -15 6 -380 16
-380 11z"/>
<path d="M6305 3880 l-70 -6 83 -2 c49 -1 82 2 82 8 0 6 -6 9 -12 8 -7 -1 -44
-4 -83 -8z"/>
<path d="M0 3858 l0 -25 787 -6 c433 -3 789 -4 790 -3 2 1 -4 11 -11 22 -14
18 -36 19 -698 20 -376 1 -725 5 -776 9 l-92 7 0 -24z"/>
<path d="M4446 3852 c-3 -5 86 -12 197 -15 111 -4 231 -11 267 -17 36 -5 258
-10 493 -10 329 0 460 -4 565 -16 142 -17 248 -14 368 8 35 7 64 18 64 24 0 8
-13 9 -47 2 -79 -15 -280 -13 -413 4 -99 13 -264 18 -807 23 -381 3 -684 2
-687 -3z"/>
<path d="M4537 3791 c35 -16 247 -32 523 -39 310 -8 978 -1 903 11 -28 4 -249
7 -490 7 -263 -1 -470 3 -518 9 -111 15 -447 24 -418 12z"/>
<path d="M4092 3770 c-51 -5 -96 -11 -99 -14 -9 -8 194 -7 297 1 84 7 84 7 35
14 -61 9 -112 8 -233 -1z"/>
<path d="M635 3754 c-104 -6 -257 -15 -340 -18 -232 -10 -295 -16 -295 -29 0
-9 73 -10 294 -6 161 4 306 10 322 13 49 10 313 36 370 36 30 0 54 5 54 10 0
13 -158 11 -405 -6z"/>
<path d="M4585 3721 c-86 -6 -80 -7 120 -19 116 -7 264 -12 330 -11 l120 2
-75 12 c-91 16 -372 25 -495 16z"/>
<path d="M5465 3720 c-49 -5 -111 -15 -137 -22 -41 -11 -4 -13 269 -10 337 4
434 14 242 26 -228 13 -286 14 -374 6z"/>
<path d="M6363 3693 c9 -2 23 -2 30 0 6 3 -1 5 -18 5 -16 0 -22 -2 -12 -5z"/>
<path d="M1310 3654 c-58 -7 -112 -15 -120 -18 -8 -2 87 -4 212 -3 199 2 253
6 237 21 -13 12 -237 12 -329 0z"/>
<path d="M18 3653 c12 -2 32 -2 45 0 12 2 2 4 -23 4 -25 0 -35 -2 -22 -4z"/>
<path d="M600 3630 l-125 -19 165 4 c91 2 230 5 310 5 187 2 146 16 -67 23
-124 4 -185 2 -283 -13z"/>
<path d="M4105 3622 c-33 -8 -33 -28 0 -25 177 15 351 13 575 -7 287 -26 437
-32 462 -19 10 5 77 14 149 19 73 5 135 12 138 16 3 4 -79 4 -184 1 -104 -4
-296 -2 -425 3 -354 15 -681 20 -715 12z"/>
<path d="M6260 3610 c-9 -6 -14 -21 -12 -39 5 -48 -36 -51 -182 -15 -32 8 -60
13 -63 10 -10 -10 64 -39 112 -43 27 -3 54 -9 59 -14 6 -5 -15 -36 -51 -76
-43 -49 -74 -74 -109 -88 -27 -11 -74 -39 -106 -63 -58 -45 -125 -68 -321
-112 -161 -36 -510 -89 -722 -109 -249 -25 -275 -29 -275 -42 0 -8 156 -10
508 -6 452 4 522 7 642 26 158 25 285 26 465 6 165 -19 195 -19 195 -1 0 11
-20 16 -77 21 -43 4 -134 16 -203 27 -150 24 -297 20 -406 -11 -80 -23 -193
-37 -369 -46 -144 -7 -147 8 -5 25 102 13 225 35 415 75 208 44 418 44 623 0
17 -4 22 -1 22 13 0 17 -11 20 -82 25 -46 4 -114 14 -153 23 -38 9 -114 17
-168 19 -55 2 -101 6 -104 9 -3 2 10 13 29 23 29 16 55 18 208 16 165 -2 173
-1 135 13 -22 8 -56 17 -75 20 -58 10 -105 33 -92 46 8 8 27 6 74 -7 35 -10
100 -25 146 -34 l82 -17 0 27 c0 25 -5 28 -87 50 l-88 24 88 9 c102 10 114 27
32 45 -43 10 -63 10 -91 1 -36 -12 -56 -7 -38 9 5 5 48 21 97 36 l87 27 0 48
c0 45 -2 48 -31 54 -45 9 -92 7 -109 -4z"/>
<path d="M423 3603 c9 -2 25 -2 35 0 9 3 1 5 -18 5 -19 0 -27 -2 -17 -5z"/>
<path d="M13 3583 c9 -2 23 -2 30 0 6 3 -1 5 -18 5 -17 0 -22 -2 -12 -5z"/>
<path d="M5719 3576 c-11 -10 -256 -59 -359 -72 -146 -17 -253 -17 -355 1
-328 58 -735 78 -735 35 0 -4 17 -6 38 -3 20 3 143 -3 272 -12 212 -14 286
-23 515 -57 147 -22 445 17 593 77 23 9 42 21 42 26 0 10 -4 11 -11 5z"/>
<path d="M840 3485 c-8 -2 -127 -9 -265 -15 -137 -6 -254 -16 -260 -21 -5 -6
25 -7 80 -4 198 11 642 13 835 5 205 -9 390 -4 390 11 0 4 -44 10 -97 13 -124
7 -663 16 -683 11z"/>
<path d="M5914 3482 c3 -6 21 -13 39 -17 65 -13 69 -16 64 -42 l-4 -24 28 27
c16 15 26 30 24 34 -2 4 -24 10 -47 13 -24 4 -58 9 -77 13 -23 5 -32 4 -27 -4z"/>
<path d="M6350 3470 c-22 -7 -21 -8 13 -9 20 -1 37 4 37 9 0 11 -14 11 -50 0z"/>
<path d="M4375 3456 c-55 -15 -145 -50 -105 -41 14 4 153 9 310 12 264 6 281
8 230 20 -83 20 -373 26 -435 9z"/>
<path d="M5848 3423 c7 -3 16 -2 19 1 4 3 -2 6 -13 5 -11 0 -14 -3 -6 -6z"/>
<path d="M5917 3410 c18 -4 39 -13 48 -20 8 -6 20 -8 27 -4 15 9 -45 33 -82
32 -21 0 -19 -1 7 -8z"/>
<path d="M1095 3404 c-96 -6 -328 -34 -335 -41 -3 -3 76 -2 175 2 184 8 594 7
607 -1 11 -7 88 8 83 16 -9 15 -384 32 -530 24z"/>
<path d="M5865 3365 c-16 -8 -43 -17 -59 -20 -15 -3 -27 -8 -25 -10 9 -8 98
17 110 31 14 17 13 17 -26 -1z"/>
<path d="M5295 3360 c8 -12 371 -12 400 0 12 5 -65 9 -193 9 -140 1 -211 -2
-207 -9z"/>
<path d="M1055 3319 c-38 -5 -90 -15 -115 -23 -42 -15 -34 -15 135 -10 99 4
212 9 250 13 l70 7 -55 7 c-103 12 -215 14 -285 6z"/>
<path d="M5115 3290 c-21 -5 0 -9 70 -11 152 -4 349 1 381 11 36 11 -408 11
-451 0z"/>
<path d="M0 3273 c0 -14 13 -15 128 -10 70 4 186 8 257 9 l130 1 -95 7 c-52 4
-168 8 -257 9 -145 1 -163 -1 -163 -16z"/>
<path d="M5595 3249 c-22 -5 -177 -9 -345 -11 -168 -1 -291 -5 -275 -9 17 -3
66 -7 110 -8 55 -1 75 -5 64 -11 -27 -15 -179 -30 -429 -40 -129 -6 -238 -14
-243 -19 -18 -18 148 -24 307 -12 88 7 164 15 169 18 17 11 200 32 327 38 139
7 324 35 357 54 21 12 14 12 -42 0z"/>
<path d="M1540 3230 c-55 -6 -55 -6 -19 -14 46 -10 91 -5 97 12 2 6 -2 11 -10
10 -7 -1 -38 -4 -68 -8z"/>
<path d="M1208 3223 c7 -3 16 -2 19 1 4 3 -2 6 -13 5 -11 0 -14 -3 -6 -6z"/>
<path d="M0 3196 c0 -22 5 -24 63 -30 34 -4 109 -8 167 -10 69 -3 84 -2 42 3
-34 3 -62 11 -61 16 1 6 40 16 87 22 48 7 91 15 97 17 5 2 -81 5 -192 5 l-203
1 0 -24z"/>
<path d="M1100 3204 l-55 -13 53 5 c55 5 117 23 77 22 -11 0 -45 -6 -75 -14z"/>
<path d="M368 3163 c7 -3 16 -2 19 1 4 3 -2 6 -13 5 -11 0 -14 -3 -6 -6z"/>
<path d="M1575 3110 c-11 -5 -40 -10 -65 -11 -45 -2 -44 -2 18 -12 46 -7 66
-7 75 2 16 16 -3 31 -28 21z"/>
<path d="M68 3073 c7 -3 16 -2 19 1 4 3 -2 6 -13 5 -11 0 -14 -3 -6 -6z"/>
<path d="M135 3066 c6 -3 120 -10 255 -16 135 -6 351 -17 480 -25 572 -35 740
-39 740 -15 0 4 -89 10 -197 13 -109 4 -335 14 -503 22 -306 16 -794 29 -775
21z"/>
<path d="M5775 2978 c-38 -5 -275 -11 -525 -13 -572 -6 -540 -5 -540 -17 0 -6
52 -9 133 -8 72 2 191 -1 262 -5 82 -4 256 -1 471 9 188 9 381 16 430 16 119
0 139 15 32 23 -101 8 -171 7 -263 -5z"/>
<path d="M350 2945 c-74 -13 -74 -13 -25 -14 28 -1 82 -6 120 -11 39 -5 221
-14 405 -20 184 -6 360 -13 390 -15 30 -2 126 -7 213 -11 144 -6 157 -5 151
10 -5 14 -26 16 -153 16 -153 0 -292 10 -525 35 -202 21 -484 26 -576 10z"/>
<path d="M5739 2889 c110 -9 653 -27 660 -22 24 18 -221 33 -500 32 -226 -2
-249 -3 -160 -10z"/>
<path d="M155 2883 c-16 -2 -50 -6 -75 -10 l-45 -7 50 -7 c28 -4 219 -5 425
-1 l375 7 -150 11 c-138 11 -510 16 -580 7z"/>
<path d="M4805 2821 c-21 -5 1 -9 75 -14 131 -9 260 -27 260 -36 0 -4 62 -8
139 -9 76 0 167 -6 202 -11 77 -13 432 -13 694 -1 180 8 225 14 225 29 0 3
-102 4 -226 2 -230 -3 -650 12 -810 30 -109 12 -518 19 -559 10z"/>
<path d="M0 2805 c0 -13 22 -15 143 -14 184 1 228 13 83 22 -176 11 -226 9
-226 -8z"/>
<path d="M808 2783 c23 -2 61 -2 85 0 23 2 4 4 -43 4 -47 0 -66 -2 -42 -4z"/>
<path d="M1261 2776 c2 -2 85 -6 184 -9 108 -3 162 -2 135 3 -44 8 -328 14
-319 6z"/>
<path d="M4972 2750 c-51 -5 -96 -11 -100 -15 -9 -10 185 3 223 14 l30 9 -30
0 c-16 -1 -72 -4 -123 -8z"/>
<path d="M0 2735 c0 -17 22 -18 150 -8 80 7 82 8 40 14 -25 4 -78 8 -117 8
-59 1 -73 -2 -73 -14z"/>
<path d="M5415 2701 l-40 -8 41 -2 c23 0 66 -6 95 -11 136 -26 340 -41 600
-43 244 -2 304 2 288 17 -4 3 -169 14 -584 36 -320 17 -360 18 -400 11z"/>
<path d="M1000 2693 c-206 -2 -382 -6 -390 -11 -18 -9 243 -16 693 -20 285 -2
337 0 337 12 0 9 -15 15 -42 18 -47 5 -50 5 -598 1z"/>
<path d="M380 2654 c-13 -3 -347 -34 -370 -34 -6 0 -10 -7 -10 -15 0 -17 12
-18 100 -5 36 5 182 14 325 20 216 9 285 8 410 -5 265 -26 456 -36 540 -26 75
8 77 8 25 10 -60 1 -200 13 -415 35 -133 14 -573 29 -605 20z"/>
<path d="M4973 2593 c20 -2 54 -2 75 0 20 2 3 4 -38 4 -41 0 -58 -2 -37 -4z"/>
<path d="M5920 2592 c0 -12 231 -32 368 -32 89 0 112 3 112 14 0 7 -10 16 -22
20 -36 9 -458 7 -458 -2z"/>
<path d="M88 2573 c-49 -2 -88 -8 -88 -13 0 -6 1 -10 3 -11 1 -1 182 -5 402
-9 220 -5 425 -11 455 -14 68 -8 45 5 -55 30 -58 14 -119 18 -350 19 -154 1
-319 0 -367 -2z"/>
<path d="M5265 2553 c-143 -12 -255 -28 -255 -36 0 -6 39 -8 108 -4 116 7 285
27 278 34 -4 4 -99 9 -131 6z"/>
<path d="M5720 2510 c-268 -5 -366 -11 -490 -28 -198 -29 -190 -27 -160 -39
14 -6 122 -16 240 -22 118 -7 229 -14 245 -17 17 -3 136 -7 265 -9 153 -2 204
0 145 4 -131 11 -419 52 -428 61 -12 11 378 22 641 18 198 -3 222 -1 222 13 0
13 -19 17 -112 22 -62 4 -140 6 -173 5 -33 -1 -211 -5 -395 -8z"/>
<path d="M0 2494 c0 -19 53 -24 234 -23 224 0 189 18 -57 27 -128 5 -177 4
-177 -4z"/>
<path d="M1440 2463 c-25 -2 -49 -8 -54 -14 -6 -5 54 -9 159 -9 123 0 166 3
158 11 -12 12 -187 20 -263 12z"/>
<path d="M1545 2370 c-20 -5 9 -8 83 -9 69 -1 112 3 112 9 0 12 -149 12 -195
0z"/>
<path d="M0 2306 l0 -56 53 0 c118 1 309 21 417 45 63 13 93 22 65 19 -195
-21 -375 -28 -375 -15 0 4 64 14 143 21 78 7 149 16 157 21 9 5 -75 9 -200 9
-118 0 -225 3 -237 6 -22 6 -23 4 -23 -50z"/>
<path d="M5278 2353 c-146 -7 -78 -20 138 -27 235 -7 446 -22 491 -36 22 -6
12 -8 -44 -9 -40 -1 -73 -5 -73 -9 0 -21 264 -52 425 -51 l110 1 -145 24 c-80
12 -163 23 -185 24 l-40 2 32 10 c18 6 39 8 48 4 8 -3 75 -8 148 -10 73 -3
151 -8 175 -12 27 -4 42 -3 42 4 0 6 -30 13 -67 17 -130 12 -248 27 -283 35
-86 22 -567 42 -772 33z"/>
<path d="M980 2283 c-224 -22 -569 -78 -680 -110 -121 -35 -34 -25 410 51 80
14 201 33 270 44 108 17 108 26 0 15z"/>
<path d="M1683 2273 c20 -2 54 -2 75 0 20 2 3 4 -38 4 -41 0 -58 -2 -37 -4z"/>
<path d="M5445 2241 c-6 -5 -19 -11 -30 -14 -11 -3 0 -3 24 -1 24 2 88 4 142
4 59 0 99 4 99 10 0 13 -222 14 -235 1z"/>
<path d="M1665 2219 c11 -4 54 -8 95 -8 95 1 80 6 -30 12 -47 2 -76 0 -65 -4z"/>
<path d="M1555 2149 c-44 -4 -174 -13 -290 -19 -115 -7 -222 -15 -238 -18 -62
-15 581 5 763 23 14 2 39 4 55 5 l30 2 -30 8 c-38 10 -187 9 -290 -1z"/>
<path d="M5410 2130 c0 -5 9 -11 20 -11 11 -1 23 -2 28 -3 41 -10 240 -20 427
-21 184 -1 255 -6 355 -23 148 -26 160 -26 160 -8 0 16 -13 18 -195 41 -266
32 -795 49 -795 25z"/>
<path d="M58 2123 c-44 -3 -58 -8 -58 -20 0 -13 19 -14 163 -8 89 4 182 11
207 15 39 7 34 8 -40 9 -47 1 -114 3 -150 5 -36 2 -91 2 -122 -1z"/>
<path d="M1725 2090 c-44 -5 -195 -11 -335 -15 -140 -3 -366 -13 -502 -21
-136 -8 -391 -14 -567 -14 l-321 0 0 -22 0 -21 257 7 c142 4 294 11 338 16 44
5 287 14 540 19 432 10 680 22 750 38 l30 7 -30 7 c-37 8 -58 8 -160 -1z"/>
<path d="M5496 2020 c30 -30 253 -68 471 -80 186 -10 300 -28 385 -60 l48 -18
0 24 c0 31 -23 40 -165 66 -83 16 -159 21 -310 23 -179 2 -211 5 -307 28 -119
30 -137 32 -122 17z"/>
<path d="M985 1999 c-137 -4 -324 -12 -415 -18 -91 -6 -256 -11 -367 -11 -201
0 -203 0 -203 -21 l0 -22 243 7 c133 4 404 10 602 14 198 5 365 11 370 14 6 3
64 14 130 23 66 9 122 18 124 21 5 5 -157 3 -484 -7z"/>
<path d="M6310 2000 c0 -5 13 -10 29 -10 16 0 36 -3 45 -6 11 -4 16 -1 16 10
0 12 -10 16 -45 16 -25 0 -45 -4 -45 -10z"/>
<path d="M1845 1933 c-16 -2 -124 -15 -240 -29 -115 -14 -212 -27 -214 -30
-11 -11 144 -2 349 21 124 14 231 25 238 25 6 0 12 5 12 10 0 10 -81 11 -145
3z"/>
<path d="M569 1896 c-3 -4 -133 -6 -287 -6 -276 0 -282 -1 -282 -21 0 -20 4
-20 521 -17 l521 3 -74 18 c-72 19 -386 36 -399 23z"/>
<path d="M5640 1895 c0 -10 77 -37 130 -46 30 -4 134 -17 230 -28 104 -12 220
-33 285 -50 60 -17 111 -28 113 -26 15 15 -17 33 -94 53 -49 13 -105 28 -124
33 -19 5 -116 16 -214 25 -99 8 -210 22 -248 29 -78 17 -78 17 -78 10z"/>
<path d="M1770 1810 c-36 -5 -159 -16 -275 -25 -115 -9 -212 -19 -215 -22 -9
-10 304 6 430 22 69 9 168 20 220 24 l95 8 -95 0 c-52 0 -124 -3 -160 -7z"/>
<path d="M13 1803 c9 -2 23 -2 30 0 6 3 -1 5 -18 5 -17 0 -22 -2 -12 -5z"/>
<path d="M5755 1789 c-7 -11 43 -27 155 -48 180 -34 354 -78 418 -105 74 -31
72 -31 72 -6 0 11 -12 25 -27 34 -86 43 -604 149 -618 125z"/>
<path d="M358 1763 c23 -2 61 -2 85 0 23 2 4 4 -43 4 -47 0 -66 -2 -42 -4z"/>
<path d="M2045 1760 c-22 -4 -92 -11 -155 -14 -115 -7 -286 -22 -364 -32 -134
-18 -218 -32 -223 -38 -10 -9 31 -7 162 8 66 8 165 17 220 21 217 14 390 37
425 56 19 11 -7 10 -65 -1z"/>
<path d="M1918 1685 c-3 -3 -117 -17 -254 -30 -285 -28 -420 -43 -450 -50 -12
-2 -39 -7 -60 -11 -69 -11 -51 -17 31 -11 285 22 621 58 720 78 28 5 93 13
145 18 l95 8 -111 2 c-61 0 -113 -1 -116 -4z"/>
<path d="M1253 1663 c9 -2 23 -2 30 0 6 3 -1 5 -18 5 -16 0 -22 -2 -12 -5z"/>
<path d="M630 1635 c-69 -7 -219 -18 -334 -25 -115 -7 -220 -16 -235 -20 -44
-12 286 -20 419 -10 69 5 170 16 225 25 55 8 153 18 218 22 64 3 117 10 117
15 0 12 -264 8 -410 -7z"/>
<path d="M875 1544 l-80 -13 74 5 c40 2 81 9 90 14 19 11 20 11 -84 -6z"/>
<path d="M708 1523 c18 -2 45 -2 60 0 15 2 0 4 -33 4 -33 0 -45 -2 -27 -4z"/>
<path d="M1315 1370 c-32 -14 -81 -58 -73 -66 4 -4 26 5 48 21 63 44 76 67 25
45z"/>
<path d="M908 1345 c-6 -6 -175 -30 -318 -45 -54 -6 -159 -6 -285 1 -110 6
-220 9 -245 7 -27 -2 -2 -6 65 -10 61 -4 182 -17 270 -28 88 -11 198 -22 244
-23 93 -2 119 -19 49 -32 l-43 -8 40 -8 c22 -4 56 -8 76 -8 32 -1 49 -13 49
-37 0 -2 -24 -4 -52 -4 -103 0 -108 -11 -17 -37 46 -13 93 -30 104 -37 50 -31
104 -45 155 -39 60 7 60 7 -52 83 -51 35 -94 74 -116 104 -18 26 -32 49 -30
50 2 0 37 18 78 38 44 21 66 37 54 37 -11 1 -23 -1 -26 -4z"/>
<path d="M6309 1310 c-41 -21 -109 -49 -151 -63 -41 -14 -106 -43 -143 -66
-38 -22 -83 -44 -102 -47 -18 -3 -35 -10 -38 -14 -8 -14 76 1 155 27 41 13
113 36 160 49 103 30 148 58 178 113 13 22 22 41 20 41 -2 -1 -37 -18 -79 -40z"/>
<path d="M6325 1205 c-119 -67 -476 -143 -499 -106 -5 7 -40 11 -93 11 -76 0
-93 -4 -152 -32 l-66 -32 84 -8 c47 -5 87 -10 89 -13 13 -13 -17 -19 -121 -26
-137 -9 -252 -31 -305 -58 -22 -11 -77 -52 -122 -91 -93 -80 -113 -92 -190
-111 -74 -18 -271 -16 -390 5 -52 9 -104 16 -115 15 -38 -1 76 -39 159 -54 89
-15 120 -14 346 10 329 36 308 32 405 80 90 44 145 59 151 40 2 -5 -16 -18
-41 -29 -25 -10 -74 -44 -110 -76 -53 -49 -78 -63 -142 -83 -115 -37 -245 -50
-439 -45 -158 5 -177 7 -293 42 -110 32 -138 36 -233 36 -60 0 -150 -7 -201
-15 -231 -36 -360 -45 -680 -45 -190 0 -386 -6 -477 -14 -85 -8 -194 -12 -242
-9 -84 6 -342 -12 -395 -26 -19 -5 -1 -11 73 -24 55 -10 122 -23 149 -30 63
-15 243 -15 270 0 40 22 248 45 403 45 190 -1 321 -20 566 -82 342 -87 427
-93 1061 -81 134 3 232 -1 330 -12 169 -20 358 -33 605 -44 203 -8 181 -17
-54 -21 -77 -2 -143 -5 -147 -7 -4 -3 -96 0 -206 6 -109 5 -421 14 -693 19
-483 8 -702 22 -775 50 -120 46 -409 105 -590 121 -152 14 -344 0 -438 -32
-34 -11 -86 -25 -117 -30 -68 -11 -242 4 -376 32 -150 31 -564 42 -1244 34
-311 -4 -601 -10 -645 -14 -102 -9 775 -25 1190 -22 344 2 468 -8 650 -51 169
-39 372 -48 545 -24 131 18 263 20 509 6 253 -15 301 -24 411 -75 116 -53 175
-70 305 -87 124 -15 534 -14 850 3 178 10 266 10 390 1 193 -14 445 -15 621
-3 119 9 379 20 467 21 l37 0 0 65 0 65 -37 -5 c-107 -13 -169 -14 -283 -5
-69 6 -165 13 -213 17 -157 11 -103 23 104 23 111 0 253 5 315 12 113 12 114
12 114 37 l0 26 -127 -3 c-71 -1 -200 -7 -288 -13 -88 -6 -266 -10 -395 -10
-161 1 -278 -4 -373 -15 -121 -14 -167 -15 -370 -5 -128 7 -268 16 -312 21
-44 5 -144 9 -222 9 -97 1 -143 5 -143 12 0 14 333 6 445 -11 104 -16 459 -7
575 14 60 11 149 16 305 16 121 0 299 7 395 15 96 8 250 17 343 21 l167 6 0
27 0 26 -120 -3 c-125 -3 -164 10 -62 22 31 4 85 11 120 17 l62 11 0 39 c0 46
1 46 -140 24 -52 -9 -178 -24 -280 -35 -279 -30 -338 -38 -427 -60 -73 -17
-283 -44 -290 -36 -2 1 16 8 39 15 24 7 88 34 143 61 128 62 136 64 345 95
176 26 461 71 535 85 36 7 34 8 -25 8 -139 2 -376 -18 -450 -37 -41 -11 -76
-18 -79 -16 -2 3 31 21 75 42 l78 37 221 7 c121 4 228 8 238 8 10 1 17 9 17
20 0 17 -8 20 -52 23 l-53 3 53 24 c45 21 52 29 52 53 0 15 -2 28 -4 28 -2 0
-32 -13 -67 -29 -34 -17 -96 -37 -138 -46 -42 -9 -99 -24 -128 -32 -101 -29
-210 -42 -333 -42 -136 1 -131 12 12 24 122 10 423 84 343 84 -11 1 -76 -6
-144 -14 -182 -22 -174 -5 17 35 57 12 136 33 175 46 40 14 101 27 137 30 137
11 130 7 130 74 0 33 -3 60 -7 59 -5 0 -35 -16 -68 -34z m-1800 -634 c29 -6 0
-9 -105 -9 -80 0 -131 3 -115 7 47 10 176 11 220 2z m-369 -74 c4 -4 -5 -7
-19 -7 -15 0 -27 4 -27 8 0 10 36 9 46 -1z"/>
<path d="M150 1210 c36 -4 92 -8 125 -7 l60 0 -60 7 c-33 4 -89 8 -125 7 l-65
0 65 -7z"/>
<path d="M0 945 c0 -23 4 -25 48 -25 26 0 92 -7 147 -15 55 -8 165 -17 245
-19 l145 -5 -90 15 c-49 9 -164 29 -255 45 -91 16 -183 29 -203 29 -33 0 -37
-3 -37 -25z"/>
<path d="M4485 901 c-169 -38 -235 -55 -235 -63 0 -4 14 -8 31 -8 17 0 130
-14 251 -31 l220 -31 92 17 c135 26 146 36 33 30 -55 -4 -105 -9 -113 -12 -8
-3 -14 0 -14 6 0 6 9 11 19 11 44 0 272 83 259 94 -1 2 -35 -2 -75 -9 -58 -10
-93 -10 -185 1 -145 17 -185 16 -283 -5z"/>
<path d="M0 860 c0 -5 25 -10 56 -10 34 0 53 4 49 10 -3 6 -28 10 -56 10 -27
0 -49 -4 -49 -10z"/>
<path d="M6386 841 c-6 -8 -103 -25 -216 -37 -36 -3 -117 -17 -180 -31 -63
-13 -131 -27 -150 -30 -25 -5 -29 -8 -17 -12 29 -10 183 6 326 34 74 14 161
28 193 32 53 5 58 8 58 29 0 25 -5 30 -14 15z"/>
<path d="M3173 833 c26 -2 67 -2 90 0 23 2 2 3 -48 3 -49 0 -68 -1 -42 -3z"/>
<path d="M5190 715 c-175 -23 -414 -45 -505 -46 -87 -1 -89 -1 -57 -15 18 -8
66 -20 106 -26 63 -10 94 -8 227 11 196 28 277 47 314 71 17 11 26 19 20 19
-5 -1 -53 -7 -105 -14z"/>
<path d="M570 624 c-379 -24 -368 -31 50 -33 212 -1 450 -6 530 -11 204 -13
676 -24 668 -15 -12 13 -201 34 -405 45 -111 6 -235 15 -275 20 -97 13 -317
10 -568 -6z"/>
<path d="M0 441 c0 -11 61 -21 120 -20 42 1 41 2 -25 14 -87 17 -95 17 -95 6z"/>
<path d="M1140 405 c49 -8 158 -13 260 -13 l175 1 -148 7 c-82 4 -199 10 -260
13 l-112 5 85 -13z"/>
<path d="M1750 401 l-75 -6 75 -7 c41 -4 158 -12 260 -18 102 -6 201 -13 220
-17 58 -10 26 7 -52 28 -81 21 -301 31 -428 20z"/>
<path d="M503 393 c15 -2 39 -2 55 0 15 2 2 4 -28 4 -30 0 -43 -2 -27 -4z"/>
<path d="M2922 340 c-68 -5 -126 -11 -129 -13 -2 -3 31 -8 74 -11 471 -38 640
-63 805 -116 147 -47 345 -88 479 -100 155 -13 471 -5 639 18 106 14 198 17
605 14 282 -2 588 2 743 9 261 12 262 12 262 35 0 21 -4 22 -112 26 -62 3
-205 0 -318 -6 -113 -6 -369 -10 -570 -8 -238 2 -490 -3 -725 -14 -479 -22
-674 -9 -864 57 -183 64 -239 81 -316 96 -97 18 -402 25 -573 13z"/>
<path d="M1755 307 c-66 -5 -248 -9 -405 -7 -613 6 -1277 0 -1304 -10 -17 -7
-12 -9 24 -10 25 0 63 -5 85 -12 26 -7 226 -12 560 -15 286 -3 581 -5 655 -6
74 -1 221 2 325 7 194 9 295 3 712 -39 78 -8 245 -19 370 -25 267 -11 427 -29
648 -70 88 -16 277 -42 420 -56 332 -34 687 -37 1235 -10 371 19 399 19 775 2
427 -18 545 -15 545 15 0 18 -16 19 -322 18 -178 -1 -397 4 -488 10 -315 21
-563 13 -925 -28 -116 -14 -530 -14 -575 -1 -19 6 -111 19 -205 30 -213 26
-220 27 -330 56 -203 53 -429 79 -810 94 -137 5 -380 23 -540 40 -159 16 -299
29 -310 28 -11 0 -74 -5 -140 -11z"/>
<path d="M795 191 l-90 -6 85 -7 c47 -4 314 -11 593 -14 280 -4 505 -10 500
-14 -13 -12 -259 -50 -406 -62 -139 -12 -265 -8 -712 23 -105 7 -186 7 -235 1
l-75 -9 65 -2 c36 -1 153 -8 260 -17 294 -23 806 -23 1000 -1 297 34 381 37
605 22 308 -22 410 -33 605 -68 163 -28 194 -30 450 -33 168 -1 255 1 225 6
-27 4 -117 18 -200 30 -82 12 -166 25 -186 31 -59 15 -322 48 -514 63 -99 8
-256 22 -350 31 -262 23 -547 34 -675 24 -153 -12 -394 -11 -620 1 -102 5
-196 9 -210 8 -14 -1 -65 -4 -115 -7z"/>
<path d="M1785 25 c-126 -7 -248 -15 -270 -18 -22 -2 264 -4 635 -4 601 0 665
1 580 13 -144 20 -674 25 -945 9z"/>
<path d="M4800 10 c-30 -4 217 -7 550 -7 333 0 562 4 510 7 -119 10 -985 9
-1060 0z"/>
</g>
</svg>
