<?xml version="1.0" standalone="no"?>
<!DOCTYPE svg PUBLIC "-//W3C//DTD SVG 20010904//EN"
 "http://www.w3.org/TR/2001/REC-SVG-20010904/DTD/svg10.dtd">
<svg version="1.0" xmlns="http://www.w3.org/2000/svg"
 width="645.000000pt" height="645.000000pt" viewBox="0 0 645.000000 645.000000"
 preserveAspectRatio="xMidYMid meet">
<metadata>
Created by potrace 1.14, written by Peter Selinger 2001-2017
</metadata>
<g transform="translate(0.000000,645.000000) scale(0.100000,-0.100000)"
fill="#000000" stroke="none">
<path d="M3133 6426 c-28 -12 -55 -25 -60 -30 -13 -14 62 3 129 29 l63 24 -40
0 c-22 -1 -63 -11 -92 -23z"/>
<path d="M3810 6435 c-14 -8 -78 -40 -143 -72 -65 -32 -113 -59 -107 -61 7 -3
80 30 164 71 83 42 142 76 131 76 -11 0 -31 -6 -45 -14z"/>
<path d="M4285 6440 c-4 -6 5 -10 19 -10 18 0 26 -5 26 -17 0 -13 3 -14 12 -5
9 9 8 15 -8 27 -22 17 -40 19 -49 5z"/>
<path d="M4725 6439 c-11 -17 1 -21 15 -4 8 9 8 15 2 15 -6 0 -14 -5 -17 -11z"/>
<path d="M4830 6439 c0 -5 5 -7 10 -4 6 3 10 8 10 11 0 2 -4 4 -10 4 -5 0 -10
-5 -10 -11z"/>
<path d="M4926 6438 c-3 -7 -14 -42 -25 -77 -22 -69 -27 -102 -12 -85 8 9 71
158 71 168 0 12 -31 6 -34 -6z"/>
<path d="M5530 6440 c0 -19 32 -90 41 -90 12 0 11 30 -2 69 -10 28 -39 44 -39
21z"/>
<path d="M6108 6443 c7 -3 16 -2 19 1 4 3 -2 6 -13 5 -11 0 -14 -3 -6 -6z"/>
<path d="M6190 6435 c0 -8 -7 -15 -15 -15 -17 0 -19 -9 -6 -28 6 -10 11 -8 23
10 29 45 29 48 14 48 -9 0 -16 -7 -16 -15z"/>
<path d="M4998 6409 c-29 -60 -79 -220 -75 -237 5 -21 38 52 73 160 29 88 30
136 2 77z"/>
<path d="M5450 6424 c0 -26 22 -94 31 -94 17 0 18 20 3 64 -16 45 -34 62 -34
30z"/>
<path d="M5060 6388 c0 -17 -11 -63 -24 -102 -34 -102 -39 -129 -25 -124 7 2
25 49 39 104 14 54 31 109 38 120 12 23 7 34 -15 34 -8 0 -13 -12 -13 -32z"/>
<path d="M5140 6378 l0 -33 20 25 c25 32 25 40 0 40 -16 0 -20 -7 -20 -32z"/>
<path d="M5241 6401 c-19 -12 -6 -81 16 -81 11 0 13 5 7 18 -4 9 -7 29 -7 45
0 15 0 27 -1 27 -1 0 -7 -4 -15 -9z"/>
<path d="M5360 6401 c0 -6 5 -13 10 -16 6 -3 10 -19 10 -36 0 -19 5 -29 15
-29 16 0 21 43 9 74 -7 17 -44 22 -44 7z"/>
<path d="M4270 6390 c-35 -7 -35 -7 -5 -9 17 0 37 4 45 9 17 11 11 11 -40 0z"/>
<path d="M5310 6368 c0 -18 5 -40 10 -48 7 -11 10 -2 10 33 0 26 -4 47 -10 47
-5 0 -10 -15 -10 -32z"/>
<path d="M6315 6370 c-3 -5 -2 -10 4 -10 5 0 13 5 16 10 3 6 2 10 -4 10 -5 0
-13 -4 -16 -10z"/>
<path d="M5890 6316 c0 -16 87 -116 101 -116 11 0 12 27 2 32 -5 2 -25 24 -46
51 -39 48 -57 58 -57 33z"/>
<path d="M4451 6260 c-44 -56 -35 -70 14 -20 26 27 36 43 29 50 -7 7 -21 -3
-43 -30z"/>
<path d="M6240 6287 c0 -8 9 -22 20 -32 19 -18 20 -17 20 3 0 12 -9 26 -20 32
-16 8 -20 8 -20 -3z"/>
<path d="M5321 6274 c0 -11 3 -14 6 -6 3 7 2 16 -1 19 -3 4 -6 -2 -5 -13z"/>
<path d="M5390 6261 c0 -11 5 -23 10 -26 6 -3 10 3 10 14 0 11 -4 23 -10 26
-5 3 -10 -3 -10 -14z"/>
<path d="M5795 6249 c-4 -6 -5 -13 -2 -16 7 -7 27 6 27 18 0 12 -17 12 -25 -2z"/>
<path d="M4535 6203 c-38 -51 -38 -56 3 -22 23 19 42 37 42 42 0 16 -26 5 -45
-20z"/>
<path d="M6317 6203 c-12 -11 -8 -23 8 -23 8 0 15 7 15 15 0 16 -12 20 -23 8z"/>
<path d="M4616 6154 c-3 -9 -6 -23 -6 -32 0 -12 4 -9 13 8 8 14 19 24 25 23 7
-2 12 2 12 7 0 16 -37 11 -44 -6z"/>
<path d="M6026 6162 c-7 -12 22 -38 31 -28 4 3 0 14 -9 22 -9 10 -18 12 -22 6z"/>
<path d="M5640 6142 c0 -5 7 -30 16 -56 9 -26 15 -48 13 -50 -2 -2 -23 -1 -47
2 -40 4 -42 6 -48 43 -4 21 -11 39 -16 39 -5 0 -6 -19 -2 -45 4 -30 3 -45 -4
-45 -18 0 -49 -38 -119 -145 -36 -55 -78 -118 -93 -140 l-27 -39 -86 2 -86 2
-34 -43 c-50 -62 -57 -79 -57 -146 l0 -61 -92 -107 c-96 -113 -158 -182 -292
-323 -45 -47 -106 -112 -136 -145 -30 -33 -120 -130 -201 -215 -80 -85 -216
-232 -302 -326 -184 -203 -235 -249 -304 -280 -48 -21 -310 -104 -423 -134
-62 -16 -249 -93 -345 -142 -151 -77 -325 -206 -460 -342 -120 -121 -488 -556
-817 -966 -181 -226 -251 -301 -381 -408 -72 -59 -174 -145 -227 -192 -259
-229 -396 -341 -442 -363 -49 -23 -136 -45 -250 -62 -104 -15 -208 -47 -313
-94 l-65 -30 0 -70 c0 -39 1 -71 3 -71 1 0 20 7 42 14 55 20 93 10 140 -35 22
-21 63 -48 90 -60 28 -12 79 -35 115 -51 103 -47 197 -68 308 -66 111 2 142
-7 297 -83 81 -40 116 -51 184 -60 46 -5 119 -23 161 -40 42 -16 114 -39 161
-50 84 -22 85 -22 233 -4 156 18 216 17 396 -11 108 -16 367 -19 450 -4 30 5
90 16 133 24 80 14 136 11 264 -14 59 -12 122 -10 283 6 35 4 51 2 45 -4 -11
-11 -134 -42 -165 -42 -11 0 -20 -5 -20 -11 0 -8 56 -10 193 -6 203 5 309 24
346 62 15 16 15 17 0 12 -35 -12 -109 -19 -109 -10 0 23 368 92 550 104 149 9
224 26 311 69 91 47 127 110 73 130 -14 6 -99 10 -190 10 l-164 0 -27 -30
c-14 -17 -44 -36 -66 -42 -28 -8 -46 -23 -63 -49 -27 -44 -86 -66 -259 -98
-132 -25 -467 -72 -472 -67 -7 7 82 25 252 51 93 14 196 35 229 46 76 26 156
66 156 79 0 14 -1 14 -140 -21 -106 -27 -153 -33 -305 -39 -141 -6 -195 -13
-248 -30 -73 -23 -104 -20 -46 4 71 29 159 46 301 55 133 9 159 14 284 56 176
58 284 105 284 123 0 7 -13 19 -30 25 -35 13 -39 41 -8 58 18 10 32 6 94 -26
l74 -38 182 -8 c101 -4 193 -10 206 -14 43 -14 22 14 -39 50 -42 24 -82 38
-132 46 -40 6 -113 26 -162 45 -50 18 -105 36 -123 40 -17 4 -32 11 -32 16 0
17 38 59 44 49 8 -12 146 -57 341 -111 153 -42 272 -87 313 -118 l23 -18 -22
-28 c-12 -16 -36 -35 -53 -43 -17 -7 -57 -35 -89 -62 -31 -26 -99 -71 -150
-99 -96 -52 -129 -61 -312 -77 -194 -18 -336 -49 -455 -101 -152 -66 -213 -77
-404 -72 -163 5 -236 17 -236 39 0 6 6 9 13 7 7 -2 15 1 17 7 3 5 -40 22 -95
38 -83 23 -115 27 -185 24 -125 -5 -414 -41 -362 -45 81 -6 41 -20 -78 -27
-159 -10 -159 -29 0 -55 41 -6 122 -23 180 -37 174 -41 198 -44 390 -53 102
-5 248 -14 325 -20 77 -6 278 -12 447 -15 168 -2 402 -12 520 -21 261 -21 380
-20 478 1 139 30 225 36 446 31 467 -12 1055 -17 1182 -11 116 6 132 9 132 24
0 16 -27 18 -342 25 -421 10 -510 19 -283 29 88 4 214 7 280 7 66 0 171 3 233
7 100 5 112 8 112 25 0 17 -13 18 -237 18 -227 0 -397 13 -417 31 -17 15 -38
10 -121 -30 -104 -51 -190 -69 -391 -83 -147 -10 -185 -9 -366 10 -448 47
-627 49 -818 9 -130 -27 -165 -30 -290 -27 -73 2 -72 3 50 15 73 7 158 23 205
37 167 53 313 63 607 43 162 -11 244 -21 290 -35 142 -44 414 -34 556 21 58
22 86 40 121 78 61 65 107 78 341 96 162 13 333 32 438 50 26 5 32 11 32 30 0
14 -1 25 -3 25 -22 0 -197 -25 -277 -40 -58 -11 -159 -24 -225 -29 -143 -13
-234 -40 -325 -99 -70 -47 -122 -64 -250 -87 -112 -20 -116 -19 -47 9 59 25
109 58 163 108 35 33 356 159 457 179 31 6 57 16 57 20 0 11 -11 11 -110 0
-113 -12 -359 -108 -466 -182 -24 -16 -100 -46 -180 -70 -130 -38 -149 -42
-289 -46 -82 -2 -168 0 -190 5 -34 9 -25 10 65 11 183 2 383 54 528 138 45 27
56 49 20 40 -13 -3 -70 -22 -128 -41 -105 -36 -146 -44 -135 -27 3 5 67 49
143 97 175 111 192 126 192 177 0 76 -34 114 -154 166 -81 36 -218 78 -376
117 -30 8 -118 23 -195 35 -77 11 -144 25 -149 30 -12 11 -1 11 84 -1 170 -23
493 -83 636 -119 193 -48 264 -57 558 -72 268 -14 466 -5 466 20 0 3 -66 6
-147 6 -270 1 -557 14 -641 30 -46 9 -132 34 -193 55 -76 27 -152 46 -247 60
-75 11 -164 24 -197 30 -76 13 -432 33 -505 28 l-55 -3 75 -27 c109 -39 247
-73 395 -98 153 -25 289 -62 357 -96 64 -32 148 -113 148 -142 0 -70 -109
-198 -205 -243 -119 -55 -144 -47 -30 10 80 39 144 87 154 114 29 79 22 97
-43 104 l-46 4 0 -48 c0 -66 -27 -93 -132 -132 -46 -18 -103 -40 -128 -51 -85
-37 -274 -79 -405 -90 -123 -10 -256 -12 -205 -3 14 2 119 20 235 39 150 24
224 41 260 59 52 25 144 110 132 121 -10 10 -78 -12 -177 -55 -102 -46 -189
-75 -197 -67 -3 3 14 14 38 24 24 11 82 37 129 59 84 40 188 77 243 88 16 3
40 17 53 30 24 24 24 26 9 62 -34 81 -77 101 -311 148 -123 25 -203 47 -267
75 -51 21 -135 48 -187 60 -52 12 -99 26 -104 30 -8 8 97 178 190 305 259 355
375 571 420 780 21 98 32 339 23 475 -39 558 -39 560 81 762 132 220 751 1139
843 1251 34 42 43 47 78 47 51 0 97 20 132 57 35 37 43 85 24 140 l-14 41 94
94 c108 106 153 169 153 210 0 101 -211 324 -407 429 -23 13 -35 32 -53 83
-13 36 -30 66 -37 66 -7 0 -13 -4 -13 -8z m40 -181 c118 -53 229 -137 314
-236 111 -131 116 -156 47 -233 l-38 -43 -22 34 c-30 50 -26 66 9 32 31 -30
42 -25 13 7 -18 20 -5 25 16 6 14 -13 -13 35 -35 62 -6 8 -15 26 -18 40 -5 19
5 12 49 -34 30 -33 55 -54 55 -47 0 35 -72 142 -140 210 -91 89 -180 137 -180
96 0 -14 -4 -14 -31 1 -17 8 -41 13 -52 10 -11 -3 -38 4 -60 15 -44 21 -88 27
-52 7 58 -32 124 -81 129 -94 5 -13 -1 -12 -28 4 -42 25 -120 48 -96 29 8 -7
23 -25 33 -40 l18 -28 -25 16 c-27 18 -36 9 -13 -14 10 -10 9 -11 -5 -6 -10 4
-18 17 -18 29 0 27 -15 52 -24 38 -3 -6 -3 -18 1 -28 5 -15 2 -16 -33 -10 -37
7 -36 6 20 -22 68 -34 59 -55 -9 -23 -63 29 -67 26 -12 -9 55 -35 59 -44 16
-35 -22 5 -29 4 -25 -4 4 -6 5 -11 3 -11 -12 0 -97 42 -97 48 0 4 14 20 30 36
17 16 30 35 30 42 0 7 27 49 61 94 l61 82 41 -5 c23 -2 53 -10 67 -16z m-246
-280 c47 -33 82 -69 56 -59 -114 46 -134 60 -113 81 9 10 11 10 57 -22z m301
-11 c3 -5 1 -10 -4 -10 -6 0 -11 5 -11 10 0 6 2 10 4 10 3 0 8 -4 11 -10z
m-392 -40 c141 -44 258 -112 357 -209 186 -182 214 -319 64 -314 -53 2 -53 1
-105 -55 -29 -31 -61 -72 -73 -91 l-20 -34 -15 24 c-19 30 -102 114 -156 158
-35 28 -37 31 -12 21 38 -14 153 -97 172 -123 13 -19 17 -20 25 -7 15 23 12
37 -10 43 -28 7 -25 27 5 27 14 0 25 -5 25 -12 0 -6 14 8 31 32 33 45 33 51
-8 110 -12 18 -6 15 23 -11 52 -49 84 -65 84 -44 0 9 -7 30 -16 48 -15 28 -11
26 30 -17 45 -47 47 -48 71 -32 34 23 32 44 -14 112 -80 120 -191 216 -326
282 -108 53 -275 91 -275 62 0 -6 12 -16 28 -22 91 -37 164 -74 210 -105 28
-20 52 -38 52 -39 0 -2 -48 21 -107 51 -113 57 -163 74 -163 57 0 -5 12 -14
28 -20 15 -5 43 -24 62 -42 32 -30 33 -32 10 -25 -14 4 -35 13 -47 21 -26 16
-33 17 -33 6 0 -5 18 -19 41 -31 22 -13 38 -25 36 -27 -2 -2 -37 3 -77 11 -68
14 -106 15 -62 1 18 -6 88 -66 77 -66 -3 0 -22 7 -42 15 -47 20 -53 19 -23 -6
l25 -20 -40 16 c-22 9 -47 19 -55 21 -13 4 -13 4 0 -6 8 -6 41 -27 73 -46 32
-20 56 -38 54 -40 -2 -2 -30 5 -63 16 -83 29 -99 21 -41 -20 46 -33 51 -54 8
-31 -11 6 -32 11 -48 11 -25 0 -23 -3 26 -31 29 -17 76 -37 103 -46 56 -16 62
-28 7 -13 -56 16 -159 27 -159 18 0 -4 6 -8 13 -8 19 0 193 -77 239 -107 24
-14 66 -48 95 -76 60 -56 60 -54 -12 -142 -23 -29 -54 -78 -69 -108 -21 -46
-122 -198 -144 -217 -11 -10 83 157 117 208 63 92 73 111 69 128 -2 12 -13 2
-35 -32 -80 -120 -225 -333 -253 -369 -16 -22 -66 -87 -111 -145 -44 -58 -92
-124 -106 -147 -28 -49 -35 -51 -70 -23 -14 11 -33 20 -42 20 -9 0 0 -11 22
-27 20 -14 37 -32 37 -39 0 -7 -19 -37 -43 -66 -24 -29 -63 -80 -87 -113 -24
-33 -79 -102 -121 -153 -79 -94 -171 -254 -155 -269 5 -4 11 -2 13 4 3 7 24
34 49 59 24 26 44 51 44 56 0 4 5 8 11 8 7 0 9 -9 4 -22 -20 -69 -25 -113 -35
-313 -12 -242 -29 -359 -67 -450 -26 -61 -54 -147 -50 -151 5 -5 65 143 83
205 11 36 25 66 32 69 16 5 15 -13 -1 -30 -23 -22 -28 -63 -12 -94 12 -26 12
-39 -1 -104 -9 -40 -27 -103 -41 -139 -14 -36 -33 -91 -44 -122 -24 -72 -98
-229 -108 -229 -4 0 -19 12 -33 28 -15 15 -42 38 -62 52 -19 14 -36 32 -36 40
0 14 -19 28 -151 112 -72 47 -228 194 -235 224 -4 16 3 36 24 66 57 83 102
156 112 182 11 30 22 33 40 11 19 -23 150 -118 156 -113 7 8 -88 93 -134 119
-36 20 -42 29 -42 57 0 37 8 39 41 14 13 -10 56 -39 94 -66 l70 -47 -69 64
c-37 35 -81 71 -96 81 l-28 16 -53 -97 c-57 -107 -138 -233 -149 -233 -16 0
-98 82 -170 171 -44 53 -102 116 -130 140 -29 24 -82 74 -118 111 -106 105
-213 199 -240 209 -56 22 -164 -43 -224 -133 -10 -15 -28 -28 -40 -30 -16 -2
-32 -19 -50 -53 -15 -28 -56 -85 -92 -127 -36 -43 -79 -106 -95 -142 -17 -35
-43 -79 -58 -97 -33 -39 -77 -98 -112 -149 -13 -19 -41 -53 -62 -75 -22 -22
-55 -70 -74 -106 -23 -45 -47 -74 -74 -92 -21 -14 -56 -47 -77 -74 -80 -99
-165 -187 -248 -257 -47 -40 -99 -91 -116 -114 -35 -48 -528 -542 -541 -542
-20 0 -6 37 27 70 20 19 40 44 46 55 18 32 68 96 119 150 26 28 71 84 101 125
29 41 112 152 184 245 72 94 162 215 199 270 38 55 90 129 117 164 26 35 48
68 48 72 0 15 -25 10 -40 -8 -122 -143 -301 -378 -341 -448 -16 -27 -54 -84
-84 -125 -31 -41 -92 -130 -137 -197 -55 -85 -86 -123 -99 -123 -11 0 -19 -4
-19 -9 0 -18 -62 -102 -87 -118 -14 -10 -32 -32 -40 -50 -7 -19 -20 -36 -28
-40 -17 -6 -21 -43 -5 -43 6 0 10 -7 10 -15 0 -8 -6 -15 -14 -15 -20 0 -164
-155 -172 -185 -3 -14 -4 -35 -1 -48 5 -17 -4 -33 -34 -66 -22 -24 -43 -40
-47 -36 -4 3 1 11 11 16 9 6 17 19 17 30 0 18 -3 17 -26 -8 -27 -29 -24 -17 7
28 49 70 36 77 -23 14 -34 -36 -65 -65 -69 -65 -4 0 -5 16 -2 35 4 22 2 35 -5
35 -11 0 -16 -4 -52 -50 -14 -19 -19 -21 -20 -9 0 9 7 22 15 29 8 7 15 20 15
30 0 9 14 37 31 61 17 24 83 123 147 219 128 191 225 330 282 400 20 25 65 88
101 140 53 80 210 286 308 406 15 17 47 58 72 90 114 147 243 308 328 409 51
61 120 143 154 184 237 286 331 385 477 503 199 161 414 266 720 355 133 38
290 92 350 121 68 32 194 152 349 332 149 173 176 204 352 385 80 82 194 202
253 265 60 63 124 130 142 148 19 18 34 36 34 40 0 5 13 21 29 36 16 15 57 63
92 107 35 43 69 79 75 79 15 0 24 47 24 122 0 52 3 63 29 89 25 24 38 29 79
29 28 0 79 -9 115 -20z m367 -53 c0 -11 -34 8 -51 29 -12 16 -10 16 19 -1 17
-11 32 -23 32 -28z m240 -15 c0 -15 -2 -15 -10 -2 -13 20 -13 33 0 25 6 -3 10
-14 10 -23z m11 -92 c29 -28 29 -30 13 -55 -22 -33 -27 -32 -41 13 -6 20 -15
45 -18 55 -11 27 13 21 46 -13z m-71 -42 c39 -42 41 -53 14 -79 l-25 -23 -24
29 c-35 44 -32 65 5 30 35 -34 39 -21 9 29 -24 40 -11 48 21 14z m-392 -186
c35 -24 61 -46 58 -49 -2 -3 -28 13 -58 35 -29 21 -68 46 -85 56 -18 9 -33 19
-33 21 0 10 58 -21 118 -63z m-188 38 c19 -11 31 -19 25 -19 -5 0 -26 8 -45
19 -19 11 -30 19 -25 19 6 0 26 -8 45 -19z m125 -71 c4 -5 3 -9 0 -9 -12 0
-65 34 -65 41 0 9 58 -19 65 -32z m255 -30 c0 -6 -4 -7 -10 -4 -5 3 -10 11
-10 16 0 6 5 7 10 4 6 -3 10 -11 10 -16z m-65 -59 c3 -5 1 -10 -4 -10 -6 0
-11 5 -11 10 0 6 2 10 4 10 3 0 8 -4 11 -10z m-85 -213 c-1 -7 -34 -59 -75
-117 -110 -158 -538 -792 -638 -948 -190 -295 -193 -311 -150 -787 37 -419 -7
-659 -169 -926 -42 -68 -210 -315 -287 -420 -18 -24 -99 -145 -181 -269 -144
-219 -240 -342 -255 -328 -4 4 8 24 26 45 19 21 50 63 69 93 19 30 67 102 106
160 38 58 87 132 106 165 20 33 67 101 105 152 96 129 189 263 251 360 192
302 232 523 193 1062 -8 110 -11 247 -8 317 7 142 8 146 131 334 45 69 91 139
102 157 10 18 45 70 77 115 59 84 253 372 373 553 36 55 81 118 100 141 18 23
49 69 69 103 32 55 56 71 55 38z m-358 -409 c-43 -75 -222 -297 -222 -274 0
11 132 187 154 205 8 7 29 35 47 62 35 55 51 61 21 7z m-272 -373 c0 -14 -4
-25 -10 -25 -11 0 -14 33 -3 43 11 11 13 8 13 -18z m-30 -50 c0 -19 -60 -109
-82 -124 -33 -21 -26 5 19 72 44 66 63 82 63 52z m-120 -167 c0 -7 -10 -22
-22 -35 -40 -42 -53 -22 -17 28 19 28 39 31 39 7z m-85 -105 c-19 -45 -40 -69
-49 -55 -5 9 48 92 59 92 3 0 -2 -17 -10 -37z m-84 -254 c-6 -18 -11 -50 -11
-73 0 -64 -17 -79 -25 -23 -8 53 0 94 22 120 22 24 28 14 14 -24z m-1561 -221
c0 -37 22 -77 67 -125 44 -47 59 -41 25 10 -34 50 -43 78 -30 101 8 14 19 8
80 -46 39 -34 100 -92 137 -128 36 -36 84 -79 106 -96 38 -30 39 -33 28 -63
-10 -29 -10 -30 8 -21 15 8 19 7 19 -5 0 -8 5 -15 10 -15 6 0 10 5 10 10 0 33
29 -1 103 -121 24 -40 343 -357 415 -413 58 -46 84 -87 46 -72 -14 5 -15 4 -5
-8 13 -16 7 -36 -10 -36 -6 0 -7 5 -3 12 4 7 3 8 -4 4 -7 -4 -9 -18 -6 -33 6
-22 4 -24 -15 -18 -15 5 -21 2 -21 -10 0 -9 4 -13 10 -10 6 3 7 -1 4 -9 -7
-19 -9 -19 -35 -6 -21 12 -24 7 -9 -20 7 -13 5 -21 -6 -30 -12 -11 -19 -9 -39
10 -14 13 -27 21 -30 18 -3 -2 6 -15 20 -28 29 -27 32 -40 9 -40 -8 0 -13 -4
-9 -9 6 -11 -60 -81 -77 -81 -7 0 -22 10 -35 22 -13 12 -23 17 -23 11 0 -6 11
-18 25 -27 27 -18 33 -36 11 -36 -15 0 -96 77 -96 91 0 4 -21 23 -47 41 l-47
32 58 -58 c40 -41 54 -61 46 -66 -9 -5 0 -17 29 -35 22 -15 41 -32 41 -37 0
-15 -60 25 -96 65 -19 20 -34 34 -34 30 0 -3 -12 4 -27 18 -20 17 -23 18 -11
3 13 -15 15 -23 6 -32 -13 -13 14 -62 35 -62 18 0 69 -58 62 -70 -3 -5 -14
-10 -22 -10 -13 0 -10 -7 12 -30 27 -28 27 -30 11 -55 -17 -26 -18 -26 -39 -8
-22 18 -22 18 -6 -2 18 -22 15 -45 -7 -45 -8 0 -14 -7 -14 -15 0 -21 -10 -19
-61 15 -121 82 -289 236 -289 266 0 12 -13 50 -29 85 -16 35 -28 65 -26 67 2
2 13 -1 24 -8 38 -20 23 8 -33 63 -42 41 -68 80 -115 176 -73 149 -79 181 -24
129 27 -25 42 -18 22 11 -8 10 -54 74 -103 142 -84 116 -156 206 -156 194 0
-27 83 -165 146 -242 19 -23 34 -45 34 -50 -1 -16 -72 -85 -79 -76 -3 5 -31
41 -62 79 -31 39 -73 95 -93 126 -43 68 -60 81 -50 41 9 -39 48 -105 113 -192
31 -40 61 -81 66 -90 6 -9 15 -19 21 -23 6 -4 41 -41 79 -83 67 -75 80 -107
27 -69 -44 33 -56 39 -47 24 9 -15 -45 -5 -87 16 -32 16 -32 18 -17 46 8 14 8
23 0 31 -7 7 -17 2 -33 -19 -12 -16 -50 -58 -85 -93 -34 -35 -60 -68 -57 -72
3 -5 16 -9 29 -9 14 0 29 -8 35 -19 13 -26 246 -223 287 -245 18 -9 37 -25 42
-35 6 -10 27 -28 47 -40 20 -12 57 -39 83 -61 41 -35 168 -117 246 -159 57
-31 56 -30 39 -56 l-16 -24 -42 42 c-23 23 -62 58 -86 77 l-45 34 45 -49 c24
-28 61 -63 82 -78 21 -16 38 -30 38 -32 0 -11 -13 -35 -19 -35 -4 0 -59 51
-122 113 -97 95 -285 245 -295 235 -2 -2 18 -21 44 -41 114 -93 337 -312 340
-334 2 -13 0 -23 -5 -23 -4 0 -34 27 -66 59 -60 62 -126 101 -168 101 -18 -1
-7 -10 43 -36 66 -36 186 -140 174 -151 -3 -4 -32 12 -64 35 -69 50 -240 137
-215 110 16 -18 82 -63 202 -138 99 -62 34 -42 -116 36 -162 84 -260 148 -269
176 -3 10 -12 18 -19 18 -8 0 -21 13 -30 30 -19 37 -19 39 5 33 23 -6 26 6 8
26 -11 11 -8 12 15 7 25 -6 27 -5 18 13 -17 31 8 44 39 21 14 -11 29 -20 34
-20 4 0 29 -22 55 -50 47 -50 87 -68 74 -32 -8 21 -74 92 -86 92 -5 0 -24 14
-43 32 -25 24 -31 35 -22 45 6 7 16 13 23 13 17 0 12 33 -6 38 -8 3 -45 35
-84 72 -38 37 -81 73 -94 80 l-24 12 21 -30 c12 -16 46 -52 75 -78 29 -27 57
-55 61 -62 43 -71 -314 265 -398 374 l-71 91 -80 -81 c-76 -77 -87 -101 -48
-101 9 0 21 -15 29 -37 14 -42 140 -196 180 -223 31 -20 26 -10 -21 50 -57 73
-156 217 -152 221 6 6 84 -62 286 -250 94 -88 169 -161 167 -164 -7 -7 -74 47
-81 66 -5 14 -7 14 -15 2 -7 -12 -13 -10 -34 10 -15 13 -26 19 -26 13 0 -6 27
-35 60 -63 34 -29 59 -55 56 -57 -7 -8 -48 18 -101 62 -27 23 -79 57 -115 75
-58 29 -71 32 -130 28 l-67 -5 -58 88 c-53 79 -80 107 -92 95 -9 -9 29 -81 78
-148 45 -63 50 -73 40 -95 -6 -13 -11 -44 -11 -68 0 -25 -3 -45 -7 -45 -22 1
-68 56 -146 173 -27 40 -42 56 -49 49 -13 -13 45 -108 103 -169 l41 -44 -36
-54 c-20 -30 -40 -55 -44 -55 -8 0 -66 69 -145 173 -33 43 -37 46 -37 24 0
-84 369 -480 516 -555 23 -12 53 -35 68 -53 17 -20 32 -29 42 -25 9 3 34 -6
57 -22 23 -16 85 -54 138 -85 103 -60 128 -82 112 -98 -6 -6 -28 4 -64 29 -30
21 -93 62 -142 91 -48 29 -85 56 -82 61 3 5 0 12 -6 16 -8 4 -9 3 -5 -4 4 -7
3 -12 -2 -12 -11 0 -88 55 -96 69 -4 6 -27 19 -52 30 -25 11 -75 49 -112 84
-76 71 -142 122 -142 109 0 -14 -113 -1 -131 15 -9 7 -31 43 -49 79 -19 36
-50 79 -69 95 -20 17 -46 39 -57 50 -26 23 -40 24 -48 4 -3 -8 -13 -15 -21
-15 -9 0 -37 -14 -63 -32 -26 -18 -49 -30 -52 -28 -3 3 -6 -5 -8 -16 -2 -12
-11 -29 -20 -37 -16 -14 -22 -10 -74 48 l-58 63 36 27 c28 21 42 26 66 21 31
-6 31 -6 13 15 -24 25 -10 53 29 57 24 3 38 22 16 22 -26 0 -5 33 35 58 25 15
48 34 51 44 11 35 29 38 67 13 20 -14 38 -25 41 -25 3 0 -2 16 -10 35 -7 19
-14 45 -14 57 1 21 3 20 30 -12 l30 -35 -15 37 c-13 33 -13 38 4 59 l18 23 27
-29 27 -30 -15 32 c-18 37 -21 57 -6 48 6 -3 10 3 10 14 0 27 12 27 28 0 18
-28 25 -19 13 15 -11 27 -3 34 17 14 8 -8 10 -3 6 23 -4 25 -1 39 10 48 14 12
19 11 32 -5 14 -18 15 -18 4 3 -9 19 -7 26 11 44 l22 22 35 -57 c19 -31 37
-55 39 -53 1 2 -4 26 -12 53 -20 65 -20 80 0 64 9 -8 15 -9 15 -2 0 6 -4 14
-10 17 -12 7 -14 45 -2 45 4 0 16 -16 26 -35 11 -19 23 -35 28 -35 5 0 1 14
-7 31 -12 23 -13 34 -5 44 8 9 8 15 0 20 -17 11 -11 61 11 81 16 15 24 16 39
6 25 -15 37 -15 22 0 -16 16 -15 48 1 48 8 0 24 -11 37 -25 32 -34 37 -24 10
20 -13 21 -19 43 -15 53 5 14 10 11 27 -16 27 -43 32 -41 13 5 -13 30 -14 42
-4 60 7 13 16 23 20 23 9 0 11 -3 93 -140 55 -93 142 -204 130 -165 -9 26 -98
160 -136 204 -36 41 -74 118 -64 128 4 5 21 -7 37 -25 33 -37 37 -28 10 26
-30 60 -9 82 37 40 l25 -23 -12 22 c-13 25 -15 73 -3 73 4 0 14 -6 20 -12 10
-10 11 -1 6 42 -6 53 -5 57 31 100 20 25 39 47 41 49 2 3 11 -4 20 -15 15 -18
15 -18 9 9 -3 15 -1 27 5 27 5 0 10 7 10 16 0 8 5 12 11 9 6 -4 9 -1 8 6 -4
26 13 50 31 44 14 -4 18 0 18 20 0 17 13 39 38 63 22 21 58 61 82 90 24 29 47
52 53 52 5 0 9 -15 9 -32z m1543 -43 c4 -8 2 -17 -2 -20 -5 -2 -11 4 -14 15
-6 23 8 27 16 5z m-7 -338 c-3 -90 -10 -160 -19 -192 -9 -27 -21 -81 -28 -120
-18 -109 -85 -291 -148 -400 -19 -33 -59 -107 -89 -165 -30 -58 -62 -116 -72
-130 -10 -14 -20 -35 -24 -47 -4 -13 -22 -40 -39 -62 -18 -21 -37 -47 -44 -57
-11 -18 -12 -18 -12 2 -1 11 14 45 32 76 54 89 127 226 179 333 27 55 61 125
77 155 43 82 107 246 124 320 37 156 48 224 47 287 -3 120 0 154 10 148 5 -3
8 -63 6 -148z m7 -322 c-3 -9 -8 -14 -10 -11 -3 3 -2 9 2 15 9 16 15 13 8 -4z
m-21 -70 c-10 -37 -32 -45 -32 -11 0 14 8 29 17 35 23 12 24 11 15 -24z
m-1474 -92 c37 -54 34 -57 -12 -13 -25 24 -46 48 -46 52 0 15 38 -11 58 -39z
m1412 -128 c0 -46 -7 -54 -28 -33 -22 22 -8 78 20 78 4 0 8 -20 8 -45z m-270
-36 c0 -13 -11 -11 -31 7 -10 9 -23 14 -30 12 -8 -3 -1 -14 17 -31 34 -32 17
-37 -19 -5 -20 18 -23 26 -15 44 l10 22 34 -20 c19 -11 34 -24 34 -29z m60
-29 c14 -10 22 -22 18 -25 -8 -8 -58 24 -58 36 0 14 13 10 40 -11z m-1335 -89
c49 -42 99 -87 112 -101 39 -43 25 -44 -24 -1 -27 23 -87 72 -135 108 -49 37
-88 71 -88 76 0 20 51 -11 135 -82z m1200 67 c37 -25 44 -38 20 -38 -8 0 -15
5 -15 10 0 6 -11 16 -25 22 -14 6 -25 15 -25 20 0 12 7 10 45 -14z m103 -17
c12 -11 22 -26 22 -34 0 -10 -9 -6 -30 13 -44 41 -37 58 8 21z m-1202 -69 c18
-20 33 -40 34 -43 0 -4 18 -19 40 -34 40 -28 50 -48 29 -61 -7 -4 -26 11 -47
37 -19 24 -65 73 -101 108 -65 62 -65 63 -27 47 22 -9 54 -33 72 -54z m1044
38 c-18 -11 -24 -6 -16 16 5 14 9 15 19 5 9 -9 9 -14 -3 -21z m330 -2 c0 -39
-13 -63 -29 -54 -14 9 -14 41 -1 67 16 29 30 23 30 -13z m-193 -10 c13 -12 23
-28 23 -37 0 -10 -9 -6 -30 14 -29 28 -38 45 -23 45 4 0 17 -10 30 -22z m-82
-7 c10 -17 -12 -21 -25 -6 -10 12 -10 15 3 15 9 0 18 -4 22 -9z m-980 -57 c48
-45 55 -55 36 -52 -13 1 -29 12 -35 23 -6 11 -17 24 -24 28 -35 22 -66 56 -52
57 8 0 42 -25 75 -56z m919 15 c35 -20 47 -39 26 -39 -6 0 -13 7 -16 15 -4 8
-12 15 -18 15 -16 0 -54 29 -39 30 6 0 28 -9 47 -21z m140 -25 c3 -8 1 -14 -5
-14 -12 0 -48 40 -49 53 0 12 48 -22 54 -39z m-1001 21 c29 -12 55 -41 44 -51
-1 -2 -22 13 -46 32 -49 38 -49 40 2 19z m797 -40 c-22 -27 -31 -15 -13 16 13
22 19 26 21 14 2 -9 -2 -22 -8 -30z m45 -5 c4 -6 11 -8 16 -5 5 4 9 -1 9 -9 0
-9 -4 -16 -10 -16 -5 0 -10 5 -10 10 0 6 -7 10 -15 10 -8 0 -15 5 -15 10 0 13
17 13 25 0z m111 -4 c10 -8 16 -17 13 -20 -3 -4 -17 2 -30 13 -27 23 -13 28
17 7z m-141 -39 c7 -7 4 -8 -9 -3 -11 4 -26 0 -36 -9 -22 -20 -38 -2 -19 21
12 15 45 11 64 -9z m134 9 c12 -14 5 -46 -9 -46 -9 0 -20 25 -20 46 0 18 14
18 29 0z m-88 -31 c1 -17 -18 -17 -25 0 -4 11 -1 15 10 13 8 -2 15 -7 15 -13z
m227 -23 c2 -18 -1 -32 -6 -32 -12 0 -33 56 -24 64 13 13 27 -2 30 -32z m-953
-22 c17 -11 55 -46 83 -78 28 -32 80 -78 117 -102 51 -33 65 -48 63 -64 -2
-12 -8 -21 -15 -21 -7 0 -56 40 -109 90 -85 78 -149 125 -171 125 -4 0 7 -10
23 -22 59 -45 244 -211 244 -219 0 -16 -19 -9 -52 19 -40 34 -163 126 -238
176 -30 21 -56 39 -58 40 -4 5 63 76 72 76 5 0 23 -9 41 -20z m785 -12 c0 -26
-24 -18 -28 10 -3 16 1 20 12 16 9 -3 16 -15 16 -26z m-2874 -25 c-15 -21 -43
-61 -64 -90 -20 -29 -88 -101 -151 -160 -152 -143 -290 -297 -419 -468 -58
-77 -110 -143 -115 -147 -13 -8 -57 12 -57 27 0 6 7 20 15 31 35 46 -5 63 -46
19 -29 -30 -39 -31 -39 -7 0 48 257 301 514 507 27 21 99 84 160 139 147 134
220 195 225 190 2 -2 -8 -21 -23 -41z m2680 32 c10 -8 15 -14 9 -14 -5 0 -19
6 -29 14 -11 8 -15 15 -10 15 6 0 19 -7 30 -15z m112 -6 c-2 -6 -8 -10 -13
-10 -5 0 -11 4 -13 10 -2 6 4 11 13 11 9 0 15 -5 13 -11z m-118 -61 c0 -15
-17 -8 -39 16 -13 14 -20 30 -16 36 5 8 15 3 31 -16 13 -16 23 -32 24 -36z
m57 36 c-3 -3 -12 -4 -19 -1 -8 3 -5 6 6 6 11 1 17 -2 13 -5z m123 -10 c0 -2
-17 -36 -39 -76 -78 -147 -134 -244 -175 -303 -23 -33 -49 -76 -56 -95 -18
-45 -99 -202 -111 -214 -24 -26 -14 8 23 79 22 43 48 99 58 124 9 25 66 123
126 216 127 196 156 249 148 270 -5 11 -2 13 10 9 9 -3 16 -8 16 -10z m-82
-23 c3 -8 -1 -12 -9 -9 -7 2 -15 10 -17 17 -3 8 1 12 9 9 7 -2 15 -10 17 -17z
m-135 -47 c26 -20 47 -40 47 -45 0 -8 -16 -38 -107 -203 -24 -44 -54 -105 -66
-136 -25 -62 -115 -189 -134 -190 -16 0 -28 21 -15 29 14 9 76 102 119 180 20
36 49 84 64 106 63 94 106 235 71 235 -4 0 -9 -14 -10 -30 -4 -51 -31 -119
-76 -189 -23 -36 -45 -73 -49 -81 -39 -82 -125 -210 -141 -210 -3 0 13 33 34
73 107 199 106 197 90 207 -24 16 -31 12 -24 -15 4 -16 2 -25 -6 -25 -15 0 -9
72 7 77 6 2 21 -6 32 -18 19 -21 21 -21 21 -4 0 10 -12 31 -27 47 -14 15 -23
31 -19 35 8 8 41 -26 49 -50 7 -23 34 11 46 61 7 26 16 61 21 78 13 40 13 44
-5 44 -8 0 -15 -9 -15 -19 0 -11 -4 -23 -10 -26 -5 -3 -10 3 -10 15 0 24 40
90 56 90 6 0 32 -16 57 -36z m-1370 -41 c29 -38 77 -103 105 -145 28 -42 56
-79 62 -83 6 -4 8 -11 5 -16 -6 -8 -65 38 -175 139 -26 23 -52 42 -57 42 -12
0 -33 44 -33 71 0 25 17 59 30 59 5 0 33 -30 63 -67z m1462 46 c12 -19 -5 -23
-22 -6 -16 16 -16 17 -1 17 9 0 20 -5 23 -11z m-1138 -74 c26 -24 53 -45 60
-45 6 0 19 -10 27 -21 8 -12 37 -38 64 -58 27 -20 74 -55 105 -78 30 -23 70
-51 89 -61 18 -10 63 -35 101 -56 65 -36 74 -46 61 -59 -8 -8 -223 104 -287
149 -71 51 -69 41 4 -14 35 -27 105 -70 154 -97 109 -58 115 -63 108 -81 -7
-19 -27 -18 -44 3 -8 9 -42 29 -77 44 -67 31 -272 166 -272 181 0 4 -4 8 -9 8
-15 0 -118 109 -124 130 -7 25 18 15 30 -13 7 -15 19 -22 44 -22 l35 -2 -29
28 c-16 15 -32 29 -35 31 -4 2 -23 20 -41 41 -49 52 -22 46 36 -8z m-164 -74
c20 -19 37 -42 37 -50 0 -9 -23 8 -55 39 -85 84 -71 93 18 11z m1088 49 c19
-11 27 -50 10 -50 -5 0 -16 11 -25 25 -24 37 -21 44 15 25z m-2042 -95 c39
-42 40 -45 26 -72 -8 -15 -15 -42 -15 -60 0 -39 -20 -36 -41 5 -13 26 -13 27
-17 4 -4 -27 24 -75 69 -117 l32 -30 -6 26 c-6 23 -4 25 22 21 31 -4 61 19 61
47 0 24 -27 88 -40 96 -14 9 -13 38 3 59 12 16 20 9 92 -75 137 -158 129 -146
115 -180 -11 -25 -11 -33 2 -45 11 -12 21 -13 43 -4 24 9 33 7 68 -17 60 -41
162 -141 154 -149 -4 -4 -24 9 -45 29 -21 20 -42 37 -47 37 -6 1 -30 18 -55
40 -24 22 -46 37 -49 35 -6 -7 97 -114 152 -158 27 -21 62 -43 78 -49 33 -11
39 -28 9 -28 -11 0 -20 5 -20 10 0 6 -5 10 -11 10 -5 0 -60 39 -120 86 -116
90 -156 114 -129 78 34 -45 58 -68 108 -101 28 -19 52 -39 52 -44 0 -15 -27
-10 -41 8 -8 9 -27 22 -44 29 -16 7 -65 42 -108 78 -43 36 -81 66 -84 66 -19
0 111 -116 206 -184 23 -17 41 -38 41 -48 0 -10 -2 -18 -4 -18 -14 0 -121 81
-171 129 -108 104 -175 132 -218 94 -18 -17 -22 -14 -112 82 -89 94 -122 116
-94 63 7 -12 47 -61 89 -108 62 -68 78 -93 82 -122 4 -42 -2 -47 -27 -21 -16
16 -18 15 -27 -1 -9 -16 -24 -4 -118 88 -59 58 -112 106 -119 106 -18 0 14
-42 113 -145 47 -49 86 -97 86 -106 0 -9 -13 -34 -29 -56 -26 -37 -28 -42 -14
-56 12 -12 20 -13 34 -4 15 9 25 4 63 -31 25 -23 49 -42 53 -42 12 0 85 -72
79 -77 -3 -3 -23 9 -44 26 -50 39 -59 39 -32 0 12 -16 19 -33 15 -37 -6 -7
-65 54 -65 68 0 12 -81 70 -97 70 -7 0 14 -28 47 -63 61 -63 69 -77 48 -77
-14 0 -212 199 -338 339 -76 85 -110 106 -80 51 30 -56 265 -314 344 -378 22
-17 37 -35 33 -38 -9 -10 -90 48 -154 109 -62 60 -81 57 -29 -4 20 -23 34 -45
31 -47 -3 -3 5 -16 17 -29 24 -26 14 -31 -16 -8 -11 8 -26 15 -34 15 -7 0 -34
14 -58 32 -51 37 -69 33 -24 -6 35 -29 32 -31 -19 -14 -68 24 -168 117 -309
286 -34 41 -34 44 -17 60 13 13 19 14 22 4 3 -7 13 -17 23 -22 19 -10 19 -9 2
20 -17 30 -17 31 8 51 14 11 39 33 55 48 88 81 147 122 167 115 17 -5 18 -3 9
14 -15 28 13 66 44 58 20 -5 23 -2 21 22 -1 22 17 43 103 123 98 91 106 96
132 87 15 -5 46 -29 68 -53z m288 24 c34 -33 69 -97 77 -141 9 -47 -6 -50 -22
-4 -21 56 -78 122 -127 146 -25 12 -45 24 -45 27 0 16 94 -7 117 -28z m-960
-66 c-19 -26 -48 -59 -63 -73 -24 -21 -22 -17 11 30 21 30 47 65 58 77 35 40
31 16 -6 -34z m903 17 c38 -30 66 -71 80 -119 6 -22 5 -31 -3 -30 -16 1 -167
172 -160 182 7 12 44 -2 83 -33z m461 -57 c36 -37 97 -94 137 -127 40 -32 72
-60 72 -62 0 -12 -93 45 -145 90 -94 79 -185 169 -185 183 0 25 53 -12 121
-84z m457 35 c37 -28 74 -59 82 -68 43 -48 222 -165 233 -153 9 9 107 -49 107
-64 0 -19 -5 -17 -58 18 l-47 30 39 -35 c34 -31 37 -37 23 -50 -21 -21 -46
-12 -172 62 -201 119 -217 131 -288 212 -46 52 -18 57 43 8 58 -46 58 -39 -2
33 -36 43 -45 59 -33 59 3 0 36 -23 73 -52z m-163 -26 c-7 -7 -34 18 -47 42
-8 16 -3 14 21 -8 17 -16 29 -32 26 -34z m1305 13 c0 -20 -22 -65 -32 -65 -11
0 -10 25 4 55 12 27 28 33 28 10z m-1230 -70 c28 -29 31 -37 20 -50 -13 -16
-55 -21 -45 -5 3 5 12 7 20 3 24 -8 7 23 -21 42 -23 15 -33 45 -16 45 4 0 23
-16 42 -35z m877 8 c4 -9 1 -19 -5 -21 -7 -2 -10 -8 -6 -13 3 -5 1 -9 -5 -9
-5 0 -13 5 -16 10 -3 6 -1 10 5 10 7 0 9 8 5 20 -8 24 13 27 22 3z m-1872 -34
c9 -17 14 -34 10 -37 -8 -8 -32 19 -40 46 -10 33 12 27 30 -9z m940 1 c10 -11
13 -20 7 -20 -6 0 -16 9 -22 20 -6 11 -9 20 -7 20 2 0 12 -9 22 -20z m-1781
-19 c-20 -34 -258 -374 -292 -417 l-23 -29 17 35 c36 74 294 440 310 440 3 0
-3 -13 -12 -29z m2631 19 c3 -5 -1 -10 -10 -10 -9 0 -13 5 -10 10 3 6 8 10 10
10 2 0 7 -4 10 -10z m43 -32 c14 -14 16 -28 2 -28 -5 0 -14 9 -20 20 -12 22
-1 27 18 8z m-638 -102 c74 -49 146 -95 160 -104 15 -10 20 -17 12 -20 -19 -6
-332 180 -332 198 0 9 13 21 19 18 3 -2 67 -43 141 -92z m-755 64 c16 -18 16
-20 2 -20 -22 0 -67 21 -67 32 0 16 47 8 65 -12z m90 0 c26 -29 11 -36 -24
-10 -36 25 -38 30 -13 30 11 0 27 -9 37 -20z m1250 -5 c17 -14 25 -25 19 -25
-6 0 -17 7 -24 15 -7 8 -19 15 -26 15 -8 0 -14 5 -14 10 0 16 12 11 45 -15z
m-1417 3 c18 -18 15 -25 -12 -30 -29 -6 -56 8 -56 27 0 18 51 20 68 3z m1734
-61 c-17 -24 -37 -49 -46 -56 -9 -8 -16 -20 -16 -27 0 -8 -4 -14 -10 -14 -14
0 -13 4 11 47 45 79 83 129 87 111 2 -10 -10 -37 -26 -61z m-123 12 c-27 -54
-95 -149 -122 -170 -12 -10 -18 -23 -14 -33 7 -18 -18 -22 -43 -6 -12 8 -11
10 7 10 16 0 23 8 28 31 4 18 16 35 31 41 13 6 26 19 29 30 4 10 11 18 16 18
5 0 13 8 17 18 13 32 64 113 69 108 2 -2 -6 -24 -18 -47z m-234 31 c3 -5 2
-10 -4 -10 -5 0 -13 5 -16 10 -3 6 -2 10 4 10 5 0 13 -4 16 -10z m-3035 -10
c0 -14 -28 -25 -95 -39 -191 -38 -255 -60 -255 -88 0 -49 171 -29 252 29 33
24 33 -4 0 -31 -35 -30 -113 -57 -202 -70 l-54 -9 -38 42 c-42 45 -45 57 -24
79 28 28 243 79 404 96 6 0 12 -3 12 -9z m2427 -59 c59 -37 132 -83 161 -101
28 -17 52 -36 52 -40 0 -19 -19 -18 -51 4 -19 12 -92 55 -164 96 -71 40 -132
74 -134 76 -6 6 8 34 18 34 5 0 58 -31 118 -69z m663 28 c0 -4 -7 -6 -15 -3
-8 4 -15 10 -15 15 0 4 7 6 15 3 8 -4 15 -10 15 -15z m-1257 -109 c53 -47 96
-88 96 -93 1 -4 -12 -1 -29 8 -16 9 -30 20 -30 25 0 5 -24 23 -53 40 -29 16
-66 43 -82 60 -16 16 -33 30 -39 30 -5 0 0 -10 12 -23 29 -31 28 -44 -1 -15
-48 48 -52 57 -26 67 29 11 30 11 152 -99z m16 63 c60 -52 90 -83 91 -96 0
-12 -163 115 -168 131 -8 25 22 11 77 -35z m523 -24 c164 -98 228 -141 222
-151 -3 -5 -18 -1 -32 8 -35 23 -164 99 -241 143 -34 19 -61 40 -61 48 0 7 2
13 4 13 2 0 51 -28 108 -61z m-327 11 c22 -15 46 -25 53 -22 15 5 54 -27 47
-38 -3 -4 2 -11 11 -14 8 -3 12 -2 9 4 -14 23 17 7 49 -24 19 -19 58 -49 88
-66 110 -66 172 -107 176 -118 7 -22 -14 -12 -147 68 -72 44 -134 80 -137 80
-20 0 -214 146 -214 161 0 11 6 8 65 -31z m135 -3 c0 -4 -9 -3 -20 3 -11 6
-20 15 -20 20 0 6 9 5 20 -2 11 -7 20 -16 20 -21z m228 -86 c78 -51 142 -98
142 -103 0 -6 -17 0 -37 13 -21 12 -78 45 -128 72 -49 27 -103 58 -120 70 -16
11 -31 21 -33 22 -1 1 0 9 4 18 3 10 11 14 18 9 6 -4 75 -49 154 -101z m-293
-16 c22 -17 100 -71 174 -119 73 -48 131 -90 128 -93 -3 -3 -19 4 -35 16 -17
12 -33 21 -36 21 -3 0 -41 22 -84 48 -97 62 -142 85 -142 74 0 -7 59 -47 233
-158 20 -13 37 -28 37 -33 0 -11 -113 48 -243 126 -49 29 -87 47 -85 40 4 -10
205 -158 264 -193 11 -7 17 -14 14 -17 -10 -10 -256 158 -309 211 -54 54 -62
78 -15 48 14 -10 28 -15 31 -12 3 3 -2 8 -11 12 -10 4 -16 18 -16 40 0 22 -6
37 -15 40 -8 4 -15 10 -15 14 0 12 81 -30 125 -65z m991 58 c11 -12 13 -18 5
-21 -13 -4 -41 16 -41 29 0 14 17 10 36 -8z m-156 -42 c0 -6 -4 -13 -10 -16
-5 -3 -10 1 -10 9 0 9 5 16 10 16 6 0 10 -4 10 -9z m100 -6 c20 -24 6 -28 -15
-5 -10 11 -13 20 -8 20 6 0 16 -7 23 -15z m250 6 c0 -16 -41 -81 -51 -81 -15
0 -10 16 14 54 22 34 37 45 37 27z m-110 -78 c-30 -60 -35 -49 -8 16 13 29 24
47 26 41 3 -7 -6 -32 -18 -57z m-1321 10 c19 -16 32 -35 30 -41 -2 -7 -25 9
-54 39 -51 52 -37 53 24 2z m979 27 c32 -30 27 -34 -8 -8 -16 12 -30 23 -30
25 0 9 19 1 38 -17z m72 10 c0 -5 -2 -10 -4 -10 -3 0 -8 5 -11 10 -3 6 -1 10
4 10 6 0 11 -4 11 -10z m1379 -35 c76 -20 151 -70 151 -100 0 -21 -47 -41
-110 -49 -61 -7 -62 -10 13 45 19 15 20 19 7 34 -21 26 -68 47 -160 72 l-85
24 67 -6 c37 -4 89 -12 117 -20z m-2939 -51 c76 -92 173 -194 185 -194 6 0 22
-11 34 -24 13 -13 34 -27 47 -30 23 -6 34 -26 14 -26 -16 0 -143 86 -179 122
-37 37 -136 160 -152 189 -19 36 6 17 51 -37z m805 -116 c44 -30 96 -63 115
-73 44 -22 43 -22 36 -34 -6 -9 -222 105 -259 137 -9 8 -20 12 -24 8 -11 -11
61 -63 213 -151 44 -26 44 -39 -1 -21 -46 20 -182 103 -221 135 -17 14 -48 39
-68 54 -33 26 -36 31 -24 45 8 10 20 31 27 47 l13 30 57 -61 c31 -34 92 -86
136 -116z m735 152 c0 -5 -2 -10 -4 -10 -3 0 -8 5 -11 10 -3 6 -1 10 4 10 6 0
11 -4 11 -10z m-1267 -134 c29 -20 35 -36 13 -36 -24 0 -146 112 -146 133 0
16 11 10 53 -30 28 -27 64 -57 80 -67z m1466 100 c10 -12 8 -13 -8 -9 -12 3
-21 9 -21 14 0 14 16 11 29 -5z m-315 -42 c3 -8 -1 -14 -9 -14 -8 0 -15 2 -15
4 0 2 -3 12 -6 20 -4 12 -2 15 9 10 9 -3 18 -12 21 -20z m-2254 8 c0 -12 -39
-52 -51 -52 -6 0 -1 14 11 30 20 29 40 39 40 22z m989 -55 c23 -21 41 -43 39
-48 -5 -14 -108 69 -108 87 0 19 15 10 69 -39z m-978 0 c-13 -12 -20 -15 -16
-7 14 26 28 41 33 35 3 -3 -5 -16 -17 -28z m1398 8 c26 -16 232 -165 250 -181
17 -16 -67 21 -101 44 -24 16 -59 37 -78 47 -63 32 -130 78 -130 90 0 14 11
27 19 22 3 -1 21 -11 40 -22z m-194 4 c11 -17 -1 -21 -15 -4 -8 9 -8 15 -2 15
6 0 14 -5 17 -11z m1020 -8 c-3 -6 -11 -11 -17 -11 -6 0 -6 6 2 15 14 17 26
13 15 -4z m525 14 c0 -3 -15 -11 -34 -19 -37 -15 -190 -23 -326 -17 -70 4 -55
6 90 12 96 4 189 12 205 17 33 11 65 15 65 7z m-2696 -23 c3 -5 -9 -22 -26
-38 -32 -30 -32 -29 -9 19 14 28 26 34 35 19z m1307 -47 c28 -19 91 -58 140
-86 49 -28 89 -56 89 -61 0 -12 -37 0 -70 22 -14 10 -71 48 -127 85 -57 37
-103 69 -103 71 0 12 26 0 71 -31z m-29 -22 c72 -42 152 -103 144 -110 -3 -3
-52 21 -108 53 -57 33 -111 62 -120 66 -10 4 -18 12 -18 18 0 20 39 10 102
-27z m-252 -5 c0 -16 -30 -8 -40 12 -10 18 -9 19 15 8 14 -6 25 -15 25 -20z
m95 2 c3 -6 -3 -10 -14 -10 -12 0 -21 2 -21 4 0 2 -3 12 -7 21 -5 15 -3 16 15
6 11 -6 24 -16 27 -21z m-1075 -11 c0 -5 -7 -9 -15 -9 -15 0 -20 12 -9 23 8 8
24 -1 24 -14z m1262 -81 c32 -28 31 -28 -42 9 -41 20 -84 45 -95 55 -33 31
100 -31 137 -64z m-219 55 c9 -9 -13 -34 -24 -27 -14 8 -11 34 4 34 8 0 17 -3
20 -7z m117 -60 c39 -25 68 -48 66 -50 -8 -8 -146 72 -146 84 0 19 4 17 80
-34z m737 11 c-3 -3 -12 -4 -19 -1 -8 3 -5 6 6 6 11 1 17 -2 13 -5z m-482 -35
c11 -17 -1 -21 -15 -4 -8 9 -8 15 -2 15 6 0 14 -5 17 -11z m-310 -30 c11 -17
-1 -21 -15 -4 -8 9 -8 15 -2 15 6 0 14 -5 17 -11z m2158 -6 c-7 -2 -21 -2 -30
0 -10 3 -4 5 12 5 17 0 24 -2 18 -5z m450 -20 c-7 -2 -19 -2 -25 0 -7 3 -2 5
12 5 14 0 19 -2 13 -5z m-49 -23 c-12 -12 -142 -26 -131 -14 4 4 29 11 55 15
75 10 87 10 76 -1z m-2307 -86 c-3 -3 -12 -4 -19 -1 -8 3 -5 6 6 6 11 1 17 -2
13 -5z m916 -118 c9 0 17 -4 17 -8 0 -10 -201 -10 -355 1 -66 4 -176 5 -245 2
-149 -7 -238 0 -120 10 57 5 435 2 703 -5z"/>
<path d="M5206 5515 c10 -8 24 -14 29 -14 6 0 1 6 -9 14 -11 8 -24 15 -30 15
-5 0 -1 -7 10 -15z"/>
<path d="M4968 5211 c-7 -10 -36 -45 -65 -77 -162 -186 -312 -364 -306 -364
29 1 417 460 389 460 -3 0 -11 -8 -18 -19z"/>
<path d="M4974 5128 l-19 -23 23 19 c21 18 27 26 19 26 -2 0 -12 -10 -23 -22z"/>
<path d="M5124 5135 c-19 -14 -19 -14 2 -15 12 0 24 7 28 15 7 19 -5 19 -30 0z"/>
<path d="M4864 5012 c-27 -33 -67 -84 -89 -113 -22 -29 -76 -92 -121 -139 -83
-88 -265 -310 -224 -275 41 36 294 328 355 410 32 44 77 99 99 122 22 24 37
45 34 48 -3 3 -27 -21 -54 -53z"/>
<path d="M5362 5009 c33 -54 38 -65 38 -86 0 -25 18 -31 26 -9 6 16 -15 58
-45 94 -24 28 -36 29 -19 1z"/>
<path d="M5300 4965 c0 -17 8 -39 17 -50 15 -19 15 -18 10 19 -8 50 -27 72
-27 31z"/>
<path d="M5254 4894 c3 -9 6 -20 6 -25 0 -5 5 -9 10 -9 6 0 10 11 10 25 0 16
-6 25 -16 25 -11 0 -14 -5 -10 -16z"/>
<path d="M4784 4798 c-69 -73 -256 -309 -348 -441 -33 -46 -138 -187 -211
-282 -26 -33 -56 -78 -67 -100 -19 -36 -19 -38 -3 -25 28 23 154 184 229 295
38 55 97 134 131 175 33 41 111 140 171 220 154 202 180 244 98 158z"/>
<path d="M5183 4737 c-31 -34 -188 -267 -212 -315 -26 -52 -23 -79 5 -37 10
17 38 56 61 89 55 74 176 276 171 282 -3 2 -14 -6 -25 -19z"/>
<path d="M4489 4658 c-17 -24 -18 -29 -6 -19 18 14 42 51 33 51 -3 0 -15 -15
-27 -32z"/>
<path d="M4245 4438 c-61 -62 -132 -145 -158 -184 -45 -69 -212 -238 -269
-272 -32 -19 -36 -32 -11 -32 9 0 34 17 55 37 55 53 55 36 1 -26 -26 -30 -38
-49 -28 -43 48 25 182 192 263 329 26 42 76 103 125 150 102 98 153 153 143
153 -5 0 -59 -51 -121 -112z"/>
<path d="M4327 4298 c-83 -90 -125 -145 -151 -195 -35 -70 -33 -101 2 -37 40
72 163 232 201 261 13 10 13 12 2 13 -8 0 -32 -19 -54 -42z"/>
<path d="M4232 4283 c-17 -27 -47 -64 -68 -83 -37 -36 -154 -184 -154 -195 0
-4 21 17 48 46 26 29 58 62 71 74 32 27 93 111 120 163 28 56 20 53 -17 -5z"/>
<path d="M4860 4312 c0 -5 9 -17 20 -27 18 -17 20 -17 26 0 4 10 1 21 -7 26
-18 11 -39 12 -39 1z"/>
<path d="M4827 4228 c18 -18 36 -29 40 -25 8 8 -45 56 -62 57 -5 0 5 -14 22
-32z"/>
<path d="M4600 3944 c-63 -80 -137 -181 -165 -224 -28 -44 -58 -80 -69 -82
-18 -3 -18 -4 1 -21 20 -17 22 -15 113 100 88 111 223 301 249 351 9 17 9 22
-1 22 -7 -1 -65 -66 -128 -146z"/>
<path d="M4120 3980 c-32 -36 -148 -140 -179 -160 l-24 -16 27 -29 c15 -16 36
-43 47 -62 23 -37 29 -40 29 -18 0 9 -18 35 -41 60 -38 42 -44 65 -15 65 7 0
21 9 31 20 22 24 31 19 16 -9 -7 -11 -7 -22 -2 -25 12 -8 85 77 107 124 9 19
21 43 26 53 15 30 5 28 -22 -3z"/>
<path d="M3545 3890 c-3 -5 1 -10 9 -10 9 0 16 5 16 10 0 6 -4 10 -9 10 -6 0
-13 -4 -16 -10z"/>
<path d="M3430 3865 c-14 -16 -10 -18 14 -9 9 3 16 10 16 15 0 14 -16 11 -30
-6z"/>
<path d="M3749 3876 c-3 -3 -49 -15 -104 -26 -54 -12 -141 -35 -193 -51 -106
-33 -294 -119 -275 -126 7 -2 59 13 115 35 132 52 302 108 353 118 48 9 101
30 110 44 6 10 2 14 -6 6z"/>
<path d="M3870 3734 c0 -4 12 -21 28 -38 15 -17 34 -43 43 -56 9 -14 20 -22
24 -18 8 8 -20 65 -48 96 -19 20 -47 30 -47 16z"/>
<path d="M3015 3672 c-230 -121 -484 -349 -668 -602 -153 -210 -269 -381 -263
-388 11 -11 59 43 162 183 126 170 148 198 139 170 -20 -56 -14 -54 22 6 106
176 152 230 343 398 136 120 293 231 327 231 14 0 63 39 63 51 0 15 -10 11
-125 -49z"/>
<path d="M3820 3663 c0 -16 68 -88 76 -80 4 4 -6 24 -22 44 -30 36 -54 53 -54
36z"/>
<path d="M3240 3547 c0 -8 101 -89 105 -85 8 7 -77 88 -92 88 -7 0 -13 -2 -13
-3z"/>
<path d="M2854 3497 c-58 -42 -108 -92 -74 -72 12 7 73 55 135 107 5 4 6 8 3
8 -3 0 -32 -19 -64 -43z"/>
<path d="M3550 3537 c0 -2 19 -19 43 -37 37 -29 39 -30 17 -6 -23 25 -60 52
-60 43z"/>
<path d="M3461 3484 c6 -14 105 -104 114 -104 5 0 -2 12 -16 26 -31 33 -103
91 -98 78z"/>
<path d="M4431 3365 c-1 -149 -21 -263 -72 -419 -21 -67 -39 -125 -39 -129 0
-5 -18 -47 -41 -94 -22 -46 -38 -87 -35 -90 10 -10 128 241 161 344 24 74 55
283 55 367 -1 46 -7 94 -15 111 -12 28 -13 20 -14 -90z"/>
<path d="M4307 3380 c-5 -52 -22 -153 -39 -223 -16 -71 -28 -130 -25 -133 2
-3 21 46 40 108 39 122 49 201 38 288 -7 55 -7 55 -14 -40z"/>
<path d="M3206 3452 c-7 -12 22 -38 53 -47 30 -9 21 6 -19 35 -16 11 -31 16
-34 12z"/>
<path d="M3425 3384 c97 -88 130 -107 54 -30 -42 42 -83 76 -90 76 -8 -1 9
-21 36 -46z"/>
<path d="M4362 3380 c-7 -78 -57 -310 -88 -405 -33 -101 -52 -143 -106 -232
-37 -63 -9 -33 38 40 108 166 170 376 162 547 -2 41 -5 64 -6 50z"/>
<path d="M3320 3363 c0 -8 46 -47 113 -96 63 -46 36 -7 -34 50 -62 51 -79 61
-79 46z"/>
<path d="M4000 3171 c0 -5 7 -15 17 -22 15 -13 15 -12 4 9 -12 23 -21 28 -21
13z"/>
<path d="M2535 2972 c-45 -42 -73 -74 -160 -181 -33 -41 -122 -145 -199 -230
-117 -132 -313 -379 -341 -431 -22 -40 62 53 198 220 83 102 196 237 251 300
56 63 128 149 160 190 33 41 77 96 98 123 22 26 38 47 36 47 -2 0 -21 -17 -43
-38z"/>
<path d="M2109 2852 c-40 -48 -94 -112 -120 -142 -40 -49 -207 -269 -338 -448
-25 -34 -88 -117 -140 -185 -132 -173 -231 -325 -224 -344 5 -12 2 -15 -10
-10 -16 6 -77 -52 -77 -74 0 -5 -17 -28 -38 -52 -71 -79 -272 -369 -272 -393
0 -32 30 -9 94 74 100 128 216 289 216 299 0 5 23 33 50 62 28 29 50 59 50 67
0 13 82 121 216 283 109 133 355 468 482 656 64 94 133 196 155 227 23 32 38
60 36 63 -3 3 -39 -35 -80 -83z"/>
<path d="M3910 2886 c0 -17 130 -106 155 -106 17 0 -84 83 -132 109 -19 10
-23 9 -23 -3z"/>
<path d="M3907 2777 c52 -42 68 -49 29 -13 -22 20 -43 36 -48 36 -5 0 3 -10
19 -23z"/>
<path d="M4378 2601 c-80 -163 -101 -221 -80 -221 19 0 145 303 130 314 -1 1
-24 -41 -50 -93z"/>
<path d="M4335 2619 c-4 -6 -5 -12 -2 -15 2 -3 7 2 10 11 7 17 1 20 -8 4z"/>
<path d="M4040 2556 c0 -2 7 -7 16 -10 8 -3 12 -2 9 4 -6 10 -25 14 -25 6z"/>
<path d="M4260 2536 c0 -2 7 -9 15 -16 9 -7 15 -8 15 -2 0 5 -7 12 -15 16 -8
3 -15 4 -15 2z"/>
<path d="M4240 2471 c-7 -15 -7 -21 0 -21 12 0 25 28 17 36 -3 3 -10 -4 -17
-15z"/>
<path d="M4180 2396 c0 -2 7 -7 16 -10 8 -3 12 -2 9 4 -6 10 -25 14 -25 6z"/>
<path d="M4250 2349 c0 -4 7 -9 15 -13 9 -3 15 0 15 8 0 7 -7 13 -15 13 -8 0
-15 -4 -15 -8z"/>
<path d="M1746 2014 c-51 -62 -62 -93 -18 -51 24 24 77 107 68 107 -2 0 -24
-25 -50 -56z"/>
<path d="M2990 3232 c0 -17 60 -101 79 -111 30 -17 39 -13 15 7 -12 9 -35 38
-53 65 -31 46 -41 55 -41 39z"/>
<path d="M3250 3074 c0 -6 15 -23 32 -40 l33 -29 -25 30 c-14 17 -28 34 -32
40 -5 5 -8 5 -8 -1z"/>
<path d="M2940 3052 c0 -25 150 -245 231 -341 48 -56 48 -56 29 -76 -22 -24
-26 -65 -8 -83 18 -18 59 -15 82 6 21 18 22 18 60 -25 33 -37 36 -44 21 -49
-10 -4 -21 -1 -25 7 -5 7 -12 10 -16 6 -4 -4 0 -13 10 -20 10 -7 17 -22 15
-32 -4 -16 -7 -15 -35 9 -27 22 -64 35 -64 23 0 -13 89 -97 103 -97 9 0 17 -4
17 -9 0 -12 69 -35 78 -27 3 4 -1 14 -10 23 -15 15 -15 17 5 33 19 16 25 16
49 4 15 -8 44 -28 63 -46 20 -17 38 -29 40 -26 2 2 -85 94 -194 203 -181 184
-253 269 -385 458 -43 61 -66 82 -66 59z m300 -457 c10 -12 10 -19 2 -27 -15
-15 -48 14 -38 31 10 15 21 14 36 -4z m180 -177 c0 -13 -27 -9 -40 7 -19 23
-1 39 21 19 10 -9 19 -21 19 -26z"/>
<path d="M3205 2951 c54 -68 95 -109 95 -94 0 6 -19 35 -42 63 -24 29 -49 61
-57 71 -7 11 -20 19 -28 19 -9 0 3 -22 32 -59z"/>
<path d="M2721 2984 c0 -11 3 -14 6 -6 3 7 2 16 -1 19 -3 4 -6 -2 -5 -13z"/>
<path d="M2809 2882 c6 -12 16 -24 22 -28 8 -4 8 -1 0 14 -6 12 -16 24 -22 28
-8 4 -8 1 0 -14z"/>
<path d="M3536 2778 c54 -58 112 -109 84 -73 -27 34 -118 125 -126 125 -3 0
15 -24 42 -52z"/>
<path d="M3420 2760 c0 -19 167 -177 226 -215 56 -36 69 -42 59 -25 -13 21
-285 250 -285 240z"/>
<path d="M3520 2725 c44 -45 50 -50 50 -40 0 11 -73 85 -83 85 -6 0 9 -20 33
-45z"/>
<path d="M3370 2723 c0 -21 176 -191 277 -269 82 -63 122 -70 48 -9 -27 22
-104 94 -171 159 -136 132 -154 146 -154 119z"/>
<path d="M3394 2595 c55 -52 103 -95 109 -95 5 0 -7 21 -26 48 -33 44 -150
140 -172 141 -5 0 35 -42 89 -94z"/>
<path d="M3742 2578 c7 -7 22 -20 33 -28 15 -10 14 -7 -4 13 -14 15 -29 27
-33 27 -5 0 -3 -6 4 -12z"/>
<path d="M3850 2496 c0 -2 8 -10 18 -17 15 -13 16 -12 3 4 -13 16 -21 21 -21
13z"/>
<path d="M3204 2433 c13 -26 42 -55 134 -138 l33 -30 -13 31 c-15 35 -137 164
-156 164 -10 0 -9 -6 2 -27z"/>
<path d="M3580 2434 c8 -8 23 -20 34 -26 19 -10 18 -8 -3 16 -26 27 -53 37
-31 10z"/>
<path d="M2410 2416 c0 -2 7 -7 16 -10 8 -3 12 -2 9 4 -6 10 -25 14 -25 6z"/>
<path d="M3955 2410 c3 -4 22 -18 42 -30 24 -14 32 -16 24 -6 -14 17 -75 50
-66 36z"/>
<path d="M3190 2367 c0 -28 143 -163 160 -152 10 6 -100 126 -137 151 -18 11
-23 12 -23 1z"/>
<path d="M2396 2327 c3 -10 9 -15 12 -12 3 3 0 11 -7 18 -10 9 -11 8 -5 -6z"/>
<path d="M3910 2286 c0 -2 7 -9 15 -16 13 -11 14 -10 9 4 -5 14 -24 23 -24 12z"/>
<path d="M2240 2251 c0 -6 4 -13 10 -16 6 -3 7 1 4 9 -7 18 -14 21 -14 7z"/>
<path d="M3725 2176 c17 -14 41 -31 55 -38 14 -7 40 -23 58 -36 40 -30 41 -23
3 20 -16 18 -29 38 -29 43 0 6 -11 17 -23 25 -20 13 -22 13 -17 0 2 -8 10 -15
16 -15 5 0 14 -3 18 -7 14 -15 -17 -8 -56 12 -52 27 -61 25 -25 -4z"/>
<path d="M2160 2171 c0 -6 4 -13 10 -16 6 -3 7 1 4 9 -7 18 -14 21 -14 7z"/>
<path d="M3489 2057 c19 -20 36 -37 38 -37 10 0 -14 29 -40 49 l-32 25 34 -37z"/>
<path d="M3433 2012 c10 -10 38 -34 63 -52 37 -26 44 -29 35 -12 -10 19 -93
82 -108 82 -3 0 1 -8 10 -18z"/>
<path d="M3661 1907 c2 -1 13 -9 24 -17 19 -14 19 -14 6 3 -7 9 -18 17 -24 17
-6 0 -8 -1 -6 -3z"/>
<path d="M3075 1790 c4 -6 11 -8 16 -5 14 9 11 15 -7 15 -8 0 -12 -5 -9 -10z"/>
<path d="M3140 1706 c0 -2 16 -13 35 -25 19 -11 35 -16 35 -11 0 5 -13 16 -30
25 -30 15 -40 18 -40 11z"/>
<path d="M2885 1680 c3 -5 11 -10 16 -10 6 0 7 5 4 10 -3 6 -11 10 -16 10 -6
0 -7 -4 -4 -10z"/>
<path d="M1220 1274 c0 -15 101 -146 108 -139 3 2 -7 22 -21 43 -33 50 -87
109 -87 96z"/>
<path d="M1442 940 c33 -44 76 -82 81 -72 3 4 -21 30 -51 57 -49 44 -53 46
-30 15z"/>
<path d="M1370 902 c6 -13 14 -21 18 -18 3 4 -2 14 -12 24 -18 16 -18 16 -6
-6z"/>
<path d="M2966 1492 c126 -91 284 -187 284 -173 0 10 -73 60 -217 150 -88 54
-132 70 -67 23z"/>
<path d="M4792 6093 c-34 -54 -21 -61 15 -9 18 26 27 46 20 46 -6 -1 -22 -17
-35 -37z"/>
<path d="M4865 6079 c-10 -31 0 -33 19 -4 14 21 14 25 2 25 -8 0 -18 -9 -21
-21z"/>
<path d="M5470 6096 c0 -1 5 -17 11 -35 12 -35 35 -43 25 -8 -3 12 -6 28 -6
35 0 6 -7 12 -15 12 -8 0 -15 -2 -15 -4z"/>
<path d="M4960 6054 c0 -9 5 -14 12 -12 18 6 21 28 4 28 -9 0 -16 -7 -16 -16z"/>
<path d="M4742 6008 c-14 -14 -16 -38 -3 -38 10 0 26 39 19 46 -2 2 -10 -2
-16 -8z"/>
<path d="M4646 5802 c-27 -59 -52 -111 -54 -116 -3 -5 0 -6 7 -2 13 8 111 199
111 216 0 29 -20 -1 -64 -98z"/>
<path d="M4937 5793 c-4 -3 -7 -13 -7 -22 1 -13 3 -13 11 2 11 19 8 33 -4 20z"/>
<path d="M4215 5770 c-3 -5 -1 -10 4 -10 6 0 11 5 11 10 0 6 -2 10 -4 10 -3 0
-8 -4 -11 -10z"/>
<path d="M5004 5757 c-8 -34 1 -46 14 -20 6 11 7 25 2 33 -6 10 -10 7 -16 -13z"/>
<path d="M5142 5745 c0 -16 2 -22 5 -12 2 9 2 23 0 30 -3 6 -5 -1 -5 -18z"/>
<path d="M4160 5681 c-6 -12 -7 -21 -1 -21 10 0 24 30 17 37 -2 3 -9 -5 -16
-16z"/>
<path d="M4542 5588 c-24 -38 -56 -117 -51 -123 2 -2 21 32 41 76 39 84 42 99
10 47z"/>
<path d="M76 5249 c-33 -21 -63 -39 -68 -39 -4 0 -7 -112 -7 -249 l0 -250 87
4 87 4 -65 -10 c-97 -15 -110 -19 -110 -28 0 -12 367 -21 505 -12 66 4 190 5
275 1 l155 -6 -206 -2 c-274 -3 -431 -12 -398 -25 14 -5 139 -6 304 -2 277 7
325 9 662 39 142 13 392 16 1442 16 698 1 1283 5 1298 9 68 18 -182 22 -1394
20 l-1278 -2 -49 24 c-28 13 -52 30 -54 37 -3 10 295 12 1545 12 851 -1 1556
2 1566 5 9 4 17 13 17 21 0 17 105 16 -1709 19 l-1444 2 -20 39 c-10 21 -32
53 -47 69 -16 17 -32 43 -36 58 -4 20 -20 35 -53 53 -25 13 -54 30 -63 36 -14
10 -21 9 -37 -6 -12 -11 -21 -24 -21 -30 0 -6 -14 -36 -30 -66 -17 -30 -41
-79 -55 -107 l-25 -53 -157 0 c-87 0 -162 4 -168 8 -5 4 -21 30 -35 57 -32 64
-91 129 -133 146 -50 20 -65 37 -87 105 -21 64 -37 82 -110 127 -24 14 -28 13
-84 -24z m102 -45 c31 -21 45 -53 76 -175 25 -95 56 -162 70 -149 3 3 1 31 -3
63 -4 31 -5 57 -2 57 17 0 72 -43 96 -74 29 -38 65 -124 65 -156 0 -18 -7 -20
-80 -20 -44 0 -80 3 -80 7 0 4 10 17 23 31 l22 24 -27 -7 c-24 -6 -30 -3 -45
23 -9 16 -31 37 -49 47 -34 18 -76 87 -141 230 -16 36 -18 38 -21 16 -2 -14 4
-74 13 -134 9 -60 15 -111 12 -113 -3 -3 -12 26 -21 63 -9 37 -25 100 -36 138
-10 39 -20 73 -20 77 0 10 92 68 109 68 9 0 27 -7 39 -16z m878 -192 c49 -47
107 -134 132 -197 13 -33 28 -64 33 -69 17 -19 9 -25 -17 -16 -37 15 -85 50
-80 59 3 4 -2 17 -10 29 -13 19 -21 21 -55 16 -39 -7 -39 -7 -33 23 5 25 2 31
-15 36 -18 4 -21 13 -21 54 0 97 17 113 66 65z m-999 -54 c-3 -8 -6 -5 -6 6
-1 11 2 17 5 13 3 -3 4 -12 1 -19z m10 -65 c-3 -10 -5 -2 -5 17 0 19 2 27 5
18 2 -10 2 -26 0 -35z m771 -115 c-24 -38 -95 -68 -158 -67 -49 1 -52 2 -22 9
19 4 39 13 45 19 8 8 -12 11 -74 12 -108 1 -77 17 36 18 44 1 98 8 120 16 60
21 71 20 53 -7z m-319 -82 c-2 -2 -27 -6 -56 -10 -28 -3 -58 -9 -67 -12 -20
-7 -69 4 -62 14 2 4 46 9 97 10 51 1 91 1 88 -2z m529 -33 c-10 -2 -28 -2 -40
0 -13 2 -5 4 17 4 22 1 32 -1 23 -4z"/>
<path d="M5824 4833 c-156 -3 -173 -5 -189 -23 -18 -20 -16 -20 398 -20 l417
0 0 25 0 25 -227 -2 c-126 -1 -305 -4 -399 -5z"/>
<path d="M2503 4760 c-155 -3 -285 -8 -289 -12 -4 -5 379 -8 852 -8 472 0 936
-5 1031 -10 94 -5 180 -6 192 -3 48 12 14 21 -101 27 -170 8 -1341 12 -1685 6z"/>
<path d="M1598 4743 c89 -2 235 -2 325 0 89 1 16 3 -163 3 -179 0 -252 -2
-162 -3z"/>
<path d="M5560 4731 c0 -4 66 -11 148 -15 81 -4 183 -11 227 -16 44 -5 178
-11 298 -15 178 -4 217 -3 217 8 0 11 -50 15 -252 21 -139 3 -275 11 -303 16
-64 11 -335 13 -335 1z"/>
<path d="M5556 4672 c-3 -5 1 -13 10 -16 29 -11 884 -20 884 -9 0 7 -121 13
-347 17 -192 3 -391 9 -444 12 -61 4 -99 3 -103 -4z"/>
<path d="M2520 4660 c-188 -13 -233 -14 -754 -5 -378 6 -497 5 -492 -3 5 -9
76 -12 249 -12 297 0 652 -15 852 -37 207 -23 224 -31 70 -33 -173 -3 -119
-14 135 -29 107 -7 274 -19 370 -27 228 -20 302 -21 753 -10 342 8 381 11 400
27 21 18 19 18 -93 18 -63 1 -182 -4 -265 -10 -89 -6 -233 -7 -355 -2 -187 7
-197 8 -115 14 50 4 137 7 195 8 72 1 100 4 90 11 -8 5 -42 10 -76 10 -104 0
-244 13 -244 21 0 5 10 9 23 9 30 0 67 11 67 19 0 4 -208 6 -462 5 -335 -1
-420 1 -308 6 85 5 349 8 587 7 246 -1 425 2 416 7 -20 11 -896 17 -1043 6z
m378 -87 c-10 -2 -26 -2 -35 0 -10 3 -2 5 17 5 19 0 27 -2 18 -5z m300 0 c-32
-2 -86 -2 -120 0 -35 2 -9 3 57 3 66 0 94 -1 63 -3z m-505 -10 c-13 -2 -33 -2
-45 0 -13 2 -3 4 22 4 25 0 35 -2 23 -4z"/>
<path d="M0 4632 c0 -16 8 -18 68 -15 85 5 114 11 107 23 -3 6 -44 10 -91 10
-74 0 -84 -2 -84 -18z"/>
<path d="M3750 4640 c37 -7 399 -14 450 -9 8 0 4 5 -10 9 -14 4 -128 8 -255 8
-143 0 -213 -3 -185 -8z"/>
<path d="M460 4611 c-57 -11 69 -20 374 -28 227 -5 268 -4 264 8 -2 7 -15 16
-29 20 -31 9 -562 9 -609 0z"/>
<path d="M1655 4610 c-11 -5 -40 -9 -64 -9 -100 -2 -19 -14 176 -27 286 -18
283 -19 193 17 -67 26 -86 29 -180 28 -58 0 -114 -4 -125 -9z"/>
<path d="M5473 4595 c-3 -9 -2 -19 2 -23 8 -8 723 -5 873 4 268 16 -16 34
-541 34 -286 0 -328 -2 -334 -15z"/>
<path d="M3790 4586 l-145 -11 249 -3 c225 -2 268 0 255 12 -12 10 -233 12
-359 2z"/>
<path d="M970 4568 c-74 -5 -270 -6 -435 -2 -250 5 -298 3 -287 -8 10 -10 88
-13 385 -13 408 1 729 14 642 26 -62 9 -133 8 -305 -3z"/>
<path d="M35 4565 c23 -8 175 -11 163 -4 -7 5 -49 8 -93 8 -44 0 -75 -2 -70
-4z"/>
<path d="M0 4521 l0 -30 118 -4 c64 -3 529 -7 1032 -10 503 -2 996 -7 1095
-11 239 -8 202 9 -50 23 -262 15 -1211 35 -1298 27 -135 -11 -788 -9 -800 3
-8 8 -1 11 26 11 20 0 37 5 37 10 0 6 -33 10 -80 10 l-80 0 0 -29z m75 -1 c4
-6 -5 -10 -19 -10 -14 0 -26 5 -26 10 0 6 9 10 19 10 11 0 23 -4 26 -10z"/>
<path d="M2108 4533 c7 -3 16 -2 19 1 4 3 -2 6 -13 5 -11 0 -14 -3 -6 -6z"/>
<path d="M5609 4501 c-152 -5 -210 -10 -222 -20 -9 -7 -14 -17 -11 -22 7 -12
189 -11 459 1 121 6 309 13 418 16 159 5 197 9 197 20 0 12 -52 14 -317 12
-175 -1 -411 -4 -524 -7z"/>
<path d="M19 4473 c-9 -2 -16 -15 -17 -31 l-1 -28 232 -1 c231 -2 305 3 242
18 -16 4 -88 8 -160 9 -72 1 -161 6 -200 9 -72 7 -69 10 25 24 14 3 -4 4 -40
4 -36 1 -72 -1 -81 -4z"/>
<path d="M3260 4445 c-8 -3 -289 -9 -625 -15 -1399 -24 -1682 -34 -1820 -59
l-40 -8 60 -8 c36 -5 249 -1 525 9 256 9 654 21 885 26 231 6 508 15 615 20
137 8 241 8 350 1 165 -12 718 -13 770 -2 75 15 6 22 -260 25 -157 3 -321 7
-365 10 -44 3 -87 3 -95 1z"/>
<path d="M5809 4403 c-393 -3 -458 -5 -469 -18 -7 -9 -10 -19 -6 -22 8 -9 459
-7 844 3 257 6 272 7 272 25 0 17 -8 19 -92 17 -51 -2 -298 -4 -549 -5z"/>
<path d="M0 4391 c0 -8 200 -3 209 5 2 2 -44 4 -102 4 -59 0 -107 -4 -107 -9z"/>
<path d="M2150 4360 c-52 -5 -124 -13 -160 -18 l-65 -8 45 -8 c25 -4 246 -6
493 -4 246 2 447 0 447 -3 0 -7 -180 -16 -475 -24 -397 -10 -530 -17 -538 -25
-29 -27 489 -19 898 14 111 9 214 11 335 5 244 -11 590 -11 590 0 0 5 -48 12
-107 15 -186 12 -175 14 70 13 197 -1 240 1 247 13 5 8 6 18 1 23 -11 11 -726
14 -834 4 -48 -5 -85 -13 -81 -18 3 -5 69 -10 147 -11 l142 -2 -170 -6 c-93
-3 -177 -3 -185 2 -11 5 -9 7 8 8 33 0 27 17 -10 24 -53 11 -694 15 -798 6z"/>
<path d="M38 4343 c23 -2 59 -2 80 0 20 2 1 4 -43 4 -44 0 -61 -2 -37 -4z"/>
<path d="M0 4316 c0 -10 17 -16 63 -21 154 -16 1450 -7 1657 12 56 5 61 7 40
15 -16 7 -146 7 -365 2 -394 -10 -727 -10 -1117 0 -240 6 -278 5 -278 -8z"/>
<path d="M5355 4321 c-67 -5 -80 -9 -83 -25 -4 -18 7 -18 305 -12 169 3 395 6
501 6 114 0 191 4 188 9 -4 5 -39 12 -79 15 -107 8 -740 13 -832 7z"/>
<path d="M1050 4258 c-80 -5 -260 -7 -400 -5 -262 4 -295 -7 -55 -19 133 -7
753 12 848 26 75 11 -210 9 -393 -2z"/>
<path d="M5695 4250 c-388 -7 -448 -12 -478 -39 -18 -15 -18 -16 12 -22 16 -3
67 -3 113 2 46 4 130 13 188 18 58 6 288 12 512 13 318 2 408 6 408 16 0 9
-26 12 -97 12 -54 0 -141 2 -193 4 -52 2 -261 0 -465 -4z"/>
<path d="M13 4243 c-16 -6 -17 -29 -2 -38 5 -4 40 -9 77 -11 73 -5 156 -18
186 -30 18 -7 18 -6 2 18 -25 39 -54 47 -211 63 -22 2 -46 1 -52 -2z"/>
<path d="M2895 4218 c-110 -3 -333 -11 -495 -17 -162 -6 -320 -11 -350 -12
l-55 -2 55 -7 c90 -13 454 -12 467 1 8 8 67 10 185 8 305 -6 1042 3 1061 13 9
5 17 12 17 16 0 9 -616 9 -885 0z"/>
<path d="M780 4199 c-91 -5 -196 -13 -235 -18 -59 -8 -47 -9 80 -6 83 3 292 8
465 11 173 4 322 10 330 15 18 10 -413 9 -640 -2z"/>
<path d="M43 4162 c-30 -2 -43 -8 -43 -18 0 -12 11 -14 52 -12 28 2 53 8 55
14 5 15 -13 20 -64 16z"/>
<path d="M915 4151 c-58 -7 -57 -8 35 -10 52 -1 150 -6 218 -11 251 -20 558
-29 952 -31 223 -1 522 -4 665 -8 364 -11 898 12 931 40 30 25 13 31 -68 26
-46 -3 -128 -10 -183 -15 -188 -20 -680 -33 -840 -23 -82 6 -343 10 -580 10
-236 0 -484 5 -550 10 -163 14 -506 21 -580 12z"/>
<path d="M5435 4145 c-55 -7 -139 -14 -187 -14 -83 -1 -113 -10 -86 -28 17
-11 204 -6 277 7 43 8 314 27 414 30 4 0 7 5 7 10 0 14 -302 10 -425 -5z"/>
<path d="M6220 4150 c-85 -9 -73 -11 93 -19 126 -5 137 -5 137 12 0 15 -10 17
-82 15 -46 -1 -112 -4 -148 -8z"/>
<path d="M407 4108 c2 -5 20 -8 39 -8 19 0 34 -4 34 -9 0 -5 -44 -12 -97 -16
-54 -3 -108 -10 -121 -16 -13 -5 -46 -9 -75 -9 -96 0 -187 -12 -187 -25 0 -20
932 -39 976 -20 34 15 -79 23 -343 24 -138 1 -254 5 -257 10 -9 13 157 21 488
22 322 1 379 13 112 24 -78 3 -188 11 -246 17 -121 13 -330 17 -323 6z"/>
<path d="M5515 4070 c-109 -5 -110 -5 -46 -12 95 -12 555 -8 511 3 -41 11
-309 16 -465 9z"/>
<path d="M2000 4061 c0 -16 188 -24 390 -17 347 12 328 23 -42 25 -203 0 -348
-3 -348 -8z"/>
<path d="M3090 4050 c-52 -4 -131 -8 -176 -9 -62 -1 -81 -4 -81 -15 0 -11 29
-16 129 -21 70 -4 128 -11 128 -16 0 -5 -15 -10 -32 -10 -20 -1 -25 -3 -14 -6
10 -3 39 -2 65 2 36 6 42 9 26 15 -13 5 -2 8 35 8 77 1 154 23 158 45 3 15 -5
17 -70 15 -40 -1 -116 -5 -168 -8z"/>
<path d="M2758 4043 c7 -3 16 -2 19 1 4 3 -2 6 -13 5 -11 0 -14 -3 -6 -6z"/>
<path d="M1208 4023 c-132 -3 -188 -7 -188 -15 0 -13 516 -3 585 11 42 9 -14
10 -397 4z"/>
<path d="M5148 4003 c7 -3 16 -2 19 1 4 3 -2 6 -13 5 -11 0 -14 -3 -6 -6z"/>
<path d="M2196 3990 c-49 -5 -93 -13 -99 -19 -7 -7 72 -8 244 -4 241 5 268 7
258 17 -9 10 -320 14 -403 6z"/>
<path d="M6440 3997 c-16 -16 -467 -26 -840 -18 -390 7 -548 4 -525 -10 24
-15 127 -19 545 -20 374 -1 814 13 829 26 1 2 1 9 -1 15 -2 6 -6 9 -8 7z"/>
<path d="M0 3979 c0 -16 166 -33 515 -55 100 -7 760 5 752 13 -3 2 -193 8
-423 13 -231 5 -441 14 -469 19 -55 11 -375 20 -375 10z"/>
<path d="M1487 3929 c10 -4 74 -12 143 -19 69 -6 175 -16 235 -22 121 -11 426
-4 452 10 11 7 -49 12 -173 16 -104 4 -251 11 -327 17 -142 11 -361 9 -330 -2z"/>
<path d="M0 3912 c0 -6 18 -13 41 -17 56 -10 228 -21 262 -17 50 6 28 20 -40
26 -180 15 -263 17 -263 8z"/>
<path d="M795 3899 c-55 -4 -180 -10 -277 -14 -98 -4 -178 -10 -178 -15 0 -19
456 -26 650 -10 63 5 160 12 215 16 55 3 101 7 103 9 1 1 -31 8 -73 14 -84 12
-285 12 -440 0z"/>
<path d="M2520 3900 c132 -8 401 -14 435 -10 15 2 12 4 -10 10 -16 4 -147 7
-290 7 -217 0 -239 -1 -135 -7z"/>
<path d="M5455 3900 c-60 -4 -139 -13 -175 -19 -36 -6 -94 -11 -130 -11 -36 0
-72 -5 -80 -10 -19 -13 136 -13 370 0 96 5 315 12 485 17 l310 7 -160 12
c-177 13 -451 15 -620 4z"/>
<path d="M0 3852 c0 -16 10 -20 65 -26 36 -4 71 -4 77 0 14 9 -36 29 -95 38
-42 7 -47 5 -47 -12z"/>
<path d="M2205 3839 c-82 -4 -197 -13 -253 -18 -197 -20 -430 -24 -587 -10
-147 13 -410 14 -937 3 -131 -2 -238 -8 -238 -12 0 -4 13 -11 28 -16 23 -7
570 -10 947 -5 61 1 259 0 440 -1 224 -2 359 1 420 10 50 7 256 15 462 19 204
3 375 9 379 14 4 4 4 10 0 15 -11 10 -483 12 -661 1z"/>
<path d="M5291 3829 c-348 -18 -72 -34 346 -20 177 6 350 11 383 11 38 0 59 4
55 10 -7 12 -550 11 -784 -1z"/>
<path d="M4926 3763 c-16 -17 16 -23 112 -22 l107 2 -93 7 c-51 5 -99 10 -106
13 -8 3 -17 3 -20 0z"/>
<path d="M5525 3762 c-33 -4 -55 -10 -48 -15 16 -10 794 -28 893 -20 48 3 80
10 80 17 0 8 -62 11 -202 11 -112 0 -306 3 -433 7 -126 3 -257 3 -290 0z"/>
<path d="M433 3743 c20 -2 54 -2 75 0 20 2 3 4 -38 4 -41 0 -58 -2 -37 -4z"/>
<path d="M630 3742 c-43 -7 -42 -8 34 -15 99 -9 295 -8 361 3 l50 7 -66 2
c-36 0 -126 3 -200 5 -74 3 -154 1 -179 -2z"/>
<path d="M2660 3729 c-25 -4 -120 -8 -212 -8 -170 -1 -227 -13 -116 -25 171
-18 398 2 398 34 0 11 -5 11 -70 -1z"/>
<path d="M0 3701 c0 -12 94 -20 157 -14 29 3 50 10 47 14 -7 12 -204 12 -204
0z"/>
<path d="M5562 3690 c-592 -4 -684 -7 -692 -20 -5 -8 -10 -18 -10 -22 0 -4
303 -5 673 -3 369 2 727 4 795 4 l122 1 0 25 0 25 -102 -2 c-57 -2 -410 -5
-786 -8z"/>
<path d="M945 3669 c-259 -4 -492 -12 -520 -18 -63 -13 -239 -14 -302 -2 -107
21 -123 21 -123 2 0 -23 16 -26 188 -42 106 -10 160 -10 270 0 83 8 321 14
597 16 289 2 477 7 505 13 25 6 140 14 257 18 117 4 210 11 207 16 -6 9 -356
8 -1079 -3z"/>
<path d="M1585 3608 c-44 -5 -294 -11 -555 -13 -467 -3 -680 -10 -680 -24 0
-11 1114 -4 1290 8 91 6 208 18 260 25 l95 14 -165 -1 c-91 0 -201 -4 -245 -9z"/>
<path d="M2076 3591 c-8 -13 86 -21 244 -20 105 0 138 3 120 10 -30 12 -357
21 -364 10z"/>
<path d="M5345 3581 c11 -5 45 -10 75 -10 30 -1 134 -10 230 -20 192 -22 329
-29 613 -36 175 -3 187 -2 187 14 0 17 -15 19 -182 25 -101 3 -244 10 -318 15
-210 15 -628 23 -605 12z"/>
<path d="M590 3536 c-69 -8 -96 -15 -80 -19 14 -3 169 -8 345 -9 l320 -4 -75
18 c-99 23 -369 31 -510 14z"/>
<path d="M1485 3543 c-121 -14 -195 -26 -192 -30 6 -5 344 -4 374 1 12 3 82 8
155 13 l133 8 -90 6 c-95 7 -329 9 -380 2z"/>
<path d="M0 3505 c0 -8 1 -15 3 -15 1 0 22 7 47 14 l45 15 -47 0 c-36 1 -48
-3 -48 -14z"/>
<path d="M4812 3479 c-56 -22 -4 -29 225 -29 130 0 234 2 231 5 -3 3 -61 12
-129 20 -139 16 -292 18 -327 4z"/>
<path d="M6310 3482 c0 -9 127 -23 139 -15 11 8 -12 14 -73 20 -44 4 -66 2
-66 -5z"/>
<path d="M5438 3461 c-47 -3 -89 -9 -92 -12 -10 -9 188 -19 398 -20 109 0 225
-6 271 -13 44 -8 82 -12 84 -10 8 7 -86 25 -234 44 -157 20 -255 22 -427 11z"/>
<path d="M1760 3438 c-102 -5 -315 -9 -474 -9 -158 0 -286 -2 -283 -5 3 -3 63
-9 133 -15 71 -5 142 -14 157 -20 35 -15 191 -8 507 21 227 21 356 22 518 4
42 -5 52 -3 52 9 0 8 -13 17 -31 21 -41 8 -346 5 -579 -6z"/>
<path d="M40 3431 c-32 -5 -35 -9 -38 -44 -3 -35 -1 -39 35 -53 21 -9 73 -27
116 -41 42 -13 77 -27 77 -29 0 -8 -114 7 -120 15 -6 8 -81 31 -99 31 -6 0
-11 -6 -11 -14 0 -9 19 -16 53 -22 l52 -8 -53 -4 c-48 -3 -52 -5 -52 -28 0
-24 1 -24 97 -24 107 0 113 -11 14 -29 -90 -17 -111 -29 -111 -60 l0 -27 134
27 c73 14 148 31 166 38 41 14 40 14 40 -3 0 -16 -34 -28 -130 -46 -119 -23
-94 -33 67 -27 121 5 163 3 205 -9 83 -25 81 -34 -8 -34 -43 0 -144 -11 -224
-25 -80 -14 -169 -25 -197 -25 -46 0 -53 -3 -53 -20 0 -24 5 -25 146 -4 210
31 417 18 668 -41 59 -14 170 -33 245 -41 75 -9 138 -18 140 -20 8 -8 -164 -4
-279 6 -63 6 -153 21 -200 34 -149 43 -215 43 -455 2 -50 -8 -129 -18 -177
-21 -66 -5 -88 -10 -88 -21 0 -19 73 -18 255 1 188 20 278 19 431 -5 152 -24
469 -39 809 -38 256 0 355 7 356 23 0 10 -17 13 -296 40 -286 27 -630 86 -835
141 -94 26 -138 43 -178 72 -29 20 -83 53 -119 72 -49 26 -79 51 -113 95 l-47
60 36 8 c20 4 43 8 51 8 8 1 35 10 60 22 57 26 33 33 -46 13 -141 -35 -186
-29 -169 25 5 14 2 25 -6 30 -16 10 -95 10 -149 0z"/>
<path d="M6355 3410 c28 -12 95 -12 95 0 0 6 -25 10 -57 9 -42 0 -52 -3 -38
-9z"/>
<path d="M700 3391 c0 -25 215 -85 362 -101 166 -17 222 -14 518 29 105 15
356 32 482 32 118 1 151 11 81 26 -101 21 -446 -2 -718 -48 -91 -16 -141 -19
-205 -14 -129 10 -337 41 -427 64 -93 24 -93 24 -93 12z"/>
<path d="M5140 3310 c-58 -4 -156 -11 -217 -15 -62 -5 -113 -12 -113 -16 0
-17 100 -21 294 -14 231 9 684 8 894 -1 95 -5 142 -3 142 4 0 6 -47 13 -117
16 -65 4 -197 11 -293 16 -282 15 -478 19 -590 10z"/>
<path d="M433 3297 c-35 -6 -63 -13 -63 -17 0 -3 17 -23 39 -44 l39 -38 46 16
c26 9 54 16 64 16 9 0 24 4 32 10 29 18 2 19 -70 0 -52 -12 -79 -15 -87 -8
-26 21 -13 37 42 48 30 6 55 16 55 21 0 10 -10 10 -97 -4z"/>
<path d="M1745 3286 c-5 -2 -56 -10 -113 -17 -56 -7 -99 -15 -96 -18 3 -3 121
-6 262 -6 142 -1 289 -5 327 -9 80 -10 79 0 -3 27 -44 15 -93 20 -212 23 -85
2 -159 2 -165 0z"/>
<path d="M4912 3218 c-61 -6 -101 -15 -99 -21 2 -7 156 -11 446 -11 244 -1
440 -1 435 1 -5 1 -65 9 -134 18 -157 20 -512 27 -648 13z"/>
<path d="M549 3187 c7 -9 32 -22 55 -28 22 -5 49 -13 60 -16 12 -3 16 -1 12 6
-4 6 -28 17 -54 25 -26 8 -56 18 -67 22 -18 7 -18 6 -6 -9z"/>
<path d="M732 3179 c25 -14 407 -14 421 0 8 8 -50 11 -214 11 -155 -1 -219 -4
-207 -11z"/>
<path d="M1941 3146 c2 -2 38 -6 79 -9 44 -3 67 -2 55 3 -19 8 -143 14 -134 6z"/>
<path d="M5185 3143 c-22 -1 -69 -6 -105 -10 l-65 -7 65 -7 c119 -13 477 -20
451 -9 -65 29 -221 44 -346 33z"/>
<path d="M910 3121 c-74 -5 -81 -7 -50 -15 73 -17 554 -13 510 5 -8 3 -53 7
-100 8 -47 0 -128 3 -180 5 -52 2 -133 1 -180 -3z"/>
<path d="M758 3113 c7 -3 16 -2 19 1 4 3 -2 6 -13 5 -11 0 -14 -3 -6 -6z"/>
<path d="M1708 3113 c6 -2 18 -2 25 0 6 3 1 5 -13 5 -14 0 -19 -2 -12 -5z"/>
<path d="M5905 3100 c-63 -6 -58 -7 50 -8 66 -1 204 -5 308 -9 170 -6 187 -5
187 10 0 15 -22 17 -237 15 -131 -1 -269 -4 -308 -8z"/>
<path d="M785 3072 c17 -18 232 -52 400 -62 88 -6 183 -15 210 -20 131 -25
224 -33 387 -34 160 -1 202 3 186 19 -3 3 -102 10 -219 16 -228 10 -444 30
-455 42 -4 4 33 7 82 8 49 1 100 4 114 9 14 4 -126 10 -310 13 -184 2 -351 8
-370 12 -25 5 -32 4 -25 -3z"/>
<path d="M1913 3053 c15 -2 37 -2 50 0 12 2 0 4 -28 4 -27 0 -38 -2 -22 -4z"/>
<path d="M4820 3046 c0 -13 11 -16 59 -16 33 0 63 5 66 10 3 6 -2 10 -13 10
-11 0 -40 3 -66 6 -38 6 -46 4 -46 -10z"/>
<path d="M5250 3034 c50 -17 91 -24 125 -22 47 3 43 4 -50 20 -55 10 -111 20
-125 23 -14 3 9 -7 50 -21z"/>
<path d="M6200 3040 l-175 -5 90 -13 c115 -18 126 -21 100 -33 -11 -4 -60 -6
-110 -4 -59 3 -81 1 -65 -4 31 -11 182 -13 313 -4 l97 6 0 34 c0 32 -1 33 -37
31 -21 -1 -117 -5 -213 -8z"/>
<path d="M5828 2973 c7 -3 16 -2 19 1 4 3 -2 6 -13 5 -11 0 -14 -3 -6 -6z"/>
<path d="M5593 2963 c31 -2 83 -2 115 0 31 2 5 3 -58 3 -63 0 -89 -1 -57 -3z"/>
<path d="M4830 2921 c0 -20 5 -21 86 -21 91 0 106 13 27 24 -27 4 -63 10 -80
13 -29 4 -33 2 -33 -16z"/>
<path d="M6408 2904 c-3 -3 -97 -7 -209 -9 -112 -2 -287 -9 -389 -15 -102 -5
-300 -15 -440 -21 -561 -22 -540 -21 -540 -37 0 -13 28 -14 223 -8 122 3 344
15 492 26 149 10 385 24 525 30 239 11 365 22 378 35 3 3 -4 5 -15 5 -11 0
-22 -2 -25 -6z"/>
<path d="M363 2803 c-107 -10 -17 -21 295 -34 318 -13 1068 -17 1080 -5 3 3 3
8 0 11 -3 3 -250 10 -549 16 -299 6 -598 12 -664 13 -66 2 -139 1 -162 -1z"/>
<path d="M5623 2770 c-57 -5 -158 -16 -225 -25 -68 -9 -223 -19 -345 -22 -187
-5 -223 -9 -223 -21 0 -13 27 -14 198 -8 108 4 249 11 312 17 63 5 180 9 260
9 175 0 560 21 560 31 0 4 -10 10 -22 14 -36 11 -401 14 -515 5z"/>
<path d="M395 2718 c-154 -5 -306 -8 -337 -8 -44 1 -58 -3 -58 -13 0 -16 167
-15 559 3 112 6 218 11 235 11 23 1 18 4 -19 9 -27 5 -61 8 -75 7 -14 0 -151
-5 -305 -9z"/>
<path d="M5687 2700 c-221 -13 -164 -26 98 -21 66 1 188 -3 270 -10 120 -9
171 -9 253 1 72 9 100 16 93 23 -13 13 -533 18 -714 7z"/>
<path d="M1085 2632 c-118 -10 -310 -15 -627 -16 -419 -1 -458 -2 -458 -18 0
-13 18 -17 108 -25 137 -10 780 -10 982 1 126 7 174 5 256 -8 115 -18 229 -21
219 -6 -3 6 -34 10 -68 10 -80 0 -167 11 -167 20 0 11 44 18 195 31 74 7 135
16 135 21 0 13 -390 7 -575 -10z"/>
<path d="M6110 2631 l-55 -6 70 -9 c39 -4 127 -10 198 -11 120 -3 127 -3 127
16 0 18 -8 19 -142 17 -79 -1 -168 -4 -198 -7z"/>
<path d="M5518 2613 c-43 -2 -78 -7 -78 -11 0 -9 264 -3 350 7 56 7 46 8 -65
8 -71 -1 -165 -3 -207 -4z"/>
<path d="M4820 2585 c0 -16 13 -16 350 5 115 6 107 7 -112 9 -206 1 -238 -1
-238 -14z"/>
<path d="M5388 2593 c7 -3 16 -2 19 1 4 3 -2 6 -13 5 -11 0 -14 -3 -6 -6z"/>
<path d="M6230 2561 c-31 -6 -26 -8 35 -14 120 -12 185 -9 185 8 0 12 -16 15
-92 14 -51 -1 -109 -5 -128 -8z"/>
<path d="M710 2519 c-100 -8 -383 -25 -588 -35 -67 -4 -122 -10 -122 -14 0
-16 271 -21 500 -11 204 9 289 16 529 47 32 4 40 8 30 15 -16 10 -202 9 -349
-2z"/>
<path d="M4804 2505 c-4 -9 -5 -18 -2 -20 7 -8 433 -8 752 0 181 5 312 12 303
16 -8 5 -247 11 -531 15 -470 5 -517 4 -522 -11z"/>
<path d="M5630 2470 c-91 -4 -230 -15 -310 -24 -80 -9 -192 -20 -250 -24
l-105 -8 100 -8 c100 -8 408 6 535 24 84 12 401 12 555 0 327 -26 297 -25 293
-4 -2 15 -13 20 -48 22 -25 1 -118 9 -206 17 -168 16 -286 17 -564 5z"/>
<path d="M1305 2420 c19 -8 223 -14 214 -6 -2 2 -56 6 -119 9 -71 4 -107 3
-95 -3z"/>
<path d="M18 2413 c-10 -2 -18 -12 -18 -20 0 -14 24 -15 218 -9 240 7 324 14
316 27 -5 9 -484 11 -516 2z"/>
<path d="M5800 2400 c-99 -7 -120 -10 -235 -38 l-70 -17 65 -3 c36 -2 109 2
163 7 54 6 222 11 375 11 272 0 352 5 352 20 0 17 -492 32 -650 20z"/>
<path d="M1010 2377 c16 -16 153 -39 266 -44 158 -7 202 3 99 23 -70 14 -375
31 -365 21z"/>
<path d="M52 2333 c-41 -3 -52 -8 -52 -21 0 -16 33 -17 427 -20 395 -2 516
-10 396 -25 -26 -4 -109 -15 -183 -26 -74 -12 -166 -21 -204 -21 -38 0 -67 -3
-63 -6 9 -9 383 -5 487 6 52 5 185 14 296 19 205 10 238 15 231 35 -5 14 -243
42 -467 54 -162 10 -764 13 -868 5z"/>
<path d="M6220 2319 c-253 -12 -257 -28 -8 -28 113 -1 213 2 222 5 30 11 18
34 -16 32 -18 0 -107 -5 -198 -9z"/>
<path d="M4743 2284 c-7 -3 -13 -11 -13 -17 0 -12 98 -15 280 -9 59 2 72 5 62
15 -13 12 -303 22 -329 11z"/>
<path d="M0 2240 c0 -5 12 -10 26 -10 14 0 23 4 19 10 -3 6 -15 10 -26 10 -10
0 -19 -4 -19 -10z"/>
<path d="M313 2223 c9 -2 25 -2 35 0 9 3 1 5 -18 5 -19 0 -27 -2 -17 -5z"/>
<path d="M4690 2191 c0 -5 27 -12 61 -16 74 -9 218 3 198 16 -18 12 -259 12
-259 0z"/>
<path d="M725 2169 c-135 -4 -274 -16 -390 -32 -99 -14 -215 -29 -258 -32 -42
-4 -77 -11 -77 -16 0 -12 13 -11 203 2 101 8 161 9 168 2 6 -6 -30 -14 -98
-22 -60 -7 -126 -15 -148 -19 l-40 -6 45 -7 c97 -15 530 29 530 53 0 4 -24 8
-52 9 -52 1 -52 1 -18 10 19 5 62 11 95 14 199 16 363 25 452 25 56 0 104 4
107 9 7 10 -131 21 -234 19 -41 -1 -169 -5 -285 -9z m-277 -76 c-10 -2 -26 -2
-35 0 -10 3 -2 5 17 5 19 0 27 -2 18 -5z"/>
<path d="M5328 2173 c7 -3 16 -2 19 1 4 3 -2 6 -13 5 -11 0 -14 -3 -6 -6z"/>
<path d="M6145 2170 l-250 -5 105 -12 c58 -7 137 -16 177 -19 40 -4 70 -10 68
-14 -5 -8 -104 -4 -240 10 -219 22 -228 21 -88 -10 139 -31 311 -50 451 -50
l82 0 0 55 c0 54 -1 55 -27 53 -16 -1 -140 -5 -278 -8z"/>
<path d="M5305 2106 c6 -3 87 -15 180 -26 94 -12 224 -32 290 -45 142 -28 385
-65 417 -64 71 3 -223 67 -477 104 -149 22 -437 43 -410 31z"/>
<path d="M4695 2090 c92 -12 143 -12 125 0 -8 5 -53 9 -100 8 l-85 -1 60 -7z"/>
<path d="M798 2073 c-75 -6 -56 -23 25 -23 39 0 117 -2 172 -5 103 -5 96 1
-30 24 -59 11 -74 11 -167 4z"/>
<path d="M4635 2041 c-27 -4 -36 -9 -27 -15 16 -10 172 2 193 15 16 10 -100
10 -166 0z"/>
<path d="M4565 1970 c-4 -6 -5 -13 -4 -14 2 -2 69 -7 149 -11 80 -4 148 -9
151 -10 13 -9 593 -15 584 -7 -12 11 -490 44 -712 50 -113 2 -163 0 -168 -8z"/>
<path d="M535 1955 c-99 -8 -241 -21 -315 -30 -74 -9 -154 -18 -178 -21 -33
-4 -42 -9 -42 -25 0 -26 28 -24 245 17 67 13 158 17 360 19 300 3 459 17 434
39 -13 11 -350 12 -504 1z"/>
<path d="M6235 1951 c-4 -7 -49 -11 -113 -12 -156 -2 -72 -15 151 -25 177 -7
177 -7 177 15 0 20 -5 21 -89 21 -49 0 -96 3 -104 6 -8 3 -18 1 -22 -5z"/>
<path d="M4536 1911 c-4 -6 -1 -13 6 -16 43 -14 291 -27 698 -35 256 -5 515
-14 575 -20 61 -6 228 -14 373 -17 258 -6 262 -6 262 14 0 19 -8 21 -97 26
-54 4 -237 6 -406 6 -170 0 -354 5 -410 11 -56 5 -264 15 -462 20 -198 6 -399
13 -446 17 -60 4 -88 2 -93 -6z"/>
<path d="M805 1823 c-89 -22 -120 -25 -280 -24 -153 1 -200 -3 -314 -25 -169
-32 -211 -48 -211 -80 0 -13 1 -24 3 -24 1 0 38 12 82 26 136 43 203 54 416
64 177 8 224 14 324 40 64 16 118 30 121 30 2 0 4 5 4 10 0 15 -33 11 -145
-17z"/>
<path d="M0 1812 c0 -17 5 -18 58 -10 114 18 123 26 30 27 -79 1 -88 -1 -88
-17z"/>
<path d="M4961 1826 c3 -3 38 -10 79 -16 41 -6 111 -17 155 -25 54 -10 178
-16 385 -19 168 -3 432 -8 588 -12 277 -7 282 -7 282 13 0 19 -10 20 -277 26
-153 4 -321 11 -373 16 -104 10 -848 25 -839 17z"/>
<path d="M4440 1750 c0 -5 6 -10 13 -10 8 0 103 -11 213 -24 260 -32 404 -42
404 -27 0 6 -6 11 -12 11 -7 0 -60 7 -118 16 -261 37 -500 54 -500 34z"/>
<path d="M5610 1724 c-160 -29 -311 -77 -180 -58 30 5 272 7 538 5 474 -3 482
-2 482 17 0 19 -11 20 -307 26 -170 4 -353 8 -408 10 -55 2 -111 2 -125 0z"/>
<path d="M705 1705 c-33 -8 -130 -19 -215 -25 -232 -18 -490 -77 -490 -112 0
-23 8 -23 110 7 91 27 245 54 460 79 125 15 212 36 235 57 13 12 -28 10 -100
-6z"/>
<path d="M4405 1641 c-24 -6 -11 -9 60 -15 50 -4 185 -16 300 -26 262 -23 461
-33 421 -20 -16 5 -93 14 -170 20 -78 6 -204 18 -281 26 -190 19 -294 24 -330
15z"/>
<path d="M6345 1620 c-14 -6 -2 -9 43 -9 35 -1 62 3 62 9 0 12 -77 12 -105 0z"/>
<path d="M620 1613 c-159 -26 -215 -36 -275 -50 -143 -32 -251 -62 -297 -83
-39 -17 -48 -26 -48 -47 0 -29 -4 -30 120 21 47 19 139 46 205 60 66 14 154
33 195 42 123 26 163 39 168 52 4 12 -16 14 -68 5z"/>
<path d="M4385 1566 c64 -18 140 -28 265 -36 204 -13 599 -55 650 -70 19 -5
75 -10 125 -10 91 0 267 -18 405 -41 45 -8 170 -13 317 -14 212 0 268 4 252
19 -2 2 -98 9 -214 16 -115 6 -277 18 -360 27 -82 9 -242 17 -355 17 -147 2
-229 7 -290 19 -194 38 -362 59 -625 77 -77 5 -167 12 -200 15 l-60 5 90 -24z"/>
<path d="M5951 1586 c2 -2 56 -6 119 -9 63 -3 104 -1 90 3 -24 8 -218 14 -209
6z"/>
<path d="M4370 1499 c52 -5 127 -16 165 -24 39 -9 122 -20 185 -25 63 -6 187
-17 275 -25 88 -9 210 -20 270 -25 61 -5 148 -19 195 -30 47 -11 136 -22 200
-25 l115 -4 -85 10 c-79 8 -172 24 -390 64 -47 9 -123 20 -170 25 -47 5 -150
16 -230 25 -80 9 -203 22 -275 30 -71 8 -179 14 -240 13 l-110 -1 95 -8z"/>
<path d="M6398 1333 c12 -2 30 -2 40 0 9 3 -1 5 -23 4 -22 0 -30 -2 -17 -4z"/>
<path d="M6308 1323 c12 -2 30 -2 40 0 9 3 -1 5 -23 4 -22 0 -30 -2 -17 -4z"/>
<path d="M5080 1204 c0 -9 54 -54 83 -70 42 -23 47 -6 8 27 -32 26 -91 54 -91
43z"/>
<path d="M5488 1168 c6 -8 41 -27 77 -43 36 -15 65 -32 65 -38 0 -13 -48 -76
-75 -99 -11 -10 -53 -38 -92 -64 -40 -25 -73 -49 -73 -53 0 -5 25 -11 55 -15
49 -5 64 -2 147 33 51 22 115 45 141 52 26 6 45 14 42 18 -4 3 -39 8 -78 11
-65 5 -69 6 -55 21 10 10 42 18 82 22 88 8 121 26 49 27 -28 0 -55 5 -58 10
-8 12 -6 12 125 15 58 1 138 10 179 19 40 9 150 21 244 26 94 6 174 13 177 16
3 3 -128 3 -290 -1 -245 -6 -315 -4 -410 9 -116 16 -208 32 -245 43 -17 5 -18
4 -7 -9z"/>
<path d="M50 1163 c0 -19 64 -94 91 -109 39 -19 289 -99 357 -113 100 -21 125
-11 34 13 -28 8 -74 30 -104 49 -29 20 -91 49 -138 65 -68 23 -166 65 -232
100 -5 2 -8 0 -8 -5z"/>
<path d="M0 1012 l0 -69 46 -7 c26 -3 63 -6 84 -6 20 0 70 -9 111 -20 41 -12
142 -38 224 -60 166 -43 151 -53 -37 -25 -91 14 -120 14 -106 0 11 -11 248
-68 318 -77 181 -22 189 -27 40 -24 -114 3 -167 9 -245 29 -55 14 -133 32
-174 41 -40 9 -103 29 -140 45 -36 16 -78 33 -94 36 -26 7 -27 5 -27 -29 0
-31 3 -36 23 -36 24 0 107 -35 107 -45 0 -3 -29 -3 -65 0 -61 7 -65 6 -65 -13
0 -12 5 -24 11 -28 6 -4 120 -10 253 -13 l241 -7 75 -34 c86 -39 109 -54 59
-39 -95 28 -191 41 -363 49 -107 5 -196 5 -205 1 -11 -7 -1 -11 34 -16 28 -4
100 -16 160 -26 l110 -18 -85 5 c-122 7 -212 23 -231 40 -8 8 -25 14 -37 14
-18 0 -22 -6 -22 -30 0 -29 2 -30 43 -31 23 0 76 -7 117 -15 228 -44 435 -69
466 -57 9 3 -23 16 -77 29 -50 13 -95 26 -98 30 -6 7 27 2 169 -21 47 -8 121
-19 165 -24 65 -9 100 -21 189 -66 59 -30 116 -55 127 -55 10 0 21 -5 24 -10
11 -17 -57 -11 -213 20 -83 16 -177 32 -209 35 -32 4 -186 22 -342 41 -156 19
-302 34 -323 34 -39 0 -39 0 -36 -37 l3 -37 135 -22 c89 -14 129 -24 117 -29
-21 -9 -213 -1 -239 10 -15 6 -18 1 -18 -28 l0 -35 148 -6 c81 -3 212 -11 292
-17 80 -6 282 -15 450 -19 189 -5 347 -14 415 -24 65 -9 190 -17 305 -18 107
-1 152 -3 100 -5 -52 -1 -144 -7 -205 -14 -91 -9 -131 -8 -237 5 -86 11 -207
16 -384 16 -142 0 -319 4 -393 10 -75 5 -216 11 -313 14 l-178 4 0 -23 c0 -39
56 -47 374 -52 159 -3 283 -9 275 -13 -8 -4 -103 -13 -211 -20 -182 -12 -361
-9 -416 6 -21 6 -22 4 -22 -69 l0 -74 273 -6 c149 -3 337 -11 417 -17 115 -8
196 -8 395 5 191 11 293 13 435 6 724 -37 975 -21 1187 78 131 61 159 66 502
82 221 11 258 11 395 -6 212 -25 412 -17 591 24 187 42 211 44 625 47 206 1
587 6 845 11 447 8 463 8 320 18 -82 5 -496 10 -920 9 l-770 -1 -155 -27 c-85
-15 -207 -30 -270 -33 -105 -5 -125 -3 -207 21 -245 70 -572 54 -935 -45 -196
-53 -174 -49 -393 -74 -27 -3 -268 -10 -535 -15 -267 -5 -552 -12 -635 -16
-82 -4 -253 -3 -380 2 l-230 8 290 12 c160 7 367 21 462 33 184 22 375 26 613
12 155 -10 380 1 525 24 55 9 190 38 300 66 243 60 374 79 559 79 154 0 232
-9 374 -41 115 -27 199 -23 399 17 78 15 141 30 139 31 -11 11 -191 25 -421
33 -148 5 -328 14 -400 20 -81 7 -211 9 -345 6 -210 -6 -428 6 -610 34 -249
39 -301 37 -495 -18 l-130 -37 -200 0 c-173 0 -214 4 -305 24 -126 28 -147 38
-227 108 -34 29 -82 63 -107 74 -25 11 -46 23 -46 26 0 15 90 -12 159 -48 65
-33 92 -41 171 -50 52 -6 147 -18 210 -27 63 -9 174 -16 245 -16 114 1 141 4
215 28 82 27 134 54 80 42 -100 -23 -343 -47 -405 -41 -154 14 -192 31 -317
140 -35 31 -85 66 -113 80 -51 24 -190 49 -337 61 -43 3 -78 9 -78 14 0 5 30
11 68 15 37 3 76 7 86 8 11 1 -8 16 -50 37 -65 33 -74 35 -158 32 -49 -1 -95
-7 -103 -13 -40 -34 -420 57 -523 125 -19 13 -45 26 -58 30 -21 7 -22 5 -22
-62z m423 -399 c-7 -2 -21 -2 -30 0 -10 3 -4 5 12 5 17 0 24 -2 18 -5z m1682
-223 c42 -6 31 -8 -60 -9 -74 0 -105 2 -95 9 18 11 84 12 155 0z m-178 -6 c-3
-3 -12 -4 -19 -1 -8 3 -5 6 6 6 11 1 17 -2 13 -5z m284 -65 c9 -5 -30 -9 -96
-9 -60 0 -155 -2 -210 -4 l-100 -5 90 14 c101 14 295 17 316 4z"/>
<path d="M6112 1030 c-40 -5 -76 -11 -80 -15 -8 -8 205 4 283 15 43 6 37 7
-40 7 -49 0 -123 -3 -163 -7z"/>
<path d="M6305 783 c-16 -2 -73 -12 -125 -23 -52 -11 -147 -26 -210 -35 -63
-9 -119 -18 -125 -21 -17 -7 317 5 385 15 36 5 100 12 143 16 73 6 77 8 77 31
0 23 -3 24 -57 23 -32 -1 -71 -4 -88 -6z"/>
<path d="M1414 725 c23 -18 144 -64 211 -82 l50 -13 -80 6 c-44 2 -93 7 -110
10 -23 5 -27 3 -19 -6 16 -16 169 -49 229 -50 28 0 102 9 165 19 63 11 166 25
228 32 61 7 112 16 112 20 0 7 -99 32 -260 65 -78 16 -100 16 -247 4 -125 -10
-174 -11 -219 -2 -73 15 -83 15 -60 -3z"/>
<path d="M6353 693 c-80 -6 -63 -23 22 -23 60 0 75 3 75 15 0 9 -8 14 -22 13
-13 -1 -47 -3 -75 -5z"/>
<path d="M3112 661 c21 -14 141 -21 193 -11 30 6 14 8 -67 9 -58 0 -115 4
-125 7 -16 5 -16 4 -1 -5z"/>
<path d="M1145 537 c11 -9 40 -23 65 -31 59 -20 359 -66 427 -66 59 0 190 26
198 40 3 4 -48 11 -113 14 -64 4 -160 11 -212 16 -52 6 -142 15 -200 21 -58 5
-123 13 -145 16 -38 5 -39 5 -20 -10z"/>
<path d="M5245 450 c-33 -5 -145 -13 -250 -19 -188 -11 -371 -33 -384 -47 -8
-9 515 3 733 17 94 6 239 8 323 5 132 -5 558 2 550 10 -1 1 -77 10 -167 19
-187 19 -713 28 -805 15z"/>
<path d="M6360 262 c-103 -20 -129 -32 -55 -26 121 10 145 15 145 30 0 8 -3
13 -7 13 -5 -1 -42 -8 -83 -17z"/>
<path d="M5125 229 c-71 -3 -161 -7 -199 -8 -38 0 -67 -4 -63 -7 11 -12 353
-4 442 10 l90 13 -70 0 c-38 0 -128 -4 -200 -8z"/>
<path d="M4340 219 c-36 -5 -94 -18 -130 -29 l-65 -20 116 5 c64 3 125 7 135
9 11 2 87 7 169 10 83 4 164 10 180 14 79 17 -280 27 -405 11z"/>
<path d="M5853 213 c37 -2 97 -2 135 0 37 2 6 3 -68 3 -74 0 -105 -1 -67 -3z"/>
<path d="M3055 164 c-155 -23 -230 -40 -313 -70 -132 -48 -208 -71 -267 -82
-42 -8 -26 -10 95 -11 129 -1 154 2 224 25 137 43 438 84 821 111 l110 8 -70
6 c-91 9 -561 19 -600 13z"/>
<path d="M4335 125 c-243 -31 -432 -46 -660 -55 -360 -14 -440 -21 -560 -46
l-110 -24 420 5 c411 5 460 8 735 39 314 35 434 40 664 26 175 -11 267 -11
455 -2 145 8 352 10 536 6 242 -5 328 -3 444 10 79 9 148 16 154 16 7 0 8 3 1
10 -11 11 -745 26 -964 19 -205 -6 -634 -5 -830 3 -127 5 -205 3 -285 -7z"/>
<path d="M32 23 c-17 -2 -32 -8 -32 -14 0 -5 143 -8 363 -7 217 1 334 4 292 8
-88 10 -579 20 -623 13z"/>
<path d="M4370 10 c-71 -4 -20 -6 155 -7 160 0 235 3 195 7 -75 9 -200 9 -350
0z"/>
<path d="M5260 10 c-47 -3 51 -6 220 -7 203 0 275 3 215 8 -106 8 -314 8 -435
-1z"/>
<path d="M1183 3 c76 -2 198 -2 270 0 73 1 11 3 -138 3 -148 0 -208 -2 -132
-3z"/>
</g>
</svg>
